<?xml version="1.0" standalone="no"?>
<!DOCTYPE svg PUBLIC "-//W3C//DTD SVG 1.1//EN" "http://www.w3.org/Graphics/SVG/1.1/DTD/svg11.dtd" >
<svg xmlns="http://www.w3.org/2000/svg" xmlns:xlink="http://www.w3.org/1999/xlink" version="1.1">
<metadata>
Created by FontForge 20150501 at Tue May 14 22:30:27 2019

Typeface (c) Plugin Comptes All Rights Reserved 
</metadata>
<defs>
<font id="PluginComptes" horiz-adv-x="1024" >
  <font-face 
    font-family="Plugin Comptes Icons"
    font-weight="400"
    font-stretch="normal"
    units-per-em="2048"
    panose-1="2 0 5 0 0 0 0 0 0 0"
    ascent="1638"
    descent="-410"
    x-height="1432"
    cap-height="1572"
    bbox="-484 -484 4394.55 1756"
    underline-thickness="150"
    underline-position="-292"
    unicode-range="U+0020-F002"
  />
<missing-glyph 
d="M100 0v1434h824v-1434h-824zM150 50h724v1334h-724v-1334zM325 1148q31 28 58 43q53 30 112 30q92 0 148 -47.5t56 -127.5q0 -49 -23 -98.5t-87 -129.5q-63 -80 -99 -132t-36 -99q0 -38 24 -133h-32q-35 97 -35 148q0 76 81.5 218t81.5 217q0 57 -33 90t-91 33
q-38 0 -69 -17q-26 -15 -56 -40v45zM389 334l57 58q11 10 20 10q10 0 22 -11l56 -60q9 -11 9 -20q0 -11 -10 -22l-56 -62q-14 -14 -21 -14q-11 0 -20 10l-61 71q-7 9 -7 18q0 10 11 22z" />
    <glyph glyph-name=".notdef" 
d="M100 0v1434h824v-1434h-824zM150 50h724v1334h-724v-1334zM325 1148q31 28 58 43q53 30 112 30q92 0 148 -47.5t56 -127.5q0 -49 -23 -98.5t-87 -129.5q-63 -80 -99 -132t-36 -99q0 -38 24 -133h-32q-35 97 -35 148q0 76 81.5 218t81.5 217q0 57 -33 90t-91 33
q-38 0 -69 -17q-26 -15 -56 -40v45zM389 334l57 58q11 10 20 10q10 0 22 -11l56 -60q9 -11 9 -20q0 -11 -10 -22l-56 -62q-14 -14 -21 -14q-11 0 -20 10l-61 71q-7 9 -7 18q0 10 11 22z" />
    <glyph glyph-name=".null" horiz-adv-x="0" 
 />
    <glyph glyph-name="nonmarkingreturn" horiz-adv-x="508" 
 />
    <glyph glyph-name="space" unicode=" " horiz-adv-x="508" 
 />
    <glyph glyph-name="space" unicode="&#xa0;" horiz-adv-x="508" 
 />
    <glyph glyph-name="exclam" unicode="!" 
d="M336 1542v-166q-254 -34 -437 -217t-217 -437h-166v-200h166q34 -256 217 -438t437 -216v-166h200v166q254 34 437 216t217 438h166v200h-166q-34 254 -217 437t-437 217v166h-200zM336 1174v-334q48 22 100 22t100 -22v334q172 -32 296 -156t156 -296h-72h-262
q22 -48 22 -100t-22 -100h262h72q-32 -172 -156 -296t-296 -156v112v222q-48 -22 -100 -22t-100 22v-334q-172 32 -296 156t-156 296h334q-22 48 -22 100t22 100h-334q32 172 156 296t296 156z" />
    <glyph glyph-name="quotedbl" unicode="&#x22;" 
d="M20.5 1466l-104 -134h-94q-34 0 -58 -28t-24 -68v-48q0 -12 2 -24h1514q2 12 2 24v48q0 40 -24 68t-58 28h-824l-92 134h-240zM-259.5 1074q-52 0 -88 -36t-36 -88v-1108h1766v1108q0 52 -36 88t-88 36h-1518zM740.5 922h320v-120h-320v120zM860.5 722h320v-120h-320v120
zM740.5 522h320v-120h-320v120zM860.5 322h320v-120h-320v120zM740.5 122h320v-120h-320v120z" />
    <glyph glyph-name="numbersign" unicode="#" 
d="M538 1558l-152 -190l2 -2l-24 -26l64 -86v-86l-60 -42v-186l-96 -90v-186q-102 -60 -164 -165t-62 -229q0 -188 133 -322t321 -134t321 134t133 322q0 146 -84 263t-218 165v670l-38 62l-70 116v-2v2zM812 468v-2h-2zM500 212q54 0 93 -39t39 -93t-39 -93t-93 -39t-93 39
t-39 93t39 93t93 39z" />
    <glyph glyph-name="dollar" unicode="$" horiz-adv-x="1315" 
d="M964 110h39v39h-39v-1v-38zM494 227v0v-39h39q-1 47 0 39h-39zM962 734q-4 -6 -30 -51q-88 -147 -111 -185q-9 -14 -10 -18q-5 -14 3 -26q8 -11 21 -13q19 -2 37 29l51 84q33 55 50 84q31 53 37 62q11 19 12 22q7 15 -4 29q-10 13 -26 11q-13 -2 -20 -11q-2 -3 -10 -17z
M862 620q1 1 7 13q25 42 45 77q7 12 7 13q6 16 -5 28q-10 12 -25 11q-12 -1 -20 -10q-1 -2 -8 -12q-17 -29 -44 -77q-7 -12 -8 -13q-9 -24 13 -37t38 7zM1179 236v-1h-196h-195v548q-1 1 0 1h196q120 0 195 -1v-547zM1029 71q-3 -1 -22 -1h-44q-20 0 -22 1q-12 2 -15 13
q-1 3 -1 23v47q0 18 1 22q4 10 15 12v0h65q19 0 21 -1q11 -2 14 -12q1 -4 1 -22v-45v-22q-2 -11 -13 -15zM986 882h21q20 0 24 -2q7 -4 10 -11q3 -9 -2 -17q-4 -8 -12 -9q-1 -1 -22 -1h-44q-20 0 -22 1q-14 4 -14 19q0 18 18 19q3 1 43 1zM1258 813q0 27 -5 42
q-15 53 -65 75q-18 8 -37 10h-45h-233h-46q-15 -1 -21 -2q-11 -2 -19 -4q-51 -18 -70 -70q-8 -20 -8 -39v-698q0 -26 5 -42q15 -52 64 -75q17 -8 37 -10h46h280q38 0 69 23q28 21 40 53q7 19 8 39v698zM190 676q15 1 30 26q7 11 31 52q19 32 31 52q27 46 82 138
q55 93 83 140q7 12 25 43q17 28 26 43q7 11 5 22t-10 18q-9 7 -21 6t-19 -8q-3 -3 -11 -17q-4 -7 -11 -18q-7 -13 -10 -17q-42 -72 -128 -217q-87 -144 -129 -217q-7 -11 -5 -22q4 -26 31 -24zM221 939q51 86 130 222q8 15 9 17q5 15 -5 28q-9 12 -25 10q-16 -1 -30 -25
q-22 -39 -64 -111q-44 -75 -65 -111q-10 -16 -10 -17q-5 -11 0 -22q9 -25 35 -18q11 3 25 27zM556 149h-22h-45q-19 0 -22 1q-11 4 -12 15q-1 2 -1 22v44q0 18 1 21q3 13 17 14h44h21q18 0 21 -1q9 -2 13 -11q1 -4 1 -21v-45q0 -25 -3 -30q-4 -7 -13 -9zM509 1361
q18 2 28 -12q5 -7 6 -14q1 -14 -9 -24q-11 -11 -25 -8q-10 1 -18 10q-8 8 -8 19q0 6 3 12q7 15 23 17zM660 313h-538q-1 0 -1 1v939q0 1 1 1h783v-265h78v291q0 23 -1 34q-3 15 -9 28q-25 52 -79 65q-9 2 -70 3q-11 20 -30 23q-3 1 -25 1h-24q-22 -3 -33 -24h-532
q-30 0 -40 -1q-31 -6 -55 -27q-39 -32 -42 -81v-41v-1065q0 -34 19 -63q26 -40 72 -51q13 -3 39 -3q395 0 492 1q-5 17 -5 54v180z" />
    <glyph glyph-name="percent" unicode="%" horiz-adv-x="938" 
d="M444 167h60v60h-59q-1 0 -1 -1v-59zM441 1119q-5 -9 -46 -77q-132 -221 -169 -283q-13 -21 -15 -26q-8 -22 5 -41q11 -17 31 -20q23 -2 38 13q4 5 20 31q25 43 76 128q51 84 77 128q45 76 57 96q17 28 19 32q9 24 -7 45q-15 19 -40 17q-19 -3 -31 -17q-3 -5 -15 -26z
M263 930q16 4 25 16q2 2 12 19q35 60 68 117q11 19 11 20q9 24 -7 43q-16 18 -38 17q-19 -2 -31 -15q-3 -3 -12 -19q-26 -45 -68 -118q-11 -18 -11 -20q-7 -16 0 -33q6 -15 18 -22q15 -9 33 -5zM773 359v-1h-299q-183 0 -299 1v835q0 1 1 1h299q183 0 298 -1v-835zM543 109
q-5 -2 -33 -2h-67q-31 0 -33 1q-19 3 -24 20q-2 5 -2 35v72q0 28 3 33q6 16 23 18v1h99q29 0 32 -1q16 -4 21 -19q2 -6 2 -33v-70q0 -30 -1 -33q-3 -17 -20 -22zM478 1344h33q30 0 35 -2q12 -6 16 -18q5 -13 -3 -25q-6 -12 -19 -14h-33h-68h-32q-23 6 -23 29q0 27 29 30h65z
M892 1240q0 40 -7 64q-23 80 -99 114q-27 12 -56 15q-13 1 -70 1h-354h-71q-23 -2 -32 -3q-16 -3 -28 -8q-78 -27 -107 -105q-12 -31 -12 -59v-1065q0 -40 7 -64q23 -80 98 -114q26 -12 56 -15q8 -1 71 -1h426q58 0 106 35q42 32 61 81q11 28 11 60v1064z" />
    <glyph glyph-name="ampersand" unicode="&#x26;" horiz-adv-x="2048" 
d="M871 138q14 18 12 72q-3 72 -1 85h-52q2 -11 -3 -92q-3 -57 23 -65h21zM443 315q16 -13 38 8q19 19 24 45q-51 1 -62 -53zM1862 251q-53 -28 -91 -40q-4 61 63 88q81 32 93 58q23 6 23 -19q-1 -45 -2 -43q-17 -8 -86 -44zM1854 91q-50 -31 -94 -37q1 59 68 89
q86 37 99 57q14 0 12 -25q-2 -33 -1 -37q-23 -8 -84 -47zM1760 -113q-23 60 48 95q100 49 109 62q14 -1 12 -25q-3 -34 -2 -38q-109 -54 -167 -94zM1722 483q66 -13 174 -84q-43 -47 -167 -94q-23 21 -98 59q-66 34 -90 67q86 70 181 52zM1206 118q-93 75 -125 82v53
q48 -8 131 -70q80 -61 130 -66q50 -6 135 30q96 40 147 43q12 -47 -99 -101q-105 -51 -173 -45q-60 4 -146 74zM1184 -31q-96 49 -114 127q-8 3 261 -136q59 8 144 34q102 31 139 39q-8 -76 -107 -102q-161 -42 -165 -44q-6 4 -158 82zM1185 -197q-94 76 -125 84v52
q91 -44 251 -136q64 5 150 33q106 33 142 40q2 -56 -107 -105q-98 -45 -165 -41q-59 4 -146 73zM1582 232q-235 -111 -428 42q32 18 110 41q77 24 109 42q160 -73 209 -125zM1841 485q-98 60 -164 81q-223 -168 -649 -261q1 -16 0 -44q-1 -35 -1 -46q1 -52 22 -67
q-39 -1 -36 -77q4 -76 36 -80q-43 8 -44 -45q0 -8 3 -47q2 -29 -1 -44q53 -16 156 -98q90 -73 158 -79q123 -11 349 114q265 147 310 158q-7 97 5 219q16 148 16 230q-52 21 -160 86zM1436 744h-157q2 -11 -7 -24q-8 -12 -3 -28q107 -6 167 0v52zM275 692q84 -7 168 0v52
q-178 -16 -168 -10v-42zM1245 1103q-19 -14 -18 -35q26 5 48 29q23 25 -6 34q-3 -12 -24 -28zM471 1104q19 -19 45 -25q13 17 -8 38q-18 19 -44 25q-14 -17 7 -38zM1099 1005q-24 -12 -67 -64q-47 -58 -77 -79q-52 -35 -115 -24q-157 289 -240 366q-4 -10 -29 -19
q-22 -8 -24 -23q36 -68 220 -376q-32 -90 16 -146q43 -50 109 -42q55 7 74 58q4 10 14 48q8 32 17 51q19 39 118 121q80 66 70 109q-47 38 -86 20zM840 1298q-12 -38 -14 -90q-2 -67 24 -77h21q14 21 12 77q-3 76 -1 90h-42zM704 1312q206 48 410 -42q207 -90 308 -278
q111 -207 45 -457q16 14 91 51q58 29 77 64q-2 407 -237 641q-241 239 -631 196q-272 -31 -463 -236q-190 -203 -206 -475q-22 -356 207 -589q234 -239 629 -237v156q-200 -15 -363 73q-152 81 -239 231q-86 147 -85 317q2 178 102 331q131 201 355 254z" />
    <glyph glyph-name="quotesingle" unicode="'" horiz-adv-x="2048" 
d="M1212 314q296 -21 378 114q-158 137 -656 124q-155 -4 -405 -26q-276 -24 -338 -27v-107q5 -36 39 -50q24 -10 76 -14q117 -8 136 -44q17 -183 220 -356q192 -163 451 -238q272 -79 473 -13q230 75 291 320q-656 -9 -660 -8q-385 45 -452 331q65 20 447 -6zM307 930
q-68 3 -99 0q-104 -11 -89 -108q111 -80 380 -83q81 -2 240 5q169 6 241 6q73 0 244 -10q160 -9 240 -7q263 5 341 125q-67 62 -211 76q-97 10 -288 -1q-425 -24 -541 33q123 198 325 284q220 94 500 38q13 -9 99 -71q63 -47 106 -68q128 -61 225 32q-81 274 -337 373
q-228 89 -524 21q-285 -65 -497 -239q-225 -185 -256 -406q-30 -3 -99 0z" />
    <glyph glyph-name="parenleft" unicode="(" horiz-adv-x="2414" 
d="M2331 1360q-50 -86 -150 -241q-105 -163 -151 -241q-34 18 -60 69q-49 95 -44 87q-175 -77 -509 -248q-334 -170 -509 -248q-20 43 -71 112q-53 70 -72 110q-470 -198 -562 -235v-744h105q18 112 15 319q-4 276 -2 334q30 -3 61 17q34 21 56 22q5 -60 -3 -362
q-6 -226 30 -330q53 -8 57 51q1 18 -3 51q-3 33 -2 42q5 92 1 293q-5 211 -1 294q23 1 56 22q31 20 61 17q7 -60 0 -271q-6 -229 0 -342q1 -12 -2 -52q-2 -36 0 -55q7 -62 67 -50q36 130 30 395q-8 356 -4 428q76 -35 103 -139q20 -78 18 -224q-7 -383 23 -460q57 3 60 110
q1 34 -3 94q-5 65 -5 84v326q64 15 105 52q13 -52 13 -352q0 -28 -4 -91q-4 -59 -3 -88q1 -98 46 -135q59 30 61 143q1 34 -4 100q-5 70 -5 97v378q64 16 104 52q22 -100 12 -393q-9 -269 28 -377q51 -7 56 55q1 20 -1 62q-4 47 -3 66q1 90 0 323q-1 235 0 304q12 4 56 28
q33 19 61 24q5 -76 -3 -447q-6 -278 29 -415q58 2 61 78q0 23 -4 64q-5 43 -4 54v358q-1 257 0 360q22 0 70 30q38 24 60 9q14 -961 13 -953q68 0 73 87q2 28 -2 73q-6 53 -6 62v796q64 16 105 53q17 -190 14 -521q-4 -442 -1 -537q68 -17 207 -14q186 4 223 1v-117h-2192
v1710h104q18 -107 15 -306q-4 -267 -2 -321q121 44 322 129q226 97 318 132q52 -112 143 -209q172 78 427 207q373 187 422 211q-14 21 -45 79q-27 52 -47 78q90 13 588 -14z" />
    <glyph glyph-name="parenright" unicode=")" horiz-adv-x="2048" 
d="M1420 24q32 0 43 10v194q-70 32 -82 -56q-2 -15 -5 -79q-3 -49 -10 -69q-6 0 54 0zM571 24h223q-2 16 1 113q1 70 -11 101q-16 -1 -113 1q-69 2 -100 -11v-204zM949 577h-39q-20 -40 3 -87q4 -9 46 -68q-16 165 -10 155zM580 577q-12 -31 -11 -100q3 -97 2 -113
q111 -33 223 0q-2 15 1 113q1 69 -11 100h-204zM1279 553q13 -9 9 -24q80 10 97 -39q14 -141 10 -136h58q33 112 0 223q-30 -2 -103 1q-65 2 -81 -1q-4 -15 10 -24zM997 451q0 -25 3 -79q3 -52 2 -77q-1 -86 -34 -125q-24 157 -26 163q-20 88 -61 128q-15 -4 -31 -18
q-20 -17 -27 -21q72 -387 194 -553h252q77 151 77 456q0 13 3 45q3 31 2 48q-1 54 -34 72q-21 -3 -27 -28q-4 -17 -2 -54q5 -82 -19 -93q-19 11 -22 47q-1 18 3 71q4 47 1 68q-6 32 -31 37q-25 -5 -30 -39q-3 -21 1 -72q5 -52 2 -72q-5 -34 -31 -40q-16 24 -7 149
q4 50 -3 74q-8 34 -38 39q-20 -13 -23 -53q-1 -20 4 -79q5 -52 1 -76q-5 -36 -31 -44q-15 58 -8 234q6 162 -21 222h-29q0 -5 -6 -13q-5 -7 -4 -16v-301zM1240 694q124 -31 223 0q-1 16 1 117q2 73 -11 106q-16 -1 -112 1q-70 1 -101 -11v-213zM959 741q-3 59 9 69
q34 27 107 0q14 -14 18 -60q4 -52 11 -66q36 13 32 94q-6 116 -3 129q-33 13 -106 11q-100 -3 -117 -1q0 -2 -8 -58q-5 -46 -6 -75q-2 -93 43 -100q23 5 20 57zM571 694q111 -33 223 0q-2 16 1 117q1 73 -11 106q-16 -1 -113 1q-69 1 -100 -11v-213zM1744 1198
q13 -272 11 -726q-3 -607 -1 -739h-1474v1436q-1 23 19 29h1445z" />
    <glyph glyph-name="asterisk" unicode="*" horiz-adv-x="827" 
d="M259 1058q-3 -3 -18 -16q-15 -12 -24 -21q-28 -28 -25 -45q3 -19 25 -20q15 -1 43 28q9 8 22 23t17 19q27 27 76 77t77 78q3 3 18 16q16 13 25 21q30 29 27 48q-2 12 -14 18q-14 6 -26 -3zM264 1125q11 11 25 28t15 18q4 4 20 17q18 15 28 25q34 32 32 51q-1 11 -10 17
q-10 6 -25 3q-10 -3 -87 -80q-73 -73 -70 -88q2 -16 15 -20q21 -7 57 29zM549 430h-275q-97 0 -117 20t-20 203v558q0 83 4 100q11 42 58 50q20 4 135 3q16 0 58 -2q37 -1 57 -1q14 0 68 3q47 2 74 2q88 -3 109 -35q10 -16 10 -213v-550q0 -63 -3 -80q-6 -33 -30 -48
q-17 -10 -128 -10zM601 216q-1 43 -12 72q39 5 62 -19q21 -22 21 -55t-22 -54q-23 -23 -63 -17q16 24 14 73zM409 320q57 8 93 -30q30 -31 30 -75q0 -56 -39 -85q-36 -26 -84 -19q-49 6 -76 40q-30 37 -14 92q20 68 90 77zM245 218q-2 -49 14 -73q-38 -8 -62 14
q-21 20 -22 54t19 55q23 25 63 20q-11 -29 -12 -70zM782 1186q0 128 -7 150q-25 72 -93 93q-17 5 -120 5h-125q-236 0 -253 -3q-81 -12 -110 -85q-10 -25 -10 -147v-959q0 -124 10 -150q25 -65 90 -85q16 -5 128 -5h135q238 0 260 8q65 22 88 87q7 22 7 148v943z" />
    <glyph glyph-name="plus" unicode="+" horiz-adv-x="2289" 
d="M736 210q-8 27 -11 35q40 8 47 -28q6 -35 -26 -43q-4 14 -10 36zM656 359q5 -21 9 -28q-26 -9 -33 18q-8 26 12 36q7 -7 12 -26zM691 362q-7 20 -9 33q18 -4 38 -27q11 6 40 20q26 12 39 20q-15 32 -53 45q-40 14 -83 1q-3 14 -7 22q-6 -1 -16 -4q-10 -4 -16 -5
q0 -5 3 -11q2 -8 2 -12q-40 -12 -64 -41q-27 -33 -22 -75q12 -93 147 -83q3 -14 11 -40q8 -25 11 -39q-26 3 -49 40q-24 -11 -86 -37q13 -41 58 -60q45 -17 97 -6q1 -7 5 -20q4 -12 5 -20q8 0 18 4q12 4 16 4q-2 9 -6 23q-5 15 -6 21q43 11 70 45q30 36 24 82
q-11 99 -158 87q-2 9 -9 33zM1049 344q5 79 64 139q58 59 138 67q84 8 149 -35q60 -40 85 -107q28 -70 9 -140q-18 -64 -69 -109t-117 -56q-71 -11 -136 22q-134 69 -123 219zM1251 622q-63 -4 -118 -33q-75 -40 -116 -109q-47 -79 -39 -179q10 -120 100 -198
q97 -85 220 -74q119 11 199 98q85 92 74 221q-10 122 -97 199q-98 85 -223 75zM1882 359q-5 27 -9 36q36 10 44 -26t-24 -45q-6 11 -11 35zM1816 483q-27 -3 -32 22t15 35q1 -2 17 -57zM1837 547q8 -1 38 -27q28 13 79 33q-12 35 -49 50q-36 15 -84 6q-12 23 -9 22
q6 3 -30 -9q0 -4 2 -11q3 -8 3 -12q-58 -6 -83 -64t14 -103q28 -33 119 -34q2 -10 10 -40q7 -25 7 -39q-26 4 -43 41q-14 -5 -45 -17q-28 -11 -45 -15q14 -43 54 -63q41 -20 98 -10q1 -8 5 -21q4 -16 5 -21q18 3 34 8q-12 54 -10 44q63 5 90 73t-20 113q-31 29 -124 30
q-15 59 -16 66zM1512 1040q-26 -9 -37 14q-11 22 7 37q8 -11 30 -51zM1611 943q-13 20 -18 32q38 14 52 -18q13 -32 -16 -46q-5 11 -18 32zM1556 965q15 -21 42 -71q-34 -2 -54 27q-15 -9 -39 -28q-26 -20 -38 -28q17 -36 72 -44q54 -7 93 17q5 -9 22 -37q25 13 30 19
q-13 17 -22 37q50 22 63 84q13 61 -27 99q-45 42 -150 10q-33 59 -32 58q8 1 42 -15q7 5 33 27q20 17 34 27q-15 30 -65 33q-48 4 -78 -18q-13 20 -14 20q-4 -3 -14 -9t-14 -10q9 -12 12 -20q-58 -39 -63 -84q-4 -41 20 -73q25 -31 63 -35q-1 0 84 14zM1335 -16
q-310 15 -439 -27q-252 -82 -356 -121q-35 111 -93 311q-64 225 -91 312q181 142 336 192q91 29 230 24q44 -2 122 -9q90 -8 125 -10q268 -16 652 133q124 49 192 79h3q15 -99 111 -724q-190 -88 -347 -132q-154 -42 -445 -28zM419 608q-3 -2 -4 -4q5 -2 4 10q2 1 3 -1t2 -2
q-1 -2 -5 -3zM451 631q-1 -2 13 2q-11 -7 -13 -2zM1036 724q-145 8 -223 5q-1 99 63 165q63 66 156 69q102 3 169 -69q67 -71 62 -175q-77 -3 -227 5zM120 604q147 204 290 291q78 48 212 79q29 7 118 26q75 15 120 27q197 51 398 184q125 82 335 256q52 -105 140 -294
q98 -208 140 -294q-298 -139 -536 -157q1 137 -91 227q-95 94 -234 85q-106 -7 -186 -88q-88 -89 -85 -222q-81 -8 -177 -46q-48 29 -63 30q-41 5 -84 -23q-5 5 -14 20q-4 -3 -14 -9q-9 -6 -14 -9q5 -13 12 -19q-66 -57 -58 -115q-10 -9 -32 -24q-22 -16 -32 -24
q9 -34 33 -113q20 -72 31 -113q-3 4 -209 325zM1944 911q-52 111 -159 338q-105 224 -158 339h-9v-2q-195 -190 -343 -296q-190 -136 -437 -204q-438 -122 -488 -152q-161 -94 -329 -310v-7q69 -104 181 -282q137 -217 180 -284q25 -39 25 -40q11 -51 45 -158
q33 -104 44 -159h9q202 108 362 168q115 44 216 51q75 5 261 1q175 -3 256 4q93 9 221 46q142 40 391 141v10q-21 133 -132 865q-119 -62 -136 -69z" />
    <glyph glyph-name="comma" unicode="," horiz-adv-x="2048" 
d="M992 377q25 -9 41 7q13 14 13 39t-13 39q-16 16 -41 7v-92zM913 585q-3 -42 39 -38q-1 7 2 54q2 34 -15 37q-23 -15 -26 -53zM901 346q-46 36 -53 84q39 10 57 -15q26 -35 34 -38q18 6 15 44q-4 53 -2 61q-41 3 -68 33q-25 28 -27 66q-3 38 20 65q26 29 75 31v40
q14 -9 45 -25q29 -15 43 -24q48 -32 56 -82q28 8 -104 52v-91q124 -40 106 -125q-16 -76 -120 -136q-3 4 -77 60zM730 680q-62 -87 -48 -205q14 -116 91 -195q84 -87 205 -85q132 1 213 103q73 93 72 219q-1 129 -79 208q-90 89 -245 70q-140 -17 -209 -115zM1696 377
q-89 -7 -145 -70q-38 -43 -77 -138h-1004q-12 86 -73 142q-45 41 -136 79v235q173 30 209 209h991q16 -20 44 -67q27 -46 44 -67q57 -72 147 -75v-248zM157 899q2 -72 -2 -419q-3 -258 15 -403q804 -34 1617 0q37 424 0 848q-293 18 -787 15q-663 -4 -804 -2
q-29 -11 -39 -39zM1931 1069q-293 18 -788 15q-661 -4 -804 -2q-28 -11 -39 -39v-52q215 -22 771 -12q513 9 756 -28q21 -96 11 -380q-9 -260 28 -363q82 21 88 153q2 41 -4 119q-6 88 -6 119q0 401 -13 470z" />
    <glyph glyph-name="hyphen" unicode="-" horiz-adv-x="2048" 
d="M210 -63q-1 -59 -1 -61q-10 -10 -9 31q1 58 1 61q10 9 9 -31zM265 -69q-1 -10 -3 -31q-2 -22 -3 -32q-11 11 -9 49q2 50 1 59q15 -11 14 -45zM311 -68q-4 -57 -2 -64q-21 3 -18 44q4 57 2 64q21 -3 18 -44zM372 -78q0 -65 -29 -63q-10 20 -10 63t10 62q29 2 29 -62z
M393 -16q19 -6 20 -62q1 -57 -20 -63v125zM461 -68q-4 -64 -1 -73q-29 0 -28 53q0 38 11 72q21 -6 18 -52zM618 -76q-4 60 0 77q-92 11 -258 9q-223 -2 -268 -1q-5 -18 -1 -79q4 -60 -7 -87q273 -6 526 0q12 26 8 81zM1545 137q-1 -58 -1 -61q-9 -9 -9 31q1 58 1 61
q10 9 9 -31zM1586 176q19 -3 20 -54q2 -52 -20 -54v108zM1646 128q-3 -61 -1 -68q-20 7 -18 48q2 64 1 68q21 -4 18 -48zM1706 131q0 -43 -11 -71q-29 -1 -28 53q0 37 11 72q28 1 28 -54zM1747 132q-4 -64 -2 -72q-22 6 -19 52q4 64 2 73q22 -6 19 -53zM1800 127
q0 -12 -3 -36q-2 -23 -2 -31q-20 7 -18 48q2 64 1 68q23 -6 22 -49zM1696 33q165 -1 257 10q11 36 10 83q-1 55 -18 75h-517q-30 -83 0 -166q46 1 268 -2zM1134 504q4 58 2 65q19 -7 12 -47q-8 -46 4 -62q-21 3 -18 44zM1203 526q-1 -62 -1 -66q-20 8 -12 40q9 43 4 60
q10 8 9 -34zM1245 534q-1 -56 -1 -57q-10 -11 -9 26q1 56 1 57q9 11 9 -26zM1087 503q6 47 -2 66q22 -5 19 -49q-4 -60 -2 -68q-19 14 -15 51zM1034 500q2 64 1 69h25q-11 -122 -8 -117q-19 7 -18 48zM983 510q1 42 11 67q19 -8 19 -58q-1 -42 -11 -67q-20 8 -19 58z
M934 500q2 65 1 69h25q-11 -122 -8 -117q-20 7 -18 48zM893 505q2 54 1 64q27 -19 8 -117q-11 13 -9 53zM852 560q10 8 9 -34q-1 -62 -1 -66q20 -4 -8 100zM735 435q188 -9 526 0q11 33 10 84q0 57 -19 75h-248q-189 -1 -269 0q-30 -80 0 -159zM1586 761q19 -4 20 -55
q2 -51 -20 -54v109zM1535 695q1 56 1 57q10 11 9 -26q-1 -56 -1 -57q-9 -11 -9 26zM1646 712q-3 -58 -1 -68q-20 8 -19 57q0 43 10 68q12 -15 10 -57zM1706 711q-1 -45 -11 -67q-29 -2 -29 58q0 58 20 67q21 -5 20 -58zM1747 717q-4 -64 -2 -73q-22 6 -19 52q4 64 2 73
q22 -6 19 -52zM1799 711q0 -8 -3 -31q-1 -18 -1 -28q-20 7 -19 54q0 40 10 63q15 -20 13 -58zM1945 794h-501q-27 -10 -27 -74q-1 -46 11 -93q90 -11 253 -9q219 2 264 1q39 84 0 175zM1520 918q-1 -56 -1 -57q-9 -11 -9 26q1 56 1 57q10 11 9 -26zM1562 914q-1 -59 -1 -62
q-10 -9 -9 31q1 59 1 61q10 10 9 -30zM1621 908q-3 -57 -1 -64q-22 11 -17 51q5 48 0 58q21 -4 18 -45zM1671 907q0 -38 -10 -71q-11 16 -9 61q2 61 1 72q19 -13 18 -62zM1722 907q0 -47 -11 -71q-27 12 -24 63q3 34 16 70q20 -9 19 -62zM1762 908q-2 -61 -1 -72
q-36 18 -8 133q11 -16 9 -61zM1823 908q-1 -38 -11 -72q-20 8 -19 52q3 67 2 73q29 0 28 -53zM1862 926q0 -51 0 -49q-9 -13 -9 19q0 51 0 48q9 14 9 -18zM1699 819q188 1 271 0q-1 12 1 89q1 54 -9 78q-165 3 -509 0q-11 -24 -10 -78q2 -77 1 -89q84 -1 255 0zM1818 -280
q4 57 2 64q21 -3 18 -44q-3 -57 -1 -64q-22 3 -19 44zM1769 -275q2 57 1 68q20 -8 19 -58q-1 -42 -11 -68q-11 15 -9 58zM1717 -275q1 42 11 68q11 -15 9 -58q-2 -57 -1 -68q-19 8 -19 58zM1670 -207q27 -1 29 -64q1 -62 -29 -62v126zM1617 -280q0 38 11 73q21 -7 18 -53
q-4 -64 -1 -73q-29 0 -28 53zM1577 -281q1 56 1 57q9 11 9 -27q-1 -55 -1 -57q-9 -10 -9 27zM1527 -275q2 50 1 59q12 -14 14 -48t-6 -60q-11 11 -9 49zM1696 -181q-217 -3 -260 -1q-27 -23 -23 -80q6 -93 6 -87q91 -12 254 -10q218 3 264 1q10 24 9 79q-2 76 -1 88
q-89 11 -249 10zM1186 -224q18 -1 19 -47q2 -45 -19 -45v92zM1135 -290q1 62 1 66q10 8 9 -35q-2 -62 -1 -65q-10 -8 -9 34zM1084 -280q4 64 1 73q22 -7 19 -53q-4 -64 -2 -73q-21 7 -18 53zM1033 -277q6 46 2 70q34 -8 34 -62q-1 -53 -34 -64q-6 17 -2 56zM983 -275
q1 42 11 68q11 -15 9 -58q-2 -57 -1 -68q-20 8 -19 58zM933 -280q4 57 2 64q25 -3 20 -39q-7 -54 -3 -69q-21 3 -19 44zM884 -275q0 37 10 68q11 -15 9 -58q-3 -57 -1 -68q-19 12 -18 58zM776 -269q2 -68 1 -80q92 -11 257 -10q224 3 268 1q30 88 0 176q-43 -3 -269 2
q-166 3 -248 -19q-11 -20 -9 -70zM559 -285q1 53 1 52q9 13 9 -22l-1 -53q-9 -12 -9 23zM508 -280q3 50 2 56q20 -1 18 -36q-3 -51 -2 -56q-20 1 -18 36zM458 -280q4 57 2 64q21 -3 18 -44q-4 -57 -2 -64q-21 3 -18 44zM408 -280q4 64 1 73q22 -7 19 -53q-4 -64 -2 -73
q-21 7 -18 53zM357 -275q1 45 11 68q21 -6 19 -58q-1 -45 -11 -68q-21 5 -19 58zM307 -275q1 42 11 68q11 -15 9 -58q-2 -57 -1 -68q-20 8 -19 58zM264 -286q9 54 4 70q21 -3 18 -44q-4 -57 -2 -64q-27 1 -20 38zM217 -290q1 62 1 66q10 8 9 -35q-2 -62 -1 -65q-10 -8 -9 34
zM175 -285q1 53 1 52q9 13 9 -22l-1 -53q-9 -12 -9 23zM109 -349q91 -12 254 -10q218 3 264 1q28 88 0 176q-45 -2 -260 1q-160 1 -250 -10q-9 -161 -8 -158zM1853 -93q1 58 0 61q10 9 9 -31q-1 -59 0 -61q-10 -9 -9 31zM1793 -88q3 67 2 72q29 1 28 -53q-1 -37 -11 -72
q-20 9 -19 53zM1742 -83q1 42 11 67q15 -9 11 -50q-6 -56 -3 -75q-19 8 -19 58zM1690 -77q-4 48 13 61q21 -5 19 -57q-1 -40 -11 -68q-18 17 -21 64zM1652 -83q2 57 1 67q18 -10 19 -58q0 -43 -11 -67q-11 15 -9 58zM1600 -83q2 37 11 59q11 -11 10 -49q-3 -51 -1 -59
q-22 2 -20 49zM1552 -98q1 56 1 57q9 11 9 -26q-1 -56 -1 -57q-9 -11 -9 26zM1510 -98q1 56 1 57q10 11 9 -26q-1 -56 -1 -57q-9 -11 -9 26zM1443 -73q3 -71 1 -84q64 -3 260 -2q166 2 258 -7q18 58 8 167q-259 24 -517 0q-12 -21 -10 -74zM887 -84q-1 -45 -27 -48
q11 111 9 108q19 -18 18 -60zM929 -68q-4 -64 -2 -73q-22 7 -19 53q4 64 2 72q22 -6 19 -52zM989 -73q-1 -58 -20 -68q-20 8 -19 58q0 42 10 67q30 1 29 -57zM1029 -68q-4 -64 -2 -73q-21 7 -18 53q4 64 1 72q22 -6 19 -52zM1081 -79q0 -56 -29 -53q12 121 8 116
q21 -7 21 -63zM1120 -63q-1 -59 -1 -61q-10 -10 -9 31q1 58 1 61q9 9 9 -31zM1169 -80q-7 -46 0 -52q-21 2 -18 40q3 54 1 60q24 -6 17 -48zM1220 -67q-1 -56 -1 -57q-10 -11 -9 26q1 56 1 57q9 11 9 -26zM1277 1q-90 11 -253 10q-219 -3 -264 -2q-11 -23 -9 -78
q2 -77 1 -88q531 0 525 0q30 79 0 158zM1234 81q-2 -8 -4 6q-7 39 -3 81q20 5 18 -16q-1 -19 -9 -26q0 -36 -2 -45zM1177 107q1 58 0 61q10 9 9 -31q-1 -58 0 -61q-10 -9 -9 31zM1125 112q4 57 2 64q21 -3 19 -44q-4 -57 -2 -64q-21 3 -19 44zM1072 110q0 11 2 32q3 24 3 34
q21 -4 19 -53q-1 -39 -11 -63q-14 16 -13 50zM1025 112q4 64 2 73q22 -6 19 -53q-4 -64 -2 -72q-22 6 -19 52zM977 176h25q0 -1 2 -72q1 -44 -27 -44v116zM925 113q0 41 10 63q11 -13 10 -53q-3 -54 -1 -63q-20 6 -19 53zM777 35h517q27 157 -17 166q-337 -2 -500 0
q-30 -83 0 -166zM618 107v53q9 12 9 -23q0 -53 0 -52q-10 -13 -9 22zM569 141q-3 11 7 27q13 -41 9 -79q-2 -14 -4 -8q-3 7 -5 37zM516 108q4 54 2 60q20 -10 16 -42q-6 -42 1 -58q-21 2 -19 40zM466 113q0 41 10 63q11 -13 10 -53q-3 -54 -1 -63q-20 6 -19 53zM416 108
q4 60 2 68h25q-2 -9 1 -63q2 -40 -9 -53q-22 4 -19 48zM376 185q18 -11 19 -58q0 -43 -11 -67q-35 15 -8 125zM316 108q4 60 2 68h25q-2 -9 1 -63q2 -40 -10 -53q-21 4 -18 48zM275 113q2 54 1 63q20 -6 19 -53q-1 -41 -11 -63q-11 13 -9 53zM234 168q-10 9 9 -100
q-29 31 -9 100zM184 143q1 -38 0 -53q-2 -13 -5 -5q-8 25 -3 83q29 6 8 -25zM117 43q93 -11 258 -10q222 3 268 2q15 80 0 166q-226 4 -526 0q-29 -79 0 -158zM1922 327q-5 -45 6 -59q-21 2 -18 40q4 54 2 60q15 -2 10 -41zM1869 299q1 59 1 61q10 9 9 -31q-1 -59 -1 -61
q-9 -9 -9 31zM1810 304q2 62 2 64q7 2 13 -3q7 -5 12 -5q-7 -21 -5 -54q3 -31 -4 -46q-19 6 -18 44zM1769 326q-4 37 1 51q19 -5 20 -59t-20 -58q2 22 -1 66zM1708 318q2 52 20 59q20 -7 20 -59t-20 -58q-22 5 -20 58zM1670 377q19 -5 20 -59t-20 -58v117zM1618 304
q4 57 2 64q24 3 20 -46q-4 -61 -4 -62q-21 3 -18 44zM1568 304q2 62 2 64q21 -3 18 -44q-4 -57 -2 -64q-19 6 -18 44zM1527 303q1 56 1 57q9 11 9 -27l-1 -56q-9 -11 -9 26zM1469 235q212 -7 518 0q-3 -10 0 167q-47 -2 -268 1q-166 2 -258 -10q-11 13 8 -158zM1034 304
q3 57 1 64h25q-1 -9 1 -59q2 -38 -9 -49q-21 3 -18 44zM994 377q20 -7 20 -63q0 -57 -29 -54q12 121 9 117zM933 304q4 57 2 64h25q-23 -112 -8 -108q-21 3 -19 44zM893 309q2 50 1 59q20 -13 17 -51q-1 -12 -4 -31q-5 -21 -5 -26q-11 11 -9 49zM852 368q11 -11 9 -49
q-2 -50 -1 -59q-21 16 -8 108zM805 328q-7 -41 5 -60q-21 2 -18 40q3 54 1 60q19 -7 12 -40zM1085 368q22 -3 19 -44q-4 -57 -2 -64q14 -11 -17 108zM1151 316q-7 -59 -7 -56q-11 11 -9 49q2 50 1 59q19 -12 15 -52zM1203 333q-1 -55 -1 -56q-9 -11 -9 26q1 56 1 57
q10 11 9 -27zM1245 329q-1 -53 -1 -52q-9 -13 -9 22l1 53q9 12 9 -23zM1261 393q-89 12 -250 10q-214 -3 -259 -1q-44 -16 -17 -167q435 -4 526 0q30 79 0 158zM1911 509q2 51 1 60q12 -5 12 -50q-1 -13 -2 -34q-2 -21 -2 -25q-11 12 -9 49zM1869 499q1 59 1 61q10 10 9 -30
q-1 -59 -1 -61q-9 -10 -9 30zM1812 569q22 2 26 -51q3 -54 -26 -58v109zM1769 509q2 58 1 68q20 -8 19 -58q-1 -42 -11 -67q-11 14 -9 57zM1710 514q0 44 10 63q26 -2 28 -63q3 -62 -28 -62q-10 19 -10 62zM1669 509q2 58 1 68q19 -8 19 -58q-1 -42 -11 -67q-11 14 -9 57z
M1620 569q18 -10 22 -61q4 -52 -22 -48v109zM1567 509q1 38 11 60q11 -12 9 -49q-2 -51 -1 -60q-21 3 -19 49zM1527 499q1 59 1 61q10 10 9 -30q-1 -59 -1 -61q-10 -10 -9 30zM1477 507q-9 -69 -8 -72q449 -3 526 8q-10 29 -6 81q4 51 -2 70q-24 -1 -258 1q-177 1 -268 -10
q23 -19 16 -78zM1611 1090q13 -24 25 -29q7 16 68 139q43 85 49 136q-54 4 -142 -8q-90 -11 -142 -8q-13 -17 7 -38q23 -24 18 -46q-92 -58 -271 -183q-178 -125 -271 -184q-25 19 -143 122q-88 77 -141 103q-12 -16 -264 -357q-159 -215 -253 -369q42 -47 100 -75
q83 94 226 296q145 205 225 297q40 -24 122 -99q73 -68 128 -93q92 58 315 215q198 138 319 210q13 -5 25 -29z" />
    <glyph glyph-name="hyphen" unicode="&#xad;" horiz-adv-x="2048" 
d="M210 -63q-1 -59 -1 -61q-10 -10 -9 31q1 58 1 61q10 9 9 -31zM265 -69q-1 -10 -3 -31q-2 -22 -3 -32q-11 11 -9 49q2 50 1 59q15 -11 14 -45zM311 -68q-4 -57 -2 -64q-21 3 -18 44q4 57 2 64q21 -3 18 -44zM372 -78q0 -65 -29 -63q-10 20 -10 63t10 62q29 2 29 -62z
M393 -16q19 -6 20 -62q1 -57 -20 -63v125zM461 -68q-4 -64 -1 -73q-29 0 -28 53q0 38 11 72q21 -6 18 -52zM618 -76q-4 60 0 77q-92 11 -258 9q-223 -2 -268 -1q-5 -18 -1 -79q4 -60 -7 -87q273 -6 526 0q12 26 8 81zM1545 137q-1 -58 -1 -61q-9 -9 -9 31q1 58 1 61
q10 9 9 -31zM1586 176q19 -3 20 -54q2 -52 -20 -54v108zM1646 128q-3 -61 -1 -68q-20 7 -18 48q2 64 1 68q21 -4 18 -48zM1706 131q0 -43 -11 -71q-29 -1 -28 53q0 37 11 72q28 1 28 -54zM1747 132q-4 -64 -2 -72q-22 6 -19 52q4 64 2 73q22 -6 19 -53zM1800 127
q0 -12 -3 -36q-2 -23 -2 -31q-20 7 -18 48q2 64 1 68q23 -6 22 -49zM1696 33q165 -1 257 10q11 36 10 83q-1 55 -18 75h-517q-30 -83 0 -166q46 1 268 -2zM1134 504q4 58 2 65q19 -7 12 -47q-8 -46 4 -62q-21 3 -18 44zM1203 526q-1 -62 -1 -66q-20 8 -12 40q9 43 4 60
q10 8 9 -34zM1245 534q-1 -56 -1 -57q-10 -11 -9 26q1 56 1 57q9 11 9 -26zM1087 503q6 47 -2 66q22 -5 19 -49q-4 -60 -2 -68q-19 14 -15 51zM1034 500q2 64 1 69h25q-11 -122 -8 -117q-19 7 -18 48zM983 510q1 42 11 67q19 -8 19 -58q-1 -42 -11 -67q-20 8 -19 58z
M934 500q2 65 1 69h25q-11 -122 -8 -117q-20 7 -18 48zM893 505q2 54 1 64q27 -19 8 -117q-11 13 -9 53zM852 560q10 8 9 -34q-1 -62 -1 -66q20 -4 -8 100zM735 435q188 -9 526 0q11 33 10 84q0 57 -19 75h-248q-189 -1 -269 0q-30 -80 0 -159zM1586 761q19 -4 20 -55
q2 -51 -20 -54v109zM1535 695q1 56 1 57q10 11 9 -26q-1 -56 -1 -57q-9 -11 -9 26zM1646 712q-3 -58 -1 -68q-20 8 -19 57q0 43 10 68q12 -15 10 -57zM1706 711q-1 -45 -11 -67q-29 -2 -29 58q0 58 20 67q21 -5 20 -58zM1747 717q-4 -64 -2 -73q-22 6 -19 52q4 64 2 73
q22 -6 19 -52zM1799 711q0 -8 -3 -31q-1 -18 -1 -28q-20 7 -19 54q0 40 10 63q15 -20 13 -58zM1945 794h-501q-27 -10 -27 -74q-1 -46 11 -93q90 -11 253 -9q219 2 264 1q39 84 0 175zM1520 918q-1 -56 -1 -57q-9 -11 -9 26q1 56 1 57q10 11 9 -26zM1562 914q-1 -59 -1 -62
q-10 -9 -9 31q1 59 1 61q10 10 9 -30zM1621 908q-3 -57 -1 -64q-22 11 -17 51q5 48 0 58q21 -4 18 -45zM1671 907q0 -38 -10 -71q-11 16 -9 61q2 61 1 72q19 -13 18 -62zM1722 907q0 -47 -11 -71q-27 12 -24 63q3 34 16 70q20 -9 19 -62zM1762 908q-2 -61 -1 -72
q-36 18 -8 133q11 -16 9 -61zM1823 908q-1 -38 -11 -72q-20 8 -19 52q3 67 2 73q29 0 28 -53zM1862 926q0 -51 0 -49q-9 -13 -9 19q0 51 0 48q9 14 9 -18zM1699 819q188 1 271 0q-1 12 1 89q1 54 -9 78q-165 3 -509 0q-11 -24 -10 -78q2 -77 1 -89q84 -1 255 0zM1818 -280
q4 57 2 64q21 -3 18 -44q-3 -57 -1 -64q-22 3 -19 44zM1769 -275q2 57 1 68q20 -8 19 -58q-1 -42 -11 -68q-11 15 -9 58zM1717 -275q1 42 11 68q11 -15 9 -58q-2 -57 -1 -68q-19 8 -19 58zM1670 -207q27 -1 29 -64q1 -62 -29 -62v126zM1617 -280q0 38 11 73q21 -7 18 -53
q-4 -64 -1 -73q-29 0 -28 53zM1577 -281q1 56 1 57q9 11 9 -27q-1 -55 -1 -57q-9 -10 -9 27zM1527 -275q2 50 1 59q12 -14 14 -48t-6 -60q-11 11 -9 49zM1696 -181q-217 -3 -260 -1q-27 -23 -23 -80q6 -93 6 -87q91 -12 254 -10q218 3 264 1q10 24 9 79q-2 76 -1 88
q-89 11 -249 10zM1186 -224q18 -1 19 -47q2 -45 -19 -45v92zM1135 -290q1 62 1 66q10 8 9 -35q-2 -62 -1 -65q-10 -8 -9 34zM1084 -280q4 64 1 73q22 -7 19 -53q-4 -64 -2 -73q-21 7 -18 53zM1033 -277q6 46 2 70q34 -8 34 -62q-1 -53 -34 -64q-6 17 -2 56zM983 -275
q1 42 11 68q11 -15 9 -58q-2 -57 -1 -68q-20 8 -19 58zM933 -280q4 57 2 64q25 -3 20 -39q-7 -54 -3 -69q-21 3 -19 44zM884 -275q0 37 10 68q11 -15 9 -58q-3 -57 -1 -68q-19 12 -18 58zM776 -269q2 -68 1 -80q92 -11 257 -10q224 3 268 1q30 88 0 176q-43 -3 -269 2
q-166 3 -248 -19q-11 -20 -9 -70zM559 -285q1 53 1 52q9 13 9 -22l-1 -53q-9 -12 -9 23zM508 -280q3 50 2 56q20 -1 18 -36q-3 -51 -2 -56q-20 1 -18 36zM458 -280q4 57 2 64q21 -3 18 -44q-4 -57 -2 -64q-21 3 -18 44zM408 -280q4 64 1 73q22 -7 19 -53q-4 -64 -2 -73
q-21 7 -18 53zM357 -275q1 45 11 68q21 -6 19 -58q-1 -45 -11 -68q-21 5 -19 58zM307 -275q1 42 11 68q11 -15 9 -58q-2 -57 -1 -68q-20 8 -19 58zM264 -286q9 54 4 70q21 -3 18 -44q-4 -57 -2 -64q-27 1 -20 38zM217 -290q1 62 1 66q10 8 9 -35q-2 -62 -1 -65q-10 -8 -9 34
zM175 -285q1 53 1 52q9 13 9 -22l-1 -53q-9 -12 -9 23zM109 -349q91 -12 254 -10q218 3 264 1q28 88 0 176q-45 -2 -260 1q-160 1 -250 -10q-9 -161 -8 -158zM1853 -93q1 58 0 61q10 9 9 -31q-1 -59 0 -61q-10 -9 -9 31zM1793 -88q3 67 2 72q29 1 28 -53q-1 -37 -11 -72
q-20 9 -19 53zM1742 -83q1 42 11 67q15 -9 11 -50q-6 -56 -3 -75q-19 8 -19 58zM1690 -77q-4 48 13 61q21 -5 19 -57q-1 -40 -11 -68q-18 17 -21 64zM1652 -83q2 57 1 67q18 -10 19 -58q0 -43 -11 -67q-11 15 -9 58zM1600 -83q2 37 11 59q11 -11 10 -49q-3 -51 -1 -59
q-22 2 -20 49zM1552 -98q1 56 1 57q9 11 9 -26q-1 -56 -1 -57q-9 -11 -9 26zM1510 -98q1 56 1 57q10 11 9 -26q-1 -56 -1 -57q-9 -11 -9 26zM1443 -73q3 -71 1 -84q64 -3 260 -2q166 2 258 -7q18 58 8 167q-259 24 -517 0q-12 -21 -10 -74zM887 -84q-1 -45 -27 -48
q11 111 9 108q19 -18 18 -60zM929 -68q-4 -64 -2 -73q-22 7 -19 53q4 64 2 72q22 -6 19 -52zM989 -73q-1 -58 -20 -68q-20 8 -19 58q0 42 10 67q30 1 29 -57zM1029 -68q-4 -64 -2 -73q-21 7 -18 53q4 64 1 72q22 -6 19 -52zM1081 -79q0 -56 -29 -53q12 121 8 116
q21 -7 21 -63zM1120 -63q-1 -59 -1 -61q-10 -10 -9 31q1 58 1 61q9 9 9 -31zM1169 -80q-7 -46 0 -52q-21 2 -18 40q3 54 1 60q24 -6 17 -48zM1220 -67q-1 -56 -1 -57q-10 -11 -9 26q1 56 1 57q9 11 9 -26zM1277 1q-90 11 -253 10q-219 -3 -264 -2q-11 -23 -9 -78
q2 -77 1 -88q531 0 525 0q30 79 0 158zM1234 81q-2 -8 -4 6q-7 39 -3 81q20 5 18 -16q-1 -19 -9 -26q0 -36 -2 -45zM1177 107q1 58 0 61q10 9 9 -31q-1 -58 0 -61q-10 -9 -9 31zM1125 112q4 57 2 64q21 -3 19 -44q-4 -57 -2 -64q-21 3 -19 44zM1072 110q0 11 2 32q3 24 3 34
q21 -4 19 -53q-1 -39 -11 -63q-14 16 -13 50zM1025 112q4 64 2 73q22 -6 19 -53q-4 -64 -2 -72q-22 6 -19 52zM977 176h25q0 -1 2 -72q1 -44 -27 -44v116zM925 113q0 41 10 63q11 -13 10 -53q-3 -54 -1 -63q-20 6 -19 53zM777 35h517q27 157 -17 166q-337 -2 -500 0
q-30 -83 0 -166zM618 107v53q9 12 9 -23q0 -53 0 -52q-10 -13 -9 22zM569 141q-3 11 7 27q13 -41 9 -79q-2 -14 -4 -8q-3 7 -5 37zM516 108q4 54 2 60q20 -10 16 -42q-6 -42 1 -58q-21 2 -19 40zM466 113q0 41 10 63q11 -13 10 -53q-3 -54 -1 -63q-20 6 -19 53zM416 108
q4 60 2 68h25q-2 -9 1 -63q2 -40 -9 -53q-22 4 -19 48zM376 185q18 -11 19 -58q0 -43 -11 -67q-35 15 -8 125zM316 108q4 60 2 68h25q-2 -9 1 -63q2 -40 -10 -53q-21 4 -18 48zM275 113q2 54 1 63q20 -6 19 -53q-1 -41 -11 -63q-11 13 -9 53zM234 168q-10 9 9 -100
q-29 31 -9 100zM184 143q1 -38 0 -53q-2 -13 -5 -5q-8 25 -3 83q29 6 8 -25zM117 43q93 -11 258 -10q222 3 268 2q15 80 0 166q-226 4 -526 0q-29 -79 0 -158zM1922 327q-5 -45 6 -59q-21 2 -18 40q4 54 2 60q15 -2 10 -41zM1869 299q1 59 1 61q10 9 9 -31q-1 -59 -1 -61
q-9 -9 -9 31zM1810 304q2 62 2 64q7 2 13 -3q7 -5 12 -5q-7 -21 -5 -54q3 -31 -4 -46q-19 6 -18 44zM1769 326q-4 37 1 51q19 -5 20 -59t-20 -58q2 22 -1 66zM1708 318q2 52 20 59q20 -7 20 -59t-20 -58q-22 5 -20 58zM1670 377q19 -5 20 -59t-20 -58v117zM1618 304
q4 57 2 64q24 3 20 -46q-4 -61 -4 -62q-21 3 -18 44zM1568 304q2 62 2 64q21 -3 18 -44q-4 -57 -2 -64q-19 6 -18 44zM1527 303q1 56 1 57q9 11 9 -27l-1 -56q-9 -11 -9 26zM1469 235q212 -7 518 0q-3 -10 0 167q-47 -2 -268 1q-166 2 -258 -10q-11 13 8 -158zM1034 304
q3 57 1 64h25q-1 -9 1 -59q2 -38 -9 -49q-21 3 -18 44zM994 377q20 -7 20 -63q0 -57 -29 -54q12 121 9 117zM933 304q4 57 2 64h25q-23 -112 -8 -108q-21 3 -19 44zM893 309q2 50 1 59q20 -13 17 -51q-1 -12 -4 -31q-5 -21 -5 -26q-11 11 -9 49zM852 368q11 -11 9 -49
q-2 -50 -1 -59q-21 16 -8 108zM805 328q-7 -41 5 -60q-21 2 -18 40q3 54 1 60q19 -7 12 -40zM1085 368q22 -3 19 -44q-4 -57 -2 -64q14 -11 -17 108zM1151 316q-7 -59 -7 -56q-11 11 -9 49q2 50 1 59q19 -12 15 -52zM1203 333q-1 -55 -1 -56q-9 -11 -9 26q1 56 1 57
q10 11 9 -27zM1245 329q-1 -53 -1 -52q-9 -13 -9 22l1 53q9 12 9 -23zM1261 393q-89 12 -250 10q-214 -3 -259 -1q-44 -16 -17 -167q435 -4 526 0q30 79 0 158zM1911 509q2 51 1 60q12 -5 12 -50q-1 -13 -2 -34q-2 -21 -2 -25q-11 12 -9 49zM1869 499q1 59 1 61q10 10 9 -30
q-1 -59 -1 -61q-9 -10 -9 30zM1812 569q22 2 26 -51q3 -54 -26 -58v109zM1769 509q2 58 1 68q20 -8 19 -58q-1 -42 -11 -67q-11 14 -9 57zM1710 514q0 44 10 63q26 -2 28 -63q3 -62 -28 -62q-10 19 -10 62zM1669 509q2 58 1 68q19 -8 19 -58q-1 -42 -11 -67q-11 14 -9 57z
M1620 569q18 -10 22 -61q4 -52 -22 -48v109zM1567 509q1 38 11 60q11 -12 9 -49q-2 -51 -1 -60q-21 3 -19 49zM1527 499q1 59 1 61q10 10 9 -30q-1 -59 -1 -61q-10 -10 -9 30zM1477 507q-9 -69 -8 -72q449 -3 526 8q-10 29 -6 81q4 51 -2 70q-24 -1 -258 1q-177 1 -268 -10
q23 -19 16 -78zM1611 1090q13 -24 25 -29q7 16 68 139q43 85 49 136q-54 4 -142 -8q-90 -11 -142 -8q-13 -17 7 -38q23 -24 18 -46q-92 -58 -271 -183q-178 -125 -271 -184q-25 19 -143 122q-88 77 -141 103q-12 -16 -264 -357q-159 -215 -253 -369q42 -47 100 -75
q83 94 226 296q145 205 225 297q40 -24 122 -99q73 -68 128 -93q92 58 315 215q198 138 319 210q13 -5 25 -29z" />
    <glyph glyph-name="period" unicode="." horiz-adv-x="2048" 
d="M1203 246q-87 11 -140 43q-58 35 -52 83q245 3 287 22q-2 33 23 67t22 66q-38 4 -235 -3q-148 -5 -208 25v111h398q-2 32 23 66t22 67q-34 4 -213 -3q-134 -5 -186 25q53 129 227 163q171 34 305 -52q44 247 44 243q-295 109 -559 -18q-245 -118 -327 -358h-221
q-3 18 -44 -133q21 -4 146 3q93 4 119 -25v-111q-253 39 -265 -155h288q50 -230 319 -318q257 -84 544 8q-4 20 3 136q4 86 -25 108q-93 -85 -295 -60zM1731 993q102 -130 165 -178q-7 62 18 253q21 153 -18 234q-67 -89 -66 -89q-227 328 -620 377q-485 59 -803 -210
q-284 -242 -326 -632q-48 -445 225 -751q246 -275 629 -326q384 -51 655 158q304 233 306 698q-132 -657 -708 -708q-398 -36 -648 230q-225 239 -233 593q-8 359 213 586q250 257 690 207q243 -28 487 -266q-7 -1 -73 21q-47 16 -60 -21q68 -49 167 -176z" />
    <glyph glyph-name="slash" unicode="/" horiz-adv-x="1027" 
d="M412 1100q-111 -99 -136 -120q-5 -5 -23 -19q-17 -13 -27 -21q-31 -28 -31 -49q0 -14 13 -28q15 -16 34 -16q22 1 53 31q7 7 24 26q14 15 22 21q31 28 94 81q63 54 95 82l25 20q18 14 28 24q33 30 32 51q-1 24 -22 36q-22 13 -46 -2q-53 -44 -135 -117zM287 1045
q9 9 24 25q14 17 19 21q5 5 22 16q17 13 27 21q33 29 33 55q-1 24 -22 35q-19 9 -39 2q-4 -1 -82 -71q-69 -62 -71 -74q-3 -20 7 -35q8 -13 20 -16q30 -8 62 21zM676 675h-329q-8 0 -49 -2q-32 -1 -51 0q-57 3 -73 25q-10 15 -10 126v264q0 98 1 101q6 51 43 62q12 3 166 3
h326q10 0 40 1q26 2 41 1q48 -1 65 -19t18 -62q1 -14 0 -38q-1 -27 -1 -35v-299q0 -106 -28 -122q-12 -6 -159 -6zM802 309q-12 -2 -36 -4q-26 -2 -36 -3v84q49 17 85 9q43 -11 31 -56q-7 -23 -44 -30zM730 244q90 27 99 -24q10 -62 -99 -61v85zM664 544q10 22 36 29
q48 13 104 -5q64 -21 31 -70q-16 -24 -85 -23q-68 0 -81 20q-16 25 -5 49zM557 142v85q11 3 42 3q28 0 40 4q4 -13 4 -42q-1 -39 -1 -46q-44 -5 -85 -4zM642 288q-15 1 -42 -2q-26 -3 -43 -1v88q59 -1 85 3v-88zM424 538q15 50 49 59q38 9 75 1t47 -29q13 -25 10 -67
q-2 -40 -17 -58q-20 -24 -76 -24q-58 0 -77 27q-26 38 -11 91zM469 285q-51 -1 -88 7v84q41 -4 88 -3v-88zM469 142q-47 -1 -88 4v84q45 3 88 -3v-85zM334 483q-26 -12 -63 -10q-36 1 -61 15q-28 15 -29 37q0 35 33 43q5 2 72 5q45 2 61 -7q19 -11 17 -44q-1 -26 -30 -39z
M296 302q-54 -1 -86 13q-43 18 -29 58q10 26 48 24q5 0 67 -11v-84zM296 159q-42 -8 -70 10q-25 15 -26 40q-1 26 23 38q27 14 73 0v-88zM978 993q0 237 -10 268q-66 197 -533 169q-99 -5 -145 -13q-194 -32 -234 -163q-7 -22 -7 -268v-549q0 -233 10 -264q35 -106 172 -145
q97 -28 286 -28q248 0 346 51q85 44 105 146q10 48 10 244v552z" />
    <glyph glyph-name="zero" unicode="0" horiz-adv-x="1437" 
d="M207 764h20q2 -9 -5 -10q5 1 -15 0v10zM201 693q-12 -7 -28 -4q-15 3 -26 14q-11 12 -9 27q3 25 27 32q25 6 44 -14q0 -3 -2 -4q9 -3 8 -24q-1 -19 -14 -27zM128 773q-17 -5 -22 -17q-11 -34 0 -63q5 -12 16 -16q46 -19 105 -2q23 6 23 49q0 41 -19 49q-43 18 -103 0z
M430 127q-17 49 -102 49q-85 1 -101 -49h203zM294 200q17 -15 44 -11t40 25q14 23 -1 53q-18 33 -62 24q-30 -7 -35 -36q-7 -37 14 -55zM1046 354q-90 4 -118 -46q-19 -37 14 -67q28 -26 73 -33q0 -9 -10 -28q10 2 18 12q9 13 14 16q48 3 79 22q39 23 31 62q-10 57 -101 62z
M1132 336q54 -45 15 -97q34 -40 69 -47q-2 6 -16 25q-11 14 -9 26q52 7 86 37q37 34 26 80q-9 37 -52 59q-38 20 -90 20q-52 1 -93 -17q-44 -20 -57 -55q69 13 121 -31zM1191 832q-11 1 -33 -1q-23 -2 -32 -2q-5 0 -20 1q-13 1 -20 1q-21 -1 -25 -18q28 0 88 -1q57 -2 89 -1
q-9 21 -47 21zM1212 840q6 7 6 19t-8 17q-8 7 -21 0q-14 -6 -9 -23q4 -14 11 -16q13 -5 21 3zM1170 847q8 16 -5 29q-25 11 -32 -11q-7 -23 12 -28q17 -5 25 10zM355 973q2 4 2 5q5 1 4 -5q-2 -7 -6 -6q-1 3 0 6zM345 940q15 -9 24 5q-1 2 -7 1q-8 -2 -11 -1q-16 7 -13 27
q2 21 19 22q13 1 19 -10q8 -13 -5 -23q-1 9 2 23q-17 9 -26 -6q-10 -14 2 -25q6 -1 14 8q0 -9 10 -8q17 12 14 26q-3 13 -19 18q-15 6 -27 -1q-13 -8 -12 -31q1 -16 16 -25zM500 1218q3 -3 7 -3q8 10 23 14q16 4 28 -4q0 4 4 8q4 5 4 10q-21 10 -45 3q-24 -6 -28 -25
q3 0 7 -3zM1104 1247q-19 -19 -18 -22h124q-4 4 -13 15q-9 12 -15 18q-21 20 -50 16q0 1 -28 -27zM483 1227q14 19 38 26q26 7 51 -4q0 -3 6 11q-25 20 -61 10q-35 -9 -44 -35q11 -11 10 -8zM1191 1254q19 -18 23 -17q-1 7 1 41q1 30 -5 42q-1 -7 -22 -22t-21 -22
q0 1 24 -22zM1080 1235q7 4 22 18q17 16 24 21q-14 21 -46 46v-85zM1187 1304q21 20 19 23h-122q4 -3 13 -15q9 -11 15 -17q20 -19 49 -15q4 3 26 24zM1284 126q-65 -60 -154 -66q-108 -8 -187 62q-80 69 -85 174q-5 88 39 156q40 60 108 91q35 15 75 20q105 11 184 -48
q111 -83 98 -230q-8 -95 -78 -159zM794 616q-7 -6 -98 -6q-93 0 -99 4q-12 7 -12 69v154q0 61 0 57q3 31 24 37q7 2 99 2q81 0 88 -8q12 -11 11 -72q0 -18 -1 -49q-2 -31 -2 -40v-73q1 -67 -10 -75zM704 592q10 -8 9 -17q-1 -8 -9 -13t-16 -3q-8 3 -10 13q-4 25 26 20z
M515 235q12 -121 -85 -183q-95 -61 -191 -8q-42 23 -69 65q-32 49 -30 107q1 42 18 76q43 91 144 103q98 12 161 -55q45 -48 52 -105zM253 640q-36 -32 -85 -28q-43 3 -74 34q-35 35 -31 88q3 42 30 70q27 27 69 33q53 7 90 -26q44 -38 38 -99q-4 -42 -37 -72zM305 974
q2 41 40 50q36 8 55 -12q16 -17 13 -46q-3 -28 -22 -43q-23 -17 -54 -4q-33 15 -32 55zM465 1279q19 28 53 33q35 4 59 -18q23 -20 24 -51t-17 -51q-17 -18 -43 -23q-25 -4 -48 6q-24 11 -34 36q-14 38 6 68zM1032 1358q34 48 92 56q67 10 115 -31q46 -39 48 -101
q2 -66 -44 -109q-43 -38 -100 -37q-51 2 -88 33q-36 30 -46 76q-13 63 23 113zM1070 928q28 24 67 29q54 6 91 -28q35 -33 36 -83q0 -56 -39 -87q-35 -28 -84 -25t-79 36q-34 37 -25 96q5 37 33 62zM932 533q8 -10 -86 114q-27 36 -28 40q-2 10 0 29q2 20 0 30q29 8 107 28
q67 18 106 29q13 -38 44 -61q33 -24 74 -24q54 0 90 34q32 31 36 77q8 69 -41 112q-47 41 -108 30q-50 -9 -80 -53q-32 -46 -19 -107q-175 -47 -209 -55q-1 9 2 107q1 65 -18 88q39 38 113 111l112 112q6 -5 20 -18q9 -9 18 -14q83 -50 165 4q80 54 73 144q-5 58 -47 100
q-46 46 -115 44q-93 -3 -134 -91q-42 -87 14 -161l-171 -172q-54 -54 -59 -55q-25 -6 -73 -1q-51 5 -77 1q-48 124 -77 211q44 32 45 71q2 58 -52 79t-92 -22q-39 -45 -5 -97q34 -53 96 -35q10 -32 37 -105q25 -67 36 -102q-54 10 -58 -48q-1 -15 1 -53q2 -36 0 -53
q-133 111 -160 136q24 39 -5 74q-28 34 -70 19q-23 -9 -33 -31q-9 -20 -4 -42q6 -23 23 -37q20 -14 48 -11q3 1 37 20q172 -148 164 -140q-1 -6 0 -38q0 -24 -2 -37q-43 1 -131 6q-89 5 -135 6q-2 62 -44 96q-38 30 -91 27q-53 -4 -87 -38q-38 -39 -33 -99q5 -49 41 -82
q37 -32 87 -32q105 1 129 120q25 -2 134 -6q83 -4 132 -9v-123q-101 -148 -134 -193q-61 40 -136 32q-75 -9 -128 -65q-52 -57 -56 -134q-5 -104 73 -170q94 -79 215 -33q121 47 130 171q5 69 -21 118q-20 36 -67 77q13 19 63 93q39 57 65 90q7 -22 47 -25q13 -1 38 1
q31 1 41 1q94 0 102 6q-12 -9 14 118q22 -25 55 -69q41 -55 54 -71q-106 -100 -99 -231q6 -111 81 -185q74 -73 183 -81q118 -8 206 69q86 75 94 188q9 123 -67 212q-75 87 -192 95q-98 7 -201 -61zM1116 847q8 16 -5 29q-25 11 -32 -11q-8 -23 12 -28q16 -5 25 10z" />
    <glyph glyph-name="one" unicode="1" horiz-adv-x="2314" 
d="M721 298q39 -89 52 -154q122 74 237 58q94 -14 213 -96q19 40 176 425q105 258 199 401q25 -51 75 -151q51 -99 75 -150q110 10 162 45q67 45 64 143q-57 16 -100 -13q-47 -32 -88 -25q-21 39 -45 115q-28 90 -41 119q-56 132 -177 142q-131 -417 -375 -863
q-54 72 -145 65q-78 -6 -155 -65q-9 37 -67 158q-45 94 -46 179q-166 -47 -270 -198q-78 -113 -142 -327q111 14 189 149q91 158 148 189q13 -38 61 -146zM1111 1157h-188v-188h188v188zM811 1157h-188v-188h188v188zM473 1157h-150v-188h150v188zM2086 -44h-1876v1313h1876
v-1313zM1209 1386q-830 -11 -999 -4q-140 -178 -129 -705q3 -172 25 -432q27 -331 29 -364q1013 -107 2026 0q110 732 0 1463q-335 51 -952 42z" />
    <glyph glyph-name="two" unicode="2" horiz-adv-x="3103" 
d="M1529 -141q83 -65 243 -61q78 2 121 32q51 35 45 103q-76 -63 -208 -58q-128 5 -201 68v-84zM1732 105q140 -4 169 -69q-59 -65 -173 -60q-111 5 -171 69q34 64 175 60zM1529 -29q61 -58 220 -65q167 -6 189 74q17 62 -30 103q-41 37 -120 49q-75 11 -147 -4
q-77 -17 -112 -55v-102zM2589 26q72 -65 202 -72q132 -7 207 54v74q-76 -59 -211 -53q-134 6 -198 72v-75zM702 43q103 -8 250 30q0 15 13 42q12 24 5 51q-84 -53 -212 -51q-131 1 -206 60q-10 -121 150 -132zM1417 538q0 7 -37 -37q25 -36 93 -40q20 -1 55 1q36 2 47 2
q-5 -9 -36 -11q-28 -1 -29 -17q34 -25 121 -23q93 2 102 41q-18 39 -82 42q-19 1 -57 -2q-40 -3 -56 -2q-8 19 14 18q24 -1 23 10q-14 12 -59 10q-60 -3 -71 -1q98 51 261 48q86 -2 288 -30q-13 -37 -7 -46q0 -1 10 -13q9 -10 15 -24q-55 -10 -224 -46q-141 -30 -226 -42
q-262 -35 -452 41q6 6 19 14q15 9 19 13q19 17 -1 48q88 12 270 46zM2245 473q-74 47 -220 91q-194 59 -236 76q-518 -99 -781 -130q-26 -70 0 -102q53 -25 153 -70q106 -48 154 -70q562 136 930 205zM561 603q100 -59 246 -51q166 9 154 126q-78 -57 -208 -54
q-134 4 -192 72q-23 -27 0 -93zM2712 805q-155 54 -272 40q-79 -10 -818 -158q39 -18 140 -10q95 8 139 -18q13 8 -1 29q-14 20 1 27q47 2 130 19q82 16 130 18q-1 -6 -21 -21q-13 -10 3 -25q14 -17 60 -24q56 -7 70 -14q-1 -6 -12 -11q-10 -5 -7 -17q2 1 138 -3
q84 -2 85 50q-15 29 -93 28q-90 -2 -111 9q2 10 31 10q27 1 25 18q-12 2 -76 -1q-48 -2 -64 10q320 83 558 -9q-26 -15 -9 -39q19 -26 9 -35q-85 -6 -310 -61q-187 -45 -294 -32q78 -50 202 -35q28 3 244 53q328 76 400 112q-55 11 -277 90zM758 732q-135 4 -206 57
q-9 -66 61 -105q62 -34 155 -34q93 1 149 36q64 39 44 103q-60 -61 -203 -57zM754 833q-62 2 -109 22q-52 21 -65 55q54 52 179 48q123 -5 174 -57q-32 -72 -179 -68zM926 946q-43 32 -118 42q-167 22 -247 -50q-26 -83 31 -133q48 -42 141 -48q86 -6 158 21q75 29 79 76
q6 56 -44 92zM1492 914q-41 -27 -56 -32q-139 -38 -307 56q-24 -61 44 -99q61 -34 161 -36q100 -1 163 30q71 35 50 96q-24 6 -55 -15zM1334 1183q-135 2 -196 71q-24 -61 36 -104q54 -39 145 -45q93 -6 157 26q74 36 71 105q-88 -54 -213 -53zM1340 1288q-133 5 -183 59
q36 69 169 65q125 -4 184 -55q-29 -73 -170 -69zM1538 1338q-4 33 -9 47q-73 57 -215 59q-149 3 -185 -69q-31 -58 17 -102q42 -39 127 -54q84 -14 160 4q83 19 114 69q-5 13 -9 46zM1328 977q-147 5 -171 73q93 -54 245 -40q74 8 111 37q42 35 25 96q-69 -63 -202 -59
q-127 3 -207 59q-6 -27 5 -78q8 -40 -15 -80q26 -43 102 -65q70 -22 150 -17q83 5 129 36q53 35 38 92q-64 -59 -210 -54zM998 166v-65q31 -15 157 -66q98 -40 150 -74q41 15 186 47v56q-18 3 -186 -38q-173 97 -307 140zM1947 101q30 15 168 37q109 17 139 65
q-59 36 -185 1q-164 -47 -205 -47q12 -22 83 -56zM919 168q64 35 42 100q-76 -58 -207 -53q-127 5 -202 63q-4 -45 9 -84q122 -64 242 -56q72 5 116 30zM2589 231q48 -62 182 -69q111 -6 199 23q-58 -64 -188 -51q-111 10 -193 60v-75q59 -54 201 -58q144 -4 208 49
q-6 108 0 177q-79 -58 -211 -53q-133 6 -198 72v-75zM2143 324q-94 -15 -266 -60q-225 -59 -274 -70q-255 -58 -288 -56q-62 4 -159 64q-98 60 -158 66q-10 -58 45 -86q17 -9 50 -19q34 -11 45 -16q18 -8 91 -45q53 -27 86 -38q143 51 469 111q327 61 470 112q11 48 -37 37
q-42 5 -74 0zM2552 296v65q-1 0 -162 -31q-99 -19 -80 -90q120 22 242 56zM761 317q-107 4 -209 63v-65q52 -66 205 -69q153 -2 213 60q-2 68 -9 74q-83 -66 -200 -63zM2629 302q40 -30 119 -36q170 -14 250 49v84q-54 -61 -199 -59q-142 2 -201 59q-16 -62 31 -97z
M1305 175q23 -2 242 47q45 10 124 28q84 20 118 28q418 94 465 121q-4 34 -39 40q-22 3 -45 -3q3 0 -427 -103q-403 -96 -438 -93q-61 6 -153 67q-91 59 -154 64q-11 -49 40 -81q17 -10 47 -22q41 -17 44 -18q156 -73 176 -75zM2426 436q-64 -18 -116 -19q-12 -49 -9 -74
q20 5 128 25q79 14 123 31v21q1 14 0 21q-2 22 -19 23q-15 -3 -107 -28zM753 419q-135 4 -192 73q-6 -6 -9 -75q30 -37 104 -57q71 -18 147 -13q80 6 123 36q50 34 35 90q-76 -57 -208 -54zM115 501q36 -6 99 -25q87 -25 106 -30q129 -33 204 -10q-10 1 -8 12q2 8 8 16
q-308 88 -409 74v-37zM2415 468q87 24 128 24q15 37 18 74q-3 -1 -160 -26q-97 -14 -100 -86q38 -8 114 14zM758 526q-139 5 -206 59q-10 -67 60 -106q63 -35 156 -34t150 36q63 39 43 104q-57 -63 -203 -59zM2801 442q-131 5 -175 59q25 72 161 68q130 -3 174 -59
q-24 -72 -160 -68zM2589 436q62 -60 202 -64q143 -5 207 54v103q-77 63 -208 67q-138 5 -201 -67v-93zM2934 609q36 -18 64 -15q13 64 -49 64q-58 -1 -81 -36q31 4 66 -13zM515 585q-74 8 -189 35q-130 31 -183 39q-1 -10 -19 -18q-16 -8 -9 -28q66 -33 192 -59
q184 -37 208 -44v75zM1501 696q-361 68 -503 84q13 -44 107 -52q104 -8 126 -32q-35 -14 -8 -31q37 -24 36 -34q-24 -24 -143 -24q-106 -1 -118 -50q318 13 503 139zM1538 826q-32 -25 -106 -43q-97 -23 -117 -31q-5 0 204 -19q34 58 19 93zM232 741q-31 -7 -40 -9
q-44 -12 -59 -36q39 -2 201 -45q123 -33 190 -11q9 -10 -168 47q6 6 17 16q10 9 13 13q9 14 -11 36q20 11 149 47q-28 41 -109 12q-23 -8 -72 -30q-48 -21 -70 -29q-15 -5 -41 -11zM1129 845q1 -9 -5 -19q-5 -10 -5 -18q3 -1 30 -13q20 -9 34 -14q44 -14 67 -1q-6 1 -121 65
zM2198 826q-7 17 -51 33q-39 14 -42 42q68 -37 182 -38q115 0 181 38q0 2 5 22q5 19 6 31q5 39 -20 40q-49 -72 -200 -55q-120 14 -191 55q-6 -31 6 -55q3 -6 11 -19q8 -11 11 -19q-35 6 -31 -40q5 -45 22 -53q117 17 111 18zM2068 1106v-75q63 -57 198 -63q137 -7 211 45
v83q-78 -57 -198 -56q-124 1 -192 66h-19zM2279 1141q-133 3 -174 67q39 70 169 64q124 -6 176 -64q-36 -70 -171 -67zM2477 1226q-59 68 -202 71q-143 4 -207 -61q-8 -76 39 -119q41 -36 117 -44q152 -17 253 51v102z" />
    <glyph glyph-name="three" unicode="3" horiz-adv-x="2332" 
d="M472 343q89 -4 112 -42q-3 -47 -95 -44q-87 3 -111 31q2 59 94 55zM475 133q64 -4 109 14q-14 -47 -108 -43q-95 5 -98 56q31 -24 97 -27zM474 72q78 -6 110 11q-24 -51 -95 -48q-60 2 -111 35q17 7 96 2zM584 6q-7 -32 -97 -32q-89 0 -96 32q137 -5 193 0zM459 -70
q82 -4 112 -1q-12 -35 -95 -30q-80 4 -98 30q11 4 81 1zM469 -149q60 -4 102 13q-3 -24 -34 -36q-28 -10 -66 -7q-39 4 -65 18q-29 16 -28 38q31 -22 91 -26zM460 -214q53 1 85 -11q-25 -35 -88 -21q-60 13 -79 46q32 -14 82 -14zM471 182q-72 7 -106 29q8 19 78 5
q87 -16 128 -5q-18 -37 -100 -29zM341 27q3 -181 -1 -278q44 -36 135 -38q86 -2 147 25q-5 244 0 590q-47 38 -142 41q-100 2 -140 -41q-2 -94 1 -299zM1558 1282q-93 2 -89 45q-10 6 192 -13q-10 -33 -103 -32zM1576 1239q73 -4 85 -2q-6 -29 -69 -29q-57 1 -85 16
q16 18 69 15zM1674 1481q-6 -26 -41 -41q-31 -13 -73 -12q-42 2 -71 18q-32 18 -33 48q138 19 218 -13zM1631 1152q-37 -13 -34 -43q55 11 66 -17q12 -32 37 -34q7 65 5 203q-3 136 8 220q-45 65 -168 65q-56 0 -90 -24q-39 -27 -37 -79q10 -51 109 -51q124 -1 147 -14
q-55 -33 -135 -20q-65 11 -121 46q9 -96 0 -192q114 -41 124 -43q71 -15 132 17q-3 -19 -43 -34zM1674 365q153 51 359 -26q-1 -12 6 -26q8 -14 7 -25q-40 8 -83 -13q-44 -21 -84 -13q46 -50 165 -12q150 47 207 38q-275 186 -590 128q-29 -58 0 -51q-36 27 -102 26
q-71 -1 -90 -39q23 -15 244 -154q16 -39 14 -127q-3 -123 -2 -142q63 -19 142 13q16 41 14 133q-3 128 -2 149q-214 152 -205 141zM2264 70q-150 -2 -209 -13q-132 -24 -150 -103q381 148 359 116zM1313 -30q-68 39 -81 46q-99 53 -161 54q-16 -5 -13 -26q218 -126 305 -154
q195 -63 337 39v38q-335 -26 -308 -38q-30 13 -79 41zM1058 108q62 3 183 -70q130 -77 189 -84q84 -9 156 10q94 25 114 93q-155 -77 -333 -14q-22 8 -150 63q-93 40 -159 54v-52zM2028 69q20 5 72 22q43 14 62 17q10 1 35 0q24 -1 35 0q38 4 32 39q-107 57 -359 -64
q34 -37 123 -14zM1263 182q-119 60 -205 55q58 -60 188 -114q180 -75 210 -92q28 18 128 32q89 13 116 45q-15 45 -108 20q-25 -7 -75 -25q-46 -17 -61 -20q7 -3 -193 99zM2095 175q120 22 169 62q-73 25 -198 -1q-140 -29 -161 -102q34 12 190 41zM1268 335
q-106 -25 -184 -21q295 -233 590 -154v51q-245 -41 -385 38q1 30 24 44q15 8 52 15q39 7 53 15q24 13 25 42q-56 -2 -175 -30zM1979 493q-88 7 -112 51q123 -48 218 0q-14 -59 -106 -51zM2035 579q-30 -13 -70 -11q-39 3 -67 20q-30 18 -31 46q39 17 109 16q75 -2 96 -29
q-5 -28 -37 -42zM2110 647q-25 2 -29 3q-13 5 -9 23q-302 48 -244 -180q280 -86 269 -77q19 51 13 231zM212 398q46 -14 89 -7q2 12 -6 26q-7 14 -6 25q-113 -10 -142 38q15 0 55 -10q32 -7 61 -2q6 39 -43 47q-55 9 -60 29q-2 0 53 -1q31 -1 24 27q3 17 -10 22q-8 3 -30 2
q-21 0 -29 4q-12 5 -8 23q6 0 35 -9q15 -5 29 9q5 33 -31 46q-41 14 -46 31q40 -11 52 -11q28 1 25 37q-30 -4 -62 17q-33 22 -15 34q8 -1 33 -11q23 -9 36 -11q40 -7 47 35q-12 9 -63 21q-42 9 -53 31q23 59 128 32q71 -18 73 -18q35 -6 43 11q-35 39 -135 42
q-98 2 -147 -29q4 -89 1 -273q-3 -215 -1 -317q53 -28 98 -37q73 -15 82 37q-12 10 -75 15q-52 4 -54 36q20 -1 53 -9q35 -8 47 -9q47 -3 54 57q-45 -21 -100 -6q-49 13 -79 44q19 -1 77 -18zM841 1103q166 53 355 35q193 -18 328 -104q148 -95 176 -246q-57 110 -200 183
q-132 68 -307 88q-173 20 -333 -12q-169 -34 -276 -118q80 117 257 174zM625 714q-16 21 -29 23q-7 81 27 103q29 17 67 -12q37 -29 36 -66q-2 -44 -65 -64q-23 -3 -36 16zM1367 403q279 42 371 65q105 223 22 406q-74 164 -276 259q-192 91 -421 87q-239 -4 -415 -111
q-30 39 -74 56q-54 21 -106 -5q1 -38 35 -74q38 -38 42 -67q-113 -148 -141 -231q-77 3 -111 -47q-30 -42 -24 -114q6 -65 38 -127t71 -84q145 38 235 -44q100 -90 60 -277q62 -5 116 13q12 8 12 58q1 44 26 45q25 -12 180 -39q11 24 4 68q-9 55 -4 86q122 40 360 77z
M1078 1353q-67 1 -122 25q18 53 107 51q80 -3 124 -38q-29 -39 -109 -38zM1033 1263q6 26 -31 27q-37 2 -34 24q32 -16 110 -11q79 6 96 -2q0 -11 -18 -13q-19 -3 -21 -12q17 -16 77 -13v154q-55 44 -142 47q-93 2 -140 -47q-1 -30 3 -82q3 -36 -3 -72h103z" />
    <glyph glyph-name="four" unicode="4" 
d="M755 1422q-78 -80 -99 -189t21 -207q-226 -320 -516 -530q-98 44 -210 24t-192 -100q-74 -74 -97 -176t9 -194l206 206l148 -8l78 -78l8 -148l-206 -206q92 -32 194 -9t176 97q72 72 96 171t-6 191q230 316 558 546q92 -24 185 1t163 95q74 72 97 174t-9 194l-206 -206
l-148 8l-78 78l-8 150l206 206q-92 30 -194 7t-176 -97z" />
    <glyph glyph-name="five" unicode="5" horiz-adv-x="2048" 
d="M843 222q-29 -63 -30 -68q10 -6 137 -138q83 -86 179 -79q18 1 45 15q35 18 54 24q-3 6 2 61q3 40 -22 38q-20 -28 -60 -36q-37 -9 -76 3q-41 12 -63 39q-25 31 -18 73q19 2 59 0q44 -3 60 -2q66 4 58 61q-211 44 -197 20q12 20 52 22q7 0 77 -4q47 -2 67 7q27 14 21 53
q-212 44 -197 20q12 69 91 88q76 19 126 -29q-9 30 7 53q16 24 13 46q-148 61 -262 -30q-46 -36 -153 -187q43 -22 30 -50zM744 914q-70 -113 -89 -188h770q-41 158 -163 301q-11 12 -232 231q-7 -73 -66 -111q-41 -26 -131 -46q-19 -72 -89 -187zM1134 1467q75 30 160 0
t116 -99q35 -78 -25 -169q34 -64 129 -236q82 -148 128 -237h355q0 -18 15 -54q13 -31 5 -65q6 -57 -56 -72q-99 -24 -102 -26q-20 -309 -118 -750q-701 -54 -1401 0q-87 351 -119 730q-12 13 -50 27q-46 18 -63 28q-73 46 -44 162q75 27 169 25q14 0 86 -3q57 -3 100 -2
q26 51 88 142q68 99 94 144q99 174 54 325q13 66 70 107q53 38 121 41q70 3 120 -33q55 -39 64 -115q21 96 104 130z" />
    <glyph glyph-name="six" unicode="6" horiz-adv-x="3103" 
d="M1529 -141q83 -65 243 -61q78 2 121 32q51 35 45 103q-76 -63 -208 -58q-128 5 -201 68v-84zM1732 105q140 -4 169 -69q-59 -65 -173 -60q-111 5 -171 69q34 64 175 60zM1529 -29q61 -58 220 -65q167 -6 189 74q17 62 -30 103q-41 37 -120 49q-75 11 -147 -4
q-77 -17 -112 -55v-102zM2589 26q72 -65 202 -72q132 -7 207 54v74q-76 -59 -211 -53q-134 6 -198 72v-75zM702 43q103 -8 250 30q0 15 13 42q12 24 5 51q-84 -53 -212 -51q-131 1 -206 60q-10 -121 150 -132zM1417 538q0 7 -37 -37q25 -36 93 -40q20 -1 55 1q36 2 47 2
q-5 -9 -36 -11q-28 -1 -29 -17q34 -25 121 -23q93 2 102 41q-18 39 -82 42q-19 1 -57 -2q-40 -3 -56 -2q-8 19 14 18q24 -1 23 10q-14 12 -59 10q-60 -3 -71 -1q98 51 261 48q86 -2 288 -30q-13 -37 -7 -46q0 -1 10 -13q9 -10 15 -24q-55 -10 -224 -46q-141 -30 -226 -42
q-262 -35 -452 41q6 6 19 14q15 9 19 13q19 17 -1 48q88 12 270 46zM2245 473q-74 47 -220 91q-194 59 -236 76q-518 -99 -781 -130q-26 -70 0 -102q53 -25 153 -70q106 -48 154 -70q562 136 930 205zM561 603q100 -59 246 -51q166 9 154 126q-78 -57 -208 -54
q-134 4 -192 72q-23 -27 0 -93zM2712 805q-155 54 -272 40q-79 -10 -818 -158q39 -18 140 -10q95 8 139 -18q13 8 -1 29q-14 20 1 27q47 2 130 19q82 16 130 18q-1 -6 -21 -21q-13 -10 3 -25q14 -17 60 -24q56 -7 70 -14q-1 -6 -12 -11q-10 -5 -7 -17q2 1 138 -3
q84 -2 85 50q-15 29 -93 28q-90 -2 -111 9q2 10 31 10q27 1 25 18q-12 2 -76 -1q-48 -2 -64 10q320 83 558 -9q-26 -15 -9 -39q19 -26 9 -35q-85 -6 -310 -61q-187 -45 -294 -32q78 -50 202 -35q28 3 244 53q328 76 400 112q-55 11 -277 90zM758 732q-135 4 -206 57
q-9 -66 61 -105q62 -34 155 -34q93 1 149 36q64 39 44 103q-60 -61 -203 -57zM754 833q-62 2 -109 22q-52 21 -65 55q54 52 179 48q123 -5 174 -57q-32 -72 -179 -68zM926 946q-43 32 -118 42q-167 22 -247 -50q-26 -83 31 -133q48 -42 141 -48q86 -6 158 21q75 29 79 76
q6 56 -44 92zM1492 914q-41 -27 -56 -32q-139 -38 -307 56q-24 -61 44 -99q61 -34 161 -36q100 -1 163 30q71 35 50 96q-24 6 -55 -15zM1334 1183q-135 2 -196 71q-24 -61 36 -104q54 -39 145 -45q93 -6 157 26q74 36 71 105q-88 -54 -213 -53zM1340 1288q-133 5 -183 59
q36 69 169 65q125 -4 184 -55q-29 -73 -170 -69zM1538 1338q-4 33 -9 47q-73 57 -215 59q-149 3 -185 -69q-31 -58 17 -102q42 -39 127 -54q84 -14 160 4q83 19 114 69q-5 13 -9 46zM1328 977q-147 5 -171 73q93 -54 245 -40q74 8 111 37q42 35 25 96q-69 -63 -202 -59
q-127 3 -207 59q-6 -27 5 -78q8 -40 -15 -80q26 -43 102 -65q70 -22 150 -17q83 5 129 36q53 35 38 92q-64 -59 -210 -54zM998 166v-65q31 -15 157 -66q98 -40 150 -74q41 15 186 47v56q-18 3 -186 -38q-173 97 -307 140zM1947 101q30 15 168 37q109 17 139 65
q-59 36 -185 1q-164 -47 -205 -47q12 -22 83 -56zM919 168q64 35 42 100q-76 -58 -207 -53q-127 5 -202 63q-4 -45 9 -84q122 -64 242 -56q72 5 116 30zM2589 231q48 -62 182 -69q111 -6 199 23q-58 -64 -188 -51q-111 10 -193 60v-75q59 -54 201 -58q144 -4 208 49
q-6 108 0 177q-79 -58 -211 -53q-133 6 -198 72v-75zM2143 324q-94 -15 -266 -60q-225 -59 -274 -70q-255 -58 -288 -56q-62 4 -159 64q-98 60 -158 66q-10 -58 45 -86q17 -9 50 -19q34 -11 45 -16q18 -8 91 -45q53 -27 86 -38q143 51 469 111q327 61 470 112q11 48 -37 37
q-42 5 -74 0zM2552 296v65q-1 0 -162 -31q-99 -19 -80 -90q120 22 242 56zM761 317q-107 4 -209 63v-65q52 -66 205 -69q153 -2 213 60q-2 68 -9 74q-83 -66 -200 -63zM2629 302q40 -30 119 -36q170 -14 250 49v84q-54 -61 -199 -59q-142 2 -201 59q-16 -62 31 -97z
M1305 175q23 -2 242 47q45 10 124 28q84 20 118 28q418 94 465 121q-4 34 -39 40q-22 3 -45 -3q3 0 -427 -103q-403 -96 -438 -93q-61 6 -153 67q-91 59 -154 64q-11 -49 40 -81q17 -10 47 -22q41 -17 44 -18q156 -73 176 -75zM2426 436q-64 -18 -116 -19q-12 -49 -9 -74
q20 5 128 25q79 14 123 31v21q1 14 0 21q-2 22 -19 23q-15 -3 -107 -28zM753 419q-135 4 -192 73q-6 -6 -9 -75q30 -37 104 -57q71 -18 147 -13q80 6 123 36q50 34 35 90q-76 -57 -208 -54zM115 501q36 -6 99 -25q87 -25 106 -30q129 -33 204 -10q-10 1 -8 12q2 8 8 16
q-308 88 -409 74v-37zM2415 468q87 24 128 24q15 37 18 74q-3 -1 -160 -26q-97 -14 -100 -86q38 -8 114 14zM758 526q-139 5 -206 59q-10 -67 60 -106q63 -35 156 -34t150 36q63 39 43 104q-57 -63 -203 -59zM2801 442q-131 5 -175 59q25 72 161 68q130 -3 174 -59
q-24 -72 -160 -68zM2589 436q62 -60 202 -64q143 -5 207 54v103q-77 63 -208 67q-138 5 -201 -67v-93zM2934 609q36 -18 64 -15q13 64 -49 64q-58 -1 -81 -36q31 4 66 -13zM515 585q-74 8 -189 35q-130 31 -183 39q-1 -10 -19 -18q-16 -8 -9 -28q66 -33 192 -59
q184 -37 208 -44v75zM1501 696q-361 68 -503 84q13 -44 107 -52q104 -8 126 -32q-35 -14 -8 -31q37 -24 36 -34q-24 -24 -143 -24q-106 -1 -118 -50q318 13 503 139zM1538 826q-32 -25 -106 -43q-97 -23 -117 -31q-5 0 204 -19q34 58 19 93zM232 741q-31 -7 -40 -9
q-44 -12 -59 -36q39 -2 201 -45q123 -33 190 -11q9 -10 -168 47q6 6 17 16q10 9 13 13q9 14 -11 36q20 11 149 47q-28 41 -109 12q-23 -8 -72 -30q-48 -21 -70 -29q-15 -5 -41 -11zM1129 845q1 -9 -5 -19q-5 -10 -5 -18q3 -1 30 -13q20 -9 34 -14q44 -14 67 -1q-6 1 -121 65
zM2198 826q-7 17 -51 33q-39 14 -42 42q68 -37 182 -38q115 0 181 38q0 2 5 22q5 19 6 31q5 39 -20 40q-49 -72 -200 -55q-120 14 -191 55q-6 -31 6 -55q3 -6 11 -19q8 -11 11 -19q-35 6 -31 -40q5 -45 22 -53q117 17 111 18zM2068 1106v-75q63 -57 198 -63q137 -7 211 45
v83q-78 -57 -198 -56q-124 1 -192 66h-19zM2279 1141q-133 3 -174 67q39 70 169 64q124 -6 176 -64q-36 -70 -171 -67zM2477 1226q-59 68 -202 71q-143 4 -207 -61q-8 -76 39 -119q41 -36 117 -44q152 -17 253 51v102z" />
    <glyph glyph-name="seven" unicode="7" horiz-adv-x="1785" 
d="M952 391q48 -5 79 -40q27 -33 29 -77q1 -44 -25 -76q-29 -34 -83 -37v230zM768 765q-6 78 61 94q20 -19 17 -81q-4 -85 -2 -99q-69 8 -76 86zM952 859q60 -29 86 -108q180 24 267 43q-60 242 -353 252v72h-108v-72q-108 12 -197 -40q-80 -47 -123 -134q-42 -85 -32 -174
q11 -96 78 -163q41 -41 126 -69q124 -42 148 -53v-245q-78 29 -108 158q-44 -8 -141 -18q-94 -10 -140 -18q16 -150 126 -230q92 -67 263 -94v-130h108v137q162 11 260 81q105 75 122 207q22 176 -102 274q-79 63 -280 122v202zM1373 1186q58 -42 83 -53q48 46 35 98
q-11 46 -58 73q-48 27 -91 13q-48 -17 -59 -83q40 -12 90 -48zM410 1181q52 34 74 60q-17 69 -69 80q-45 10 -91 -26q-45 -35 -49 -82q-3 -53 58 -87q19 18 77 55zM217 557q17 179 132 333q109 145 264 214q114 50 288 50q270 1 461 -180q186 -174 209 -417
q23 -232 -88 -419q-102 -173 -288 -264q-184 -90 -383 -70q-212 22 -371 162q-258 226 -224 591zM1509 1022q-186 200 -485 269v101q-42 -1 -138 1q-80 1 -114 -1q-10 -13 -8 -49q2 -50 1 -59q-305 -58 -495 -270q-204 -228 -197 -558q6 -279 245 -569q-15 -23 -85 -120
q-53 -74 -81 -125h202q76 111 101 144q157 -122 439 -122q282 1 440 122q10 -13 51 -75q31 -46 57 -69h194q-24 43 -83 126q-57 79 -83 126q245 269 245 583q0 323 -206 545zM1096 1594h-403v-166h403v166z" />
    <glyph glyph-name="eight" unicode="8" horiz-adv-x="1326" 
d="M1065 953h-789q-4 -1 -3 -10v-453q0 -133 6 -148q15 -36 60 -47q33 -8 95 -5q2 -29 0 -90q-2 -62 -1 -88q6 -95 65 -108q96 -21 111 85q4 32 3 100q-1 71 2 98q56 10 113 0q2 -193 3 -203q19 -102 112 -80q59 13 62 113q5 168 6 173q125 -5 148 45q7 14 7 148v470z
M1272 837q-1 69 -31 104q-34 40 -95 18q-46 -16 -53 -110q-2 -31 0 -86q2 -75 2 -87q0 -11 -1 -60q-2 -42 -1 -66q2 -77 21 -99q30 -35 84 -26q52 8 66 53q8 26 8 108v251zM141 966q-52 -8 -66 -53q-8 -26 -8 -108v-251q0 -69 30 -104q35 -40 96 -18q46 16 53 110q2 31 0 86
q-2 75 -2 87q0 11 1 60q1 42 1 66q-2 77 -21 99q-30 34 -84 26zM512 1189q10 -8 12 -24q1 -15 -6 -27q-8 -13 -23 -15q-30 -3 -39 30t26 41q19 5 30 -5zM872 1188q10 -8 11 -24q0 -15 -8 -27q-9 -13 -23 -14q-30 -1 -37 31q-7 33 27 40q20 4 30 -6zM1065 982q2 118 -58 200
q-40 56 -136 122q4 12 35 63q24 38 17 65q-19 1 -30 -20q-3 -5 -8 -18q-4 -12 -7 -16q1 2 -39 -61q-68 31 -175 29q-100 -2 -169 -29q-1 2 -32 61l-8 16q-4 11 -8 16q-10 19 -26 22h-3q4 17 51 -132q-199 -116 -193 -318h789z" />
    <glyph glyph-name="nine" unicode="9" horiz-adv-x="2160" 
d="M1486 435q2 -97 2 -101q109 11 107 122q-22 30 -92 61q-18 -22 -17 -82zM1376 790q-22 -8 -26 -13q-22 -114 76 -137q-3 10 3 102q5 65 -33 66q-2 -12 -20 -18zM848 828q18 27 13 56q-156 68 -293 1t-151 -215q-39 10 -60 -8q-6 -6 -16 -19t-16 -19q-7 -23 6 -29
q8 -3 33 -1q24 2 32 -2q14 -6 6 -29q-65 -24 -77 -91q7 -3 56 1q35 3 36 -17q12 -146 144 -213q133 -67 284 -1v122q-91 -58 -188 -34q-106 26 -102 142h183q-6 23 5 40q13 19 10 36q-14 4 -125 -3q-80 -5 -89 34q22 14 72 16q15 0 45 -1q31 -1 44 0q51 0 74 14q29 18 25 62
q-20 3 -131 -2q-83 -3 -113 18q8 92 100 113q80 18 175 -22q-1 22 18 51zM1489 236v-34q1 -21 -4 -29q-8 -12 -28 -7q-33 -9 -33 28q2 66 2 63q-172 -1 -198 184q63 28 105 -24q60 -75 78 -83q21 18 17 82q-4 87 -2 101q-22 22 -94 59q-65 33 -89 64q-22 79 -1 127
q15 35 61 65q77 48 78 49q39 32 45 80h31q13 -37 51 -64q8 -5 73 -41q45 -25 65 -50q27 -36 25 -90h-76q-26 6 -43 42q-20 41 -34 50q-33 -7 -32 -67q1 -104 2 -101q82 -3 139 -63q52 -55 60 -130q8 -77 -36 -130q-49 -58 -148 -60q-11 -3 -14 -21zM711 61q-168 -10 -314 73
q-152 86 -212 238q-68 169 3 375q35 104 128 186q107 94 254 120q176 31 332 -51q144 -76 222 -222q79 -148 57 -304q-25 -171 -168 -295q-125 -110 -302 -120zM1278 1167q-76 -26 -219 -114q-153 145 -406 135q-226 -8 -374 -120q-165 -125 -215 -329q-48 -192 19 -384
q68 -196 229 -310q176 -125 411 -109q93 7 185 50q29 13 80 42q59 32 87 46q176 -130 351 -138q302 -13 478 169q156 162 165 414q9 246 -126 436q-146 206 -394 235q-151 18 -271 -23z" />
    <glyph glyph-name="colon" unicode=":" horiz-adv-x="1671" 
d="M953 86q32 -5 54 24q20 26 23 65q2 41 -16 69q-21 32 -61 32v-190zM828 313q-23 -195 8 -256q29 2 31 42q1 13 0 37q-2 29 -2 38q1 119 -7 139h-30zM692 568q-12 -22 -12 -51q-1 -30 12 -49q15 -21 41 -16q-13 151 -7 139q-21 0 -34 -23zM858 627h-30q1 -13 -4 -56
q-6 -47 -7 -71q-4 -88 41 -92q23 105 0 219zM508 1195q-113 46 -133 61q-2 -8 -18 -22q-14 -11 -11 -30q-5 2 132 -68q81 -42 139 -27q-24 52 -109 86zM1318 1212v58q-205 -23 -285 -73q2 -54 7 -58q76 39 278 73zM953 -89q-1 0 -81 -7q-7 5 -7 44q1 32 -22 29
q-23 3 -22 -29q0 -39 -7 -44q-80 7 -81 7v66q-91 62 -116 88q-56 59 -59 146q17 7 88 7q34 -99 73 -117q19 28 16 104q-4 105 -2 122q-15 16 -77 50q-48 27 -61 60q-35 88 14 166q43 67 124 97v73q1 1 81 8q7 -6 7 -45q-1 -32 22 -29q23 -3 22 29q0 39 7 45q80 -7 81 -8v-73
q74 -39 104 -71q48 -49 49 -126q-34 -22 -95 0q5 57 -51 88q-10 -32 -8 -98q2 -89 1 -107q79 -8 124 -69q42 -55 41 -131q0 -76 -41 -132q-46 -61 -124 -70v-73zM164 -39q13 -61 36 -94q42 -61 137 -96q24 -9 86 -27q59 -18 91 -30q-197 -30 -310 67q-121 102 -70 291
q11 -29 30 -111zM660 1431q66 -84 83 -115q43 -78 20 -141q-39 45 -103 256zM866 1335q4 133 -8 176q38 -46 50 -150q11 -104 -14 -179q-32 42 -28 153zM1523 405q-2 81 -8 112q-72 393 -511 622q19 195 73 431q-103 49 -168 44q-15 -2 -44 -16q-32 -17 -51 -21
q-17 -4 -57 -3q-38 0 -53 -4q-19 -6 -51 -32q-33 -28 -51 -34q-12 -4 -40 -4q-28 1 -40 -3q-72 -23 -110 -103q123 -62 241 -299q-217 -89 -349 -251q-146 -181 -162 -429q-2 -17 0 -54q1 -35 0 -55q-5 -50 -43 -188q-33 -121 -31 -192q7 -185 265 -246q126 -30 474 -39
q626 -17 752 153q57 77 29 227q-7 35 -31 129q-21 82 -27 126q-6 42 -7 129z" />
    <glyph glyph-name="semicolon" unicode=";" horiz-adv-x="2048" 
d="M1017 863q-96 -1 -102 -61q4 -23 40 -37q34 -13 77 -12q45 0 73 16q32 17 29 48q-22 47 -117 46zM1161 748q-29 -37 -92 -47q-56 -8 -114 8q-59 17 -84 50q-21 68 13 107q29 34 92 42q56 7 116 -7q60 -15 86 -40q18 -71 -17 -113zM1101 518q37 33 33 51q-3 55 -58 58
q-54 -3 -55 -50q-1 -16 4 -47q6 -36 7 -49q3 0 -161 29q2 13 -2 90q-3 56 17 71q23 0 29 -26q2 -10 1 -53q0 -35 8 -47q13 -17 49 -6q1 2 4 62q2 55 25 70q55 31 102 11q42 -17 62 -65q20 -46 6 -89q-16 -47 -67 -62q-32 25 -4 52zM1236 968q-116 76 -292 39
q-125 -26 -197 -102q-78 -81 -81 -205q-4 -175 122 -267q111 -81 269 -65q158 17 249 120q103 115 62 285q-31 129 -132 195zM1675 843q-94 -3 -146 18q-14 40 -3 61q8 16 34 24q48 17 44 15q23 10 27 31v147q-306 52 -1199 14q-15 -16 -15 -65q0 -89 1 -81q-5 -30 16 -43
q9 -6 44 -13q31 -7 40 -19q15 -17 2 -56q-26 -41 -137 -35q-103 6 -141 35q-44 182 0 365q401 51 1550 15q67 -106 15 -380q-35 -29 -132 -33zM1412 -104q-95 0 -393 1q-225 1 -382 -1q3 104 -2 587q-3 361 17 568h760v-1155zM1641 1392q-82 5 -226 1q-199 -6 -237 -6
q-86 0 -332 9q-207 7 -317 3q-337 -12 -418 -143q-36 -298 42 -426q94 -156 367 -101v-921q497 -40 994 0q22 137 15 461t14 460q267 -54 357 105q71 126 38 422q-57 119 -297 136z" />
    <glyph glyph-name="semicolon" unicode="&#x37e;" horiz-adv-x="2048" 
d="M1017 863q-96 -1 -102 -61q4 -23 40 -37q34 -13 77 -12q45 0 73 16q32 17 29 48q-22 47 -117 46zM1161 748q-29 -37 -92 -47q-56 -8 -114 8q-59 17 -84 50q-21 68 13 107q29 34 92 42q56 7 116 -7q60 -15 86 -40q18 -71 -17 -113zM1101 518q37 33 33 51q-3 55 -58 58
q-54 -3 -55 -50q-1 -16 4 -47q6 -36 7 -49q3 0 -161 29q2 13 -2 90q-3 56 17 71q23 0 29 -26q2 -10 1 -53q0 -35 8 -47q13 -17 49 -6q1 2 4 62q2 55 25 70q55 31 102 11q42 -17 62 -65q20 -46 6 -89q-16 -47 -67 -62q-32 25 -4 52zM1236 968q-116 76 -292 39
q-125 -26 -197 -102q-78 -81 -81 -205q-4 -175 122 -267q111 -81 269 -65q158 17 249 120q103 115 62 285q-31 129 -132 195zM1675 843q-94 -3 -146 18q-14 40 -3 61q8 16 34 24q48 17 44 15q23 10 27 31v147q-306 52 -1199 14q-15 -16 -15 -65q0 -89 1 -81q-5 -30 16 -43
q9 -6 44 -13q31 -7 40 -19q15 -17 2 -56q-26 -41 -137 -35q-103 6 -141 35q-44 182 0 365q401 51 1550 15q67 -106 15 -380q-35 -29 -132 -33zM1412 -104q-95 0 -393 1q-225 1 -382 -1q3 104 -2 587q-3 361 17 568h760v-1155zM1641 1392q-82 5 -226 1q-199 -6 -237 -6
q-86 0 -332 9q-207 7 -317 3q-337 -12 -418 -143q-36 -298 42 -426q94 -156 367 -101v-921q497 -40 994 0q22 137 15 461t14 460q267 -54 357 105q71 126 38 422q-57 119 -297 136z" />
    <glyph glyph-name="less" unicode="&#x3c;" horiz-adv-x="2263" 
d="M696 -68q69 -5 85 12q-107 65 -308 103q-58 10 -177 28t-176 29v-245q108 2 607 -2q375 -3 593 14q-103 38 -343 37q-283 -2 -367 12q16 16 86 12zM756 373q-13 -58 10 -96q16 -25 59 -51q50 -31 62 -43q26 -27 16 -67q36 -11 46 21q12 38 28 40q56 -9 101 9q15 6 70 40
q-55 97 -122 110q9 -72 -49 -61q-6 29 10 57q17 29 14 53q-19 14 -92 85q-56 53 -104 74q3 -43 35 -77q8 -8 61 -48q34 -27 40 -51q8 -32 -25 -81q-5 8 -15 46q-9 30 -22 40h-123zM171 511q3 20 10 91q6 57 12 89q-49 3 -68 -33q-14 -28 -11 -89q9 -197 6 -208q37 45 51 150
zM1369 587q2 -29 -13 -43h-49q-4 24 16 40q21 17 21 34q23 0 25 -31zM1450 834q10 -8 16 -8q-2 -47 -49 -49q-5 37 13 61q11 2 20 -4zM1481 756q14 20 34 21q-10 -101 111 -110q28 54 -4 121q-39 80 -33 124q-146 23 -201 16q-109 -13 -117 -114q-3 -28 25 -72t24 -88
q-6 -3 -33 -28q-19 -19 -41 -20q-6 24 12 42q19 19 13 43q-32 1 -63 29q-33 30 -60 32q-45 -55 -7 -153q20 -52 23 -72q6 -39 -16 -68q20 -20 43 -7q34 19 43 19q61 -55 129 -47q62 8 105 60t42 117q0 72 -56 127q9 4 27 28zM634 128h171q-71 71 -79 217q-8 138 43 248
q-45 68 -98 92q-56 25 -159 18q-41 -29 -110 -104q-67 -74 -111 -104q19 62 43 196q25 135 43 196q103 -36 110 49q-24 15 -82 22q-69 8 -89 15q-16 -88 -86 -419q-55 -261 -73 -401q280 -43 686 -128q631 -134 672 -142q3 28 -25 42q-32 17 -36 32q-614 104 -820 171z
M1440 114q-112 95 -182 161q-248 234 -342 343q28 -15 74 -48q49 -37 72 -50q4 181 99 299q77 96 232 166q-41 40 -125 89q-103 60 -132 82q-68 1 -158 -26q-101 -30 -148 -35q42 62 132 150q103 102 137 144q544 -494 722 -673q-24 10 -71 44q-43 32 -75 41
q-26 -345 -355 -428q-13 15 269 -196l318 74q-180 -194 -281 -294q-19 16 -186 157zM816 1195q-166 -184 -280 -283q543 -561 1114 -1041q27 30 281 294q170 178 270 306q-130 114 -550 515q-337 323 -564 501q-66 -66 -271 -292z" />
    <glyph glyph-name="equal" unicode="=" horiz-adv-x="2213" 
d="M1854 838q-126 -65 -178 -97q15 -9 -12 122q229 118 341 195q30 1 27 -47q-4 -68 -2 -75q-59 -38 -176 -98zM1664 424q15 -9 -12 122q245 123 341 195q30 -1 27 -52q-5 -74 -3 -82q-210 -100 -353 -183zM1618 152q-8 42 -3 65q290 154 354 207q14 -13 13 -65
q0 -55 11 -69q-44 -18 -183 -97q-111 -63 -195 -85q10 10 3 44zM1380 1084q117 -72 162 -87q-10 104 -138 143q-41 13 -112 23q-87 13 -103 17q138 120 302 132q175 12 307 -108q-21 -84 37 -122q-37 -40 -244 -134q-59 38 -170 98q-122 68 -171 97q29 3 130 -59zM1360 607
q-139 -77 -573 -195q-286 175 -536 317v122q60 -7 263 -139q204 -133 273 -141q109 -13 283 58q214 88 290 100v-122zM763 95q-97 66 -260 161q-217 127 -264 156v122q236 -118 536 -292q480 133 560 170q-15 12 12 -134q-349 -138 -584 -183zM1311 -39q-39 -10 -283 -119
q-174 -77 -277 -63q-95 12 -269 142q-186 140 -267 162v134q48 -9 256 -149q202 -135 280 -143q105 -10 276 62q201 85 284 96v-122zM685 989q123 36 175 69q86 -31 221 -114q143 -88 218 -118q-241 -98 -239 -97q-155 -48 -236 12q-24 2 -51 -10q-30 -13 -47 -14
q-40 15 -120 62q-73 44 -123 59q2 6 12 19q12 17 16 23q18 29 -4 44q49 27 178 65zM2130 964q0 17 -4 91q-2 57 1 88q-106 46 -320 173q-201 119 -326 168q-394 -301 -1327 -548q3 -31 0 -91q-3 -70 -2 -94q3 -104 63 -120q-44 5 -66 -42q-19 -42 -18 -108q2 -63 21 -112
q21 -51 50 -54q-23 1 -50 -11q-30 -13 -47 -14v-255q620 -373 609 -366q351 64 732 237q-25 -11 644 323q-1 29 0 83q2 59 1 83q-2 94 -37 127q66 6 68 146q3 135 -44 170q51 22 52 126zM1058 927q-95 60 -161 82q-21 -58 6 -105q24 -43 80 -67q122 -55 230 1
q-49 22 -155 89z" />
    <glyph glyph-name="greater" unicode="&#x3e;" horiz-adv-x="2168" 
d="M1207 632q42 -5 62 15q-7 49 -63 74q-9 4 -50 18q-32 11 -48 21q-12 -11 -48 -37q-32 -23 -47 -38q-46 -50 -18 -118q13 -16 58 -31q43 -15 55 -33q-1 -7 -1 -20q1 -14 0 -20q-1 -22 -15 -25q-2 2 -14 34q-9 21 -34 15q-2 -1 -28 -13q-17 -8 -37 -4q-6 -39 13 -60
q12 -14 45 -26q38 -14 49 -24q23 -18 22 -50q18 17 55 37q52 27 60 32q68 43 62 124q-11 36 -74 70q-62 34 -71 74q51 -14 67 -15zM1623 116q268 -23 261 -23q178 -4 222 56q-66 38 -234 39q-170 1 -233 -39q-20 -6 -16 -33zM2031 287q-54 13 -138 14q-196 3 -254 -40
q-20 -5 -16 -32q374 -51 467 16q1 26 -59 42zM1623 342q267 -24 261 -23q178 -5 222 55q-66 38 -234 40q-170 1 -233 -40q-20 -6 -16 -32zM1623 454q266 -23 261 -23q178 -4 222 56q-112 70 -483 16v-49zM180 851q-24 -7 -21 -27q15 -21 32 -80q16 -59 32 -80q-3 17 2 114
q3 73 -18 95q-1 -14 -27 -22zM1784 728q-52 -9 -82 23q-6 6 -22 29q-14 20 -25 28q7 22 55 18q64 -4 74 -2v-96zM946 320q-75 72 -92 180q-17 109 36 193q59 93 186 115q158 28 248 -53q80 -71 82 -195q3 -120 -67 -211q-76 -100 -199 -104q-113 -3 -194 75zM464 824h129
q3 -96 -129 -96v96zM464 245v97q132 0 129 -97h-129zM1880 889h-1512v-708h1207v386h305v322zM223 374q10 130 -37 268q-70 203 -76 231q11 3 38 10q25 6 38 11q41 14 53 43q-35 24 -94 1q-80 -32 -99 -33q57 -225 177 -531zM336 921h1593q5 -27 -4 -197q-6 -124 36 -157
q22 59 18 191q-5 176 -2 211h-1690q-2 -155 -1 -423q2 -309 1 -446q112 6 656 -4q396 -7 632 37q-221 21 -610 18q-518 -5 -629 -2v772zM1454 1138q-14 6 -56 41q34 39 128 48q0 -15 13 -44q10 -25 4 -53q-52 -10 -89 8zM1130 1173q-286 -90 -424 -155q175 11 479 4
q351 -9 502 -4q-5 12 -49 167q-29 103 -79 138q-126 -54 -429 -150zM1721 1232q-44 134 -98 204q-165 -69 -592 -204q-387 -123 -583 -214q255 38 603 162q443 158 572 192q12 -35 27 -98q19 -77 25 -99q34 -115 93 -157q-8 94 -47 214z" />
    <glyph glyph-name="question" unicode="?" horiz-adv-x="2048" 
d="M1160 239q9 72 -31 113q-50 10 -81 -19q-28 -24 -32 -67q-4 -42 17 -74q22 -36 63 -38q55 11 64 85zM1541 274q-18 -6 -239 -74q-143 -45 -223 -79q-35 -1 -64 43q-27 43 -68 39q-401 25 -678 298q6 -73 1 -215q-6 -159 -4 -218q8 -245 136 -294h1388q13 22 46 44
q44 30 53 38q20 107 18 304q-3 289 -2 324q-83 -115 -364 -210zM1112 567q96 1 83 149q-11 2 -38 20q-21 14 -45 13v-182zM1079 997q-42 7 -65 -20q-20 -23 -18 -61q2 -37 23 -62q24 -28 60 -23v166zM848 1145q4 75 78 120q66 40 160 41t161 -38q74 -45 80 -123h-479z
M997 534q-81 53 -83 132q38 11 59 -3q13 -10 24 -38q13 -33 20 -42q16 -19 46 -16q-20 -12 16 165q-16 33 -70 62q-62 34 -79 54v132q16 25 78 55q58 27 71 61q3 -3 106 -60q64 -35 59 -106q-41 -25 -63 11q-31 50 -52 56q20 12 -17 -166q74 -32 149 -99q19 -70 3 -114
q-13 -32 -51 -60q-62 -46 -64 -48q-33 -31 -37 -75q-17 35 -115 99zM1012 354q31 35 77 37q46 1 76 -32q34 -38 30 -106q344 71 414 95q254 85 296 235q80 282 -34 460q-58 90 -157 119q-109 31 -255 -17q19 137 -61 209q-69 61 -203 71q-240 18 -446 -81q-10 -24 -22 -103
q-10 -68 -28 -96q-295 67 -391 -105q-75 -134 -39 -457q190 -263 711 -330q-3 62 32 101z" />
    <glyph glyph-name="at" unicode="@" horiz-adv-x="2048" 
d="M1066 127q-238 37 -415 170q-6 22 -54 70q-39 38 -31 82q-150 11 -148 119q1 50 36 91q32 39 78 53q-5 -13 -43 -40q-30 -21 -24 -45q4 -18 30 -23q44 -8 50 -11q-6 -10 -36 -9q-32 1 -40 -4q6 -30 48 -42q68 -20 70 -21q1 20 -24 26q-30 7 -35 16q1 11 20 10
q28 -2 31 -1q4 26 -16 37q-3 2 -18 8q-11 5 -17 10q6 19 13 51q10 46 12 53q15 62 43 86q1 7 -4 11q-6 4 -5 11q165 244 377 410q77 -31 176 -41q119 -11 180 24q193 -134 258 -224q-1 -12 -18 -30q-15 -16 -11 -38q20 -7 45 11q29 22 44 23q-4 -24 -38 -45q-34 -22 -39 -44
q21 -2 45 22q23 21 40 16q8 -7 -14 -22q-25 -18 -24 -33q8 -4 34 9q23 12 34 0q-3 -1 -17 -6q-12 -4 -20 -8q-23 -13 -23 -37q5 -12 22 -8q5 1 14 4t11 4q64 -160 12 -341q-48 -164 -156 -252q-265 -130 -453 -102zM1392 66q-2 1 -6 7q-4 5 -7 8q10 8 23 0t11 -21
q-14 -3 -21 6zM1422 25q-10 7 -9 18q11 2 16 -5q9 -12 10 -12q-7 -9 -17 -1zM1398 26q4 -8 7 -9q-4 -8 -13 -3q-8 6 -4 16q7 2 10 -4zM1388 -21q1 16 22 21q17 5 33 0q-6 -16 -26 -46q-25 7 -29 25zM1555 -42q-15 -23 -66 -64q-6 -4 -15 -15q-10 -12 -14 -15q-16 -16 -30 -3
q2 5 35 44q21 26 12 57q93 82 80 81q25 -44 -2 -85zM1413 -176q18 22 42 7q6 -18 -6 -33q-13 -16 -36 -14q-18 19 0 40zM1358 1q-7 9 0 16q20 -1 17 -25q-10 1 -17 9zM1383 102q-7 -7 -17 -1q-10 5 -8 18q30 2 25 -17zM1354 72q12 3 18 -8q5 -10 -1 -17q-16 0 -17 25z
M1343 99q8 -7 2 -14q-22 -1 -21 21q12 1 19 -7zM1350 34q-9 -9 -20 2t-2 19q19 -2 22 -21zM1328 0q13 1 19 -10q6 -10 -2 -19q-27 9 -17 29zM1303 -25q10 -1 16 -8q7 -7 1 -13q-19 1 -17 21zM1281 -63q-6 9 1 17q19 -1 17 -26q-11 0 -18 9zM1303 12q-6 9 -13 9q1 3 5 7
q3 3 4 6q11 0 17 -11t0 -18q-8 -1 -13 7zM1309 85q9 -5 11 -17q-9 -8 -21 -2q-12 5 -9 19q10 5 19 0zM1273 5q20 1 22 -17h-22v17zM1257 -31q-7 5 -9 6q1 11 14 8q12 -3 7 -17q-8 -2 -12 3zM1256 89q1 -15 -12 -15q-12 1 -13 15q24 1 25 0zM1235 38q8 7 17 1t9 -18
q-25 -2 -26 17zM1275 63q15 -6 11 -20q-15 -3 -30 12q4 13 19 8zM1244 -4q-11 -8 -22 1q-10 9 -8 24q20 -6 30 -25zM1227 51q-24 -2 -21 25q24 2 21 -25zM1181 33q-6 7 -1 18q24 2 21 -25q-14 -1 -20 7zM1142 57q-13 7 -13 19q20 14 43 -12q1 -7 -3 -10q-6 -4 -6 -7
q2 -2 -21 10zM883 83q6 9 5 15q4 0 7 -2t6 -3q1 -20 -17 -21q-5 5 -1 11zM863 38q-1 9 6 13q9 6 11 9q5 0 4 -8q-1 -12 0 -14q-20 -1 -21 0zM867 17q-5 -30 -34 -25q16 28 34 25zM837 -25q2 -24 -25 -21q13 22 25 21zM791 -67q8 6 21 4q3 -17 -21 -17v13zM782 -18
q12 5 21 -3q-6 -20 -29 -17q-5 15 8 20zM760 -53q9 6 18 -2q-1 -19 -26 -17q-2 13 8 19zM729 -101q-4 5 -10 4q4 16 29 13q2 -8 -2 -13q-6 -6 -6 -9q-7 -1 -11 5zM697 -114h17q1 -9 -17 -13v13zM691 -155q12 -14 19 -35q-20 -2 -32 12q-2 3 -9 13q-5 9 -10 13q15 15 32 -3z
M668 -92q15 1 17 -18q-5 -1 -11 -3q-7 -2 -8 -3q-9 -2 -15 6q3 18 17 18zM630 -82q-1 10 4 15h13q3 -10 -3 -15q-6 -6 -6 -11q-8 0 -8 11zM651 -25q2 -7 -4 -9q-7 -1 -5 -8q-13 0 -15 11q-3 12 7 19zM611 -51q2 5 2 9q5 1 7 -6t5 -7q0 -2 -17 -4q0 4 3 8zM670 7q2 -9 -2 -19
q-3 0 -10 5q-5 3 -11 3q2 3 4 11q2 7 4 10q12 0 15 -10zM655 -51q0 9 4 13h13q5 -5 1 -15q-4 -11 -14 -10q-4 4 -4 12zM694 27q-4 -7 -5 -10q-21 13 -21 21q4 5 15 5q10 0 14 -5q1 -6 -3 -11zM697 5q0 14 14 16t20 -8q-4 -22 -34 -8zM748 38l-12 -17q-15 13 -17 22
q10 4 29 -5zM717 -31q13 3 23 -7q-1 -16 -12 -19q-10 -2 -22 6q-2 18 11 20zM706 -17q-13 -16 -21 -17q-1 3 -7 9q-4 5 -2 13q13 13 30 -5zM697 -84q-13 -1 -16 8q-4 12 12 13q17 1 17 -9q1 -11 -13 -12zM762 -15q-5 -7 -5 -10q-6 -1 -12 3q-7 5 -9 5q0 13 9 16q9 2 20 -3
q1 -6 -3 -11zM760 76q-8 4 -8 13q22 -1 22 -13q-5 -5 -14 0zM757 102q-5 33 34 21q2 -15 -9 -30q4 1 -25 9zM763 27q7 9 28 7q2 -31 -26 -29q-10 12 -2 22zM791 72q23 2 21 -12q-23 -2 -21 12zM799 89q-5 30 25 30q-1 2 0 -34q-19 -1 -25 4zM799 -4q-3 36 30 34
q0 -37 -30 -34zM841 81q-3 17 9 23q13 5 21 -6q-6 -22 -30 -17zM850 47q-4 -4 -13 -4q-8 0 -13 4q9 20 26 17v-17zM714 119q-2 19 18 17q21 -3 16 -21q-10 -10 -34 4zM1121 1266q-3 27 -55 77q53 7 190 63q-5 -19 -26 -54q-20 -32 -24 -56q26 7 42 44q21 49 30 58
q87 -14 139 4q0 -4 -55 -64q-57 -62 -59 -63q-21 -10 -182 -9zM958 1440q45 -1 61 4q-11 8 -17 -34q-4 -31 34 -73q44 -48 47 -58q-55 13 -105 67q-80 89 -82 90q17 5 62 4zM1040 1394q25 37 81 33q1 -2 3 -13q1 -10 5 -12q-26 -27 -89 -8zM1265 1512q9 -5 -11 -19
q-35 -22 -31 -19q-4 -8 -9 -23q-5 -17 -8 -24q-16 -11 -55 -25q-2 76 -102 73q-22 0 -88 -9q-55 -7 -81 -5q52 28 105 38q73 15 102 -17q67 13 178 30zM1418 1498q53 9 76 -16q-21 -30 -74 -45q-13 -3 -100 -18q-11 1 -18 14q-8 14 -16 16q-8 0 -29 -8q-17 -8 -26 -1
q11 13 51 21t51 21q-5 0 85 16zM1629 1012q-5 -39 -55 -50q4 6 17 18q13 11 17 20q0 6 -10 13q-10 5 -7 16q23 3 38 -17zM446 1256q-4 -21 -15 -23q-13 20 12 55q7 -11 3 -32zM1400 1279q19 23 70 30q15 2 46 4t45 4q-26 -29 -161 -38zM1694 852q12 10 11 21q-35 37 -63 156
q-39 26 -76 30q-34 45 -233 191q204 3 224 12q38 16 53 40q19 29 -27 41q-45 11 -118 -10q-23 -7 -56 -20q-39 -14 -47 -17q33 50 72 89q69 68 68 66q38 51 -13 74q-40 18 -117 -13q-89 -35 -107 -34q6 5 26 16q18 9 25 18q-1 22 -26 30v4h-84q-78 -27 -111 -30q-8 2 -14 12
q-7 11 -11 14q-49 -2 -120 -22q-80 -21 -117 -25q-15 -24 -3 -44l33 -36q24 -27 64 -74q46 -52 58 -66q209 -67 335 -17q-40 -29 -106 -29q-24 0 -123 12q-22 3 -66 17q-40 13 -57 13q-19 0 -97 -47q-12 -7 -47 -28q-28 -16 -46 -27q-7 10 -16 28q-12 23 -15 28
q-19 33 -45 41q-10 -10 2 -20q15 -11 15 -18q-6 -4 -26 -4q-19 0 -25 -4q-1 -9 8 -34q99 18 70 -42q-27 -56 -74 -72q-7 -18 -33 -48q-24 -28 -31 -50q-16 -6 -39 -42q-20 -33 -37 -34q-12 2 -12 24q-1 26 -5 31q-7 -2 -14 -18q-6 -14 -15 -16q-51 -9 -80 27q-29 37 12 62
q12 2 27 -4q16 -6 28 -4q0 12 -20 18q-20 5 -22 16q20 -2 25 8q-2 30 -22 57q-34 47 -33 45q-26 -5 -38 -38q-17 32 12 57t73 19q16 10 29 51q35 23 174 55q10 2 6 -5q-5 -7 2 -8q15 9 48 13q36 4 45 8q3 13 -9 16q-2 1 -24 1q-9 20 -33 28q-6 2 -24 7q-17 4 -28 7
q-10 4 -31 15q-18 10 -24 11q-45 7 -90 -22q-11 -7 -36 -26q-22 -17 -35 -24q-2 -10 -13 -36q-9 -21 -8 -40q-58 -36 -68 -60v-76q17 -28 68 -80q-2 -4 -14 -20q-9 -12 -12 -23q11 -47 60 -80q53 2 56 2q27 -3 37 -23q-62 -167 -64 -191q-80 -40 -64 -136q15 -94 94 -122
q25 -85 93 -155q36 -37 136 -112q-2 0 -23 9q-12 5 -20 -5q-2 -26 15 -61q16 -35 15 -49q-14 3 -19 27q-7 27 -15 32q-79 -40 -85 -118q-25 -14 -35 -54q-10 -43 18 -61q10 -1 20 13q8 12 18 4q-27 -69 50 -113q30 -17 59 -17q30 0 40 20q7 17 -15 33q-26 19 -28 35
q195 83 238 229q69 12 119 -21q11 -8 84 -81q92 -92 135 -118q9 1 16 23q6 20 14 15q26 0 23 -24l-6 -44q5 -30 32 -50q25 -18 54 -18t43 20q15 23 2 65q59 29 96 73q51 61 27 122q-5 12 -38 29q-23 -8 -76 -63q-12 14 -38 61q-22 41 -43 57q278 128 318 390q-1 -3 4 0v216
q-22 71 -34 97q-1 12 10 22zM1074 -191q-146 -6 -199 9q-13 -45 68 -63h250q9 5 32 5t31 -5h77q25 15 1 34q-21 17 -52 21q-43 5 -208 -1zM998 335q-11 13 -24 4q-14 -10 -10 -30q29 -4 34 26zM771 324q-5 -16 3 -27q17 -2 22 20q6 23 -10 26q-10 -4 -15 -19zM702 466
q-21 3 -30 -16q-8 -17 0 -35q30 2 30 51zM530 466q34 -6 49 4q-45 27 -98 13q18 -12 49 -17zM477 508q76 -28 102 -8q-12 13 -47 17q-47 6 -55 8v-17zM1223 652q27 26 97 5q21 -59 -59 -102q-20 33 -38 97zM1108 627q11 10 85 25q33 -51 38 -110q-38 -18 -89 -21
q-9 16 -34 106zM1129 835q3 -19 17 -47q15 -28 17 -47q-10 -1 -37 -9q-23 -6 -39 -8q-27 19 -42 85q60 27 84 26zM1024 792q13 -16 33 -72q-14 -9 -44 -9q-32 -1 -45 9q-3 47 56 72zM1151 847q21 15 97 -17q32 -14 46 -14q21 -1 26 23q2 10 -11 25q-11 14 -19 17
q-40 19 -152 4q-12 9 -22 38q-10 30 -21 39h-8q-9 -20 4 -44q17 -31 17 -41q-13 -2 -37 -14q-21 -11 -39 -12q-13 8 -22 46q-9 35 -29 39q-9 -23 8 -50q19 -32 18 -51q-37 -21 -77 -72q-10 -76 37 -111q42 -32 116 -21q10 -16 34 -114q-33 -8 -69 17q-41 29 -67 30
q-1 -6 -8 -5q-10 -7 -9 -42q39 -43 165 -38q4 -6 12 -54q6 -34 31 -35q8 19 -3 45q-14 32 -14 44q15 6 43 11q39 8 46 10q66 -86 42 -89q11 17 0 51q-16 45 -17 55q121 78 102 161q-17 70 -182 68q-36 57 -38 101zM437 991q-28 -2 -32 -21q11 -2 24 2q14 3 23 2q5 -5 4 -25
q24 -3 21 30q-12 14 -40 12zM579 1033q-18 -21 -9 -33q41 66 47 59q-20 -6 -38 -26zM592 1084q-17 6 -24 -7q-6 -11 2 -22q28 -3 26 21q-5 1 -4 8zM723 1127q6 27 -15 28q-22 0 -15 -28h30zM524 1072q41 51 46 67q-19 28 -45 2q-25 -24 -27 -57q30 -12 26 -12zM685 1101
q-4 9 -2 34q1 19 -11 26q-12 -55 13 -60z" />
    <glyph glyph-name="A" unicode="A" horiz-adv-x="2048" 
d="M1066 772q-39 -6 -63 -18q-37 -18 -8 -38q75 64 71 56zM680 785q28 32 34 57q-238 29 -308 -112q2 -122 0 -392q-2 -295 0 -423q93 -130 440 -121q539 13 571 9q70 25 92 119q15 69 6 204q-140 -10 -208 13q-80 25 -87 99q-7 70 28 102q26 23 82 31q75 10 83 13
q36 13 32 51q11 -2 16 -40q4 -31 40 -16q63 182 -19 260q-65 63 -239 68q6 0 -324 -8q-192 -5 -275 31q7 22 36 55zM1097 833q-43 40 -110 41t-91 -39q-28 -45 29 -119q0 16 -11 59q-8 35 -3 67q13 -1 52 20q24 12 32 -20q0 -9 -17 -18q-15 -7 -11 -24q13 1 49 21
q28 16 64 7q13 -9 13 -63q1 -49 29 -49q23 71 -25 117zM1360 196q0 9 -10 11q-2 1 -9 2q-6 0 -9 1q-19 28 -16 55q4 25 24 41t44 14q27 -2 47 -26q8 -82 -71 -98zM1247 314q-1 -7 -2 -10q-2 -9 -11 -10q-19 -110 77 -134q28 -7 204 -6v197q-212 8 -267 -28q-1 -3 -1 -9z
M1297 1020q-14 37 7 61q-47 58 -118 66q-22 3 -69 2q-52 0 -80 2q-46 -87 -130 -213q-112 -170 -136 -208q117 30 112 14q-26 22 -28 84q21 49 73 67q48 16 102 0q54 -17 88 -58q36 -46 32 -107q66 19 110 100q9 15 35 70q21 44 37 68q-24 24 -35 52zM1436 1156
q103 -59 135 -103q-129 -174 -196 -309q56 44 118 148q77 127 106 161q-1 4 -32 66q-19 40 -10 88q-57 49 -125 45q-88 -4 -128 11q32 -50 132 -107zM884 947q108 195 167 246q25 -26 73 -13q15 5 38 15l30 12q22 -17 70 -49t70 -49q-9 -49 11 -88q31 -63 32 -67
q-104 -135 -141 -224q89 34 152 142q18 30 50 98q32 65 51 97l-421 267q-31 -51 -195 -297q-120 -181 -185 -307q105 49 198 217zM1276 1355q-33 -46 -42 -78q162 3 225 28q135 -92 140 -98q-23 -32 0 -75q6 -12 22 -34t20 -31q-41 -54 -210 -323q65 2 113 67q16 21 37 58
q25 47 32 57q112 176 141 239q-59 32 -214 137q-131 89 -222 130q-9 -29 -42 -77z" />
    <glyph glyph-name="B" unicode="B" horiz-adv-x="2232" 
d="M1534 898q-50 -5 -61 -7q-8 -2 73 46q45 27 46 -29q-20 -7 -58 -10zM1148 1015q-4 12 -2 22q37 -2 112 -34q70 -30 108 -28q44 3 101 42q74 53 91 60q13 2 15 -16q2 -21 7 -24q-40 -38 -197 -118q-46 11 -117 36q-83 28 -115 37q2 11 -3 23zM1157 908q26 4 72 -12
q57 -20 75 -22q-53 -19 -136 -6q-5 33 -11 40zM1112 970q3 -1 11 -9q6 -5 17 -3q2 -10 -9 -13q-13 -3 -14 -9q6 0 -5 34zM1085 900q23 14 27 30q8 -13 17 -62q-11 5 -74 6q6 11 30 26zM997 932q51 18 75 10q-64 -47 -61 -45q-39 -21 -86 -6q23 23 72 41zM713 1103q5 14 4 25
q153 -93 208 -119q0 -11 -5 -28q-6 -17 -6 -28q-139 68 -203 124q-2 12 2 26zM875 908q-15 -3 -164 28q95 50 164 -28zM706 975q20 13 28 23q15 -9 -15 -30t-42 -15q8 9 29 22zM590 1281q-44 42 -54 50q7 10 33 15q27 6 35 13q6 -6 28 -26q19 -18 28 -29q30 -35 17 -58
q-1 -6 -13 -6q-14 0 -15 -5q-26 14 -59 46zM638 1054q-37 -27 -46 -28q30 28 46 28zM493 1039q-38 21 -59 27q18 17 53 40q41 27 55 39q19 -9 45 -33q29 -26 45 -35q-72 -32 -79 -62q-25 5 -60 24zM473 1148q4 3 6 2q3 2 -6 -2q-5 -4 -22 -18q-17 -16 -29 -23
q-38 -28 -61 -13q23 15 112 54zM552 1262q37 -36 63 -55q0 -8 -7 -22q-5 -12 -4 -23q-34 23 -125 107q-1 13 4 27q7 16 8 24q15 -13 61 -58zM659 1440q35 -40 52 -69q-7 -3 -10 -16q-4 -15 -7 -18q-7 6 -107 118q0 13 7 27q8 18 10 24q10 -14 55 -66zM931 1427
q-28 17 -87 19q-66 1 -60 -36q-46 -12 -79 32q-50 66 -56 70q30 12 90 20q80 10 96 14q57 -55 96 -119zM807 1286q80 -73 186 -141q-13 -35 -22 -51q-103 56 -181 147q3 18 17 45zM841 1099q-68 43 -91 51q12 14 46 17q2 -10 -12 -11q32 -13 76 -46q51 -39 71 -50
q-35 4 -90 39zM1096 1287q50 -42 72 -58q-20 -21 -71 -30q-9 -2 -44 -7q-27 -4 -43 -8q-135 89 -164 130q113 12 175 28q30 -18 75 -55zM1513 1229q-26 -23 -80 -50q-66 -33 -84 -46q-27 8 -87 26q-56 17 -88 25q22 18 83 50q55 30 81 52q82 -23 175 -57zM1232 1127
q86 -25 111 -33q116 45 198 107q8 -2 10 -18q3 -17 7 -21q-29 -33 -198 -125q-193 64 -231 80q2 11 -2 23q-5 14 -4 22q40 -15 109 -35zM1639 1426q68 -22 88 -27q-16 -24 -107 -96q-17 4 -86 27q-53 17 -89 24q13 14 52 46q34 28 49 50q39 -6 93 -24zM1775 1359
q2 -18 8 -22q-68 -70 -124 -102q-1 3 -4 19q-2 12 -7 15q15 18 61 55q40 33 58 58q6 -4 8 -23zM1671 1156q73 53 112 102q32 -44 -17 -83q-78 -63 -78 -64q2 -1 -17 45zM1800 1133q29 -43 -19 -84q-16 -13 -46 -31q-36 -21 -42 -26q5 -30 107 141zM1755 981q10 7 28 25
t28 25q34 26 74 6q-11 -14 -130 -56zM2065 54q16 73 6 114q-5 20 -32 46t-30 44q49 8 58 53q-1 -3 4 117q10 217 -50 259q-141 -79 -198 -84q-138 -12 -310 11q44 12 158 20q108 7 163 25q58 19 124 67q74 54 85 97q15 60 -45 254q-17 7 -78 27q-49 16 -74 29q-4 30 -3 29
q-4 13 -20 11q26 16 17 66q-8 47 -34 64q23 13 13 52q-2 8 -11 32q-6 20 -8 29q-17 5 -128 40q-79 25 -131 39q-153 -152 -333 -243q-160 102 -356 339q-175 -32 -271 -40q-29 -54 -39 -96q-3 -7 19 -31q22 -23 14 -37q-55 -10 -118 -33q-34 -94 -6 -130q-140 -41 -248 -130
q-34 -301 -34 -299q27 -18 118 -68q75 -42 113 -73q-35 -8 -86 -27q-67 -25 -83 -30q-72 -127 -81 -339q-8 -207 47 -366q-32 -4 -79 -23q-3 -15 -15 -47q-10 -29 -13 -49q457 -116 1038 -115q573 1 1039 115q5 62 -45 102q-72 56 -79 67q1 20 22 112zM875 1308
q14 -38 85 -34q30 2 44 15q17 16 6 42q-60 -17 -135 -23z" />
    <glyph glyph-name="C" unicode="C" horiz-adv-x="1914" 
d="M986 167q1 50 -11 66q-46 7 -131 6q-115 -2 -138 -1q-23 -9 -21 -68q2 -65 -10 -79q-15 -6 -66 -5q-46 0 -61 -11q-13 -30 0 -61q286 -28 575 0q6 18 5 51q-10 21 -64 20q-60 0 -73 11q-6 16 -5 71zM1738 640q-39 -2 -155 -1q-100 1 -155 -4q1 -36 -1 -199
q-1 -123 6 -193q53 263 305 397zM1799 121h-427q1 51 -1 288q-1 177 6 281h422v-569zM1585 739q-60 0 -86 12q89 16 173 0q-26 -12 -87 -12zM1844 736q-30 60 -170 75q-117 12 -241 -9q-102 -17 -118 -142q1 9 1 -254q0 -302 10 -326q24 -57 96 -70q31 -6 163 -6
q195 0 229 31q54 47 53 261q0 66 -6 169q-6 108 -6 129q-2 125 -11 142zM211 1262q-6 -6 -3 -12q1 -59 -1 -303q-1 -195 6 -307q94 289 408 441q217 104 664 184q-201 -7 -530 -6q-447 2 -537 1q0 9 -7 2zM857 418q15 -10 12 -33q-5 -24 -22 -27q-15 -3 -30 10
q-16 13 -15 28q1 17 26 25q16 5 29 -3zM123 595q0 20 2 56q1 37 1 50v416q0 183 11 199q20 32 143 34q38 1 102 -1q70 -3 85 -3h732q20 0 89 2q64 2 101 2q118 -2 140 -29q19 -23 19 -98q0 -22 -2 -63q-1 -42 -1 -58v-234h86q-7 59 -2 161q6 145 6 164q0 186 -90 224
q-45 19 -157 17q-27 -1 -94 -4q-57 -3 -85 -3h-1047q-94 -16 -115 -113q-7 -34 -7 -222v-488q0 -197 15 -229q32 -65 137 -78q20 -3 199 -3h864v193h-849q-17 0 -71 -2q-51 -2 -80 -1q-93 1 -113 23q-18 21 -19 88z" />
    <glyph glyph-name="D" unicode="D" horiz-adv-x="1237" 
d="M909 1230h-664q2 -74 -1 -416q-2 -256 9 -406q105 606 656 822zM835 111q-38 1 -119 6q-72 4 -101 4t-101 -4q-80 -4 -118 -5q-144 -3 -189 24q-63 39 -64 364q0 98 6 262q6 166 6 204q0 219 2 233q18 102 118 122q123 24 415 17q312 -6 355 -47q47 -46 47 -259
q0 -62 -5 -177q-4 -115 -4 -153q0 -29 5 -141q6 -109 6 -173q-2 -214 -64 -252q-48 -29 -195 -25zM683 61q3 25 24 32q19 6 36 -10q6 -44 -23 -52q-26 0 -37 30zM592 47q-7 13 1 29q8 15 22 19q16 4 30 -12q6 -44 -23 -52q-23 1 -30 16zM495 54q-4 14 8 29q13 14 27 12
q17 -2 24 -27q0 -26 -30 -37q-25 5 -29 23zM1188 1011q0 240 -15 280q-46 120 -188 140q-18 3 -348 3q-382 0 -414 -8q-129 -29 -160 -150q-14 -55 -14 -280v-566q1 -241 15 -279q46 -119 214 -140q21 -3 337 -3q31 0 105 -3q82 -4 122 -5q149 -2 210 23q122 50 140 272
q6 76 2 207q-6 187 -6 215v294z" />
    <glyph glyph-name="E" unicode="E" horiz-adv-x="2114" 
d="M994 153q1 55 -5 72q-144 33 -286 0q-5 -18 -6 -79q-2 -45 -19 -64q-13 -3 -61 0q-39 2 -57 -10q-6 -10 -6 -34q0 -23 6 -33q426 -12 572 5q15 21 0 62q-14 11 -61 10q-52 -1 -67 5q-11 16 -10 66zM1882 827h-449q1 -49 0 -276q-2 -170 5 -270q78 411 444 546zM1828 71
q-27 1 -80 3q-48 3 -65 3q-23 0 -69 -4q-56 -4 -77 -5q-92 -3 -129 19q-41 24 -45 156q-1 42 1 116q3 88 3 111v219q0 101 5 123q13 63 71 76q22 5 276 5q17 0 70 2q47 1 73 1q82 -2 107 -23q36 -31 37 -175q0 -43 -3 -120q-3 -79 -3 -103q0 -33 3 -121q2 -77 1 -117
q-3 -126 -45 -150q-30 -18 -131 -16zM1744 59q23 5 26 -18q0 -19 -15 -23q-14 -4 -26 8q-7 28 15 33zM1704 26q-11 -10 -23 -9q-11 2 -18 14q-2 21 13 27t28 -7v-25zM1608 22q-6 8 -11 9q1 19 14 26t26 -6q4 -30 -15 -36q-9 -1 -14 7zM2071 674q0 168 -10 194
q-32 82 -129 95q-11 2 -233 2q-265 0 -286 -5q-103 -25 -119 -184q1 16 1 -301q0 -43 -3 -111q-4 -79 -5 -102q-2 -112 24 -170q33 -77 141 -90q14 -2 226 -2q263 0 291 10q88 32 102 177v487zM634 1083q218 104 661 183q-556 -13 -1077 0q1 -56 0 -312q-2 -192 5 -306
q97 284 411 435zM826 357q-27 20 -20 38q6 15 30 20q24 6 38 -4q16 -12 3 -38q-9 -18 -51 -16zM130 585q0 18 1 52t0 47v225q0 15 -3 95q-3 82 -3 132q-1 171 32 196q19 16 153 16h893q21 0 89 2q65 3 102 2q122 -1 146 -30q27 -32 19 -132q-11 -122 -3 -159h86q0 25 2 117
q1 72 -2 112q-10 120 -76 154q-40 20 -152 20q-32 0 -96 -2q-62 -3 -89 -3h-1057q-112 -18 -129 -175q2 16 2 -310q0 -73 3 -210q3 -123 2 -178q-2 -122 -2 -117q4 -63 32 -97q35 -41 135 -50q18 -1 177 -1h842v194h-827q-16 0 -70 -2q-51 -1 -79 -1q-92 1 -111 23
q-16 19 -17 80z" />
    <glyph glyph-name="F" unicode="F" horiz-adv-x="2081" 
d="M454 324q-57 28 -72 31q39 63 81 64q26 0 72 -22q53 -26 69 -29q-41 -59 -74 -64q-28 -3 -76 20zM443 439q-18 -4 -53 -35q-37 -32 -35 -49q2 -21 77 -49q69 -27 95 -25q29 2 68 35q38 33 36 52q-2 18 -74 44q-91 33 -114 27zM940 472q20 -2 81 -23q-17 -39 -53 -50
q-38 -12 -78 16q0 3 50 57zM940 493q-23 -4 -45 -33q-8 -10 -18 -25q-11 -19 -14 -23q74 -47 107 -40q27 5 78 80q-85 44 -108 41zM701 479q12 35 53 43q39 8 72 -16q-2 -4 -47 -54q-45 12 -78 27zM727 445q33 -17 55 -13q18 3 43 34q23 29 28 47q-49 42 -106 27
q-57 -14 -72 -68q-10 4 52 -27zM533 540q8 12 24 26q22 18 27 24q13 -2 64 -20q-5 -16 -24 -30q-25 -18 -30 -24q-50 13 -61 24zM503 536q14 -20 94 -40q8 7 22 17q18 13 23 16q25 20 33 44q-9 10 -91 37q-66 -48 -81 -74zM365 593q13 35 48 45t67 -14q-6 -12 -57 -51
q-44 13 -58 20zM338 590q57 -41 88 -37q19 3 48 32q27 27 33 45q-75 36 -91 34q-41 -5 -78 -74zM910 1111q208 170 215 175q11 7 13 6q281 -54 672 -134q6 -7 -1 -16q-2 -2 -7 -6l-5 -5l-393 -393q-270 -269 -424 -417q-110 39 -354 127q-229 82 -355 125q15 20 104 94
q398 332 535 444zM1098 399q112 111 328 329q217 219 324 326q94 94 104 114q-112 32 -359 77q-39 7 -186 38q-113 23 -181 33q-4 1 -13 -7q-83 -68 -418 -342q-260 -214 -416 -343q-42 -35 -47 -57q284 -110 652 -239q90 -31 98 -30q15 2 114 101zM1437 583
q-49 -49 -140 -148q-91 -100 -145 -154q-18 -18 -80 -88q-49 -56 -84 -84q-104 -87 -243 -77q-90 7 -339 115q-78 33 -155 70q-98 47 -124 70q-58 49 -57 132q5 3 10 -6q10 -19 10 -18q21 -26 78 -50q15 -7 49 -19q33 -12 48 -18q151 -64 299 -118q131 -47 158 -50
q114 -12 206 50q34 22 140 128q131 131 394 399t396 401q10 10 34 32q24 21 35 33q39 40 48 79v10q5 -3 10 -3q32 -64 -18 -130q-17 -22 -51 -54q-45 -44 -52 -51q-354 -378 -427 -451zM622 925q314 252 422 341q116 94 108 89q68 44 148 38q-5 1 336 -57q18 -3 164 -30
q13 -2 41 -6q26 -3 40 -6q46 -9 71 -32q-13 -28 -121 -141q-177 -183 -773 -780q-114 -113 -132 -126q-88 -63 -201 -52q-35 4 -171 54q-46 17 -316 128q-9 3 -39 14q-28 9 -44 16q-53 23 -58 50q-9 41 28 87q20 25 72 68q161 132 425 345zM1966 1312q-27 11 -92 24
q-114 23 -400 71q-171 28 -211 27q-74 -3 -137 -47q-22 -15 -53 -43q-43 -37 -52 -45q-45 -36 -435 -349q-260 -208 -432 -353q-67 -56 -90 -92q-37 -57 -25 -130q13 -73 79 -121q23 -17 133 -71q83 -40 172 -77q12 -5 88 -39q54 -24 92 -37q109 -38 213 -28q99 9 181 75
q28 22 128 130q132 142 134 145q119 118 341 359q223 241 338 356q52 52 68 78q32 52 23 111q-16 36 -63 56z" />
    <glyph glyph-name="G" unicode="G" horiz-adv-x="2048" 
d="M1457 420h148q-13 -14 -39 -32q-37 -24 -42 -28q-48 -37 -53 -89q18 -11 -14 149zM1412 479q-19 -39 -17 -132q4 -131 2 -150q51 -19 149 -19q97 0 149 19q23 116 -15 282h-268zM1436 27q-75 -1 -211 2q-154 4 -215 4t-210 -4q-134 -3 -207 -2q-236 3 -371 51
q-37 74 -33 250q6 253 3 285q874 2 1651 0q-40 -558 -29 -535q-139 -47 -378 -51zM679 1084q478 -25 480 -25q39 0 234 9q149 7 230 0q115 -10 169 -49q64 -47 51 -138h-1651q-11 61 11 108q23 51 78 70q112 40 398 25zM1603 1202q-86 4 -231 -2q-172 -7 -213 -7
q-832 0 -893 -15q-137 -34 -178 -119q-57 -117 -57 -519q0 -401 57 -507q66 -123 383 -133q100 -3 286 5q211 9 283 9q70 0 276 -7q175 -6 267 -3q288 9 350 114q51 87 54 527q3 447 -54 544q-62 103 -330 113z" />
    <glyph glyph-name="H" unicode="H" 
d="M18.5 1568q-16 0 -27 -11t-11 -27v-82h-200q-34 0 -57 -23t-23 -57v-1120l-2 -360q0 -34 23 -57t57 -23h1440q32 0 56 23t24 57l2 320v40v1120q0 34 -23 57t-57 23h-200v82q0 16 -11 27t-27 11h-84q-16 0 -27 -11t-11 -27v-82h-136v74q0 18 -14 32t-32 14h-68
q-18 0 -32 -14t-14 -32v-74h-120v74q0 18 -14 32t-32 14h-68q-18 0 -32 -14t-14 -32v-74h-144v82q0 16 -11 27t-27 11h-84zM-101.5 1288h82v-82q0 -16 11 -27t27 -11h84q16 0 27 11t11 27v82h144v-74q0 -18 14 -32t32 -14h68q18 0 32 14t14 32v74h120v-74q0 -18 14 -32
t32 -14h68q18 0 32 14t14 32v74h136v-82q0 -16 11 -27t27 -11h84q16 0 27 11t11 27v82h82q16 0 27 -11t11 -27v-1002l-2 -242q0 -16 -11 -27t-27 -11h-1204q-16 0 -27 11t-11 27l2 202v40v1002q0 16 11 27t27 11zM-19.5 1048v-120h1040v120h-1040zM-19.5 848v-120h720v120
h-720zM-19.5 648v-120h840v120h-840zM-19.5 448v-120h960v120h-960zM-19.5 248v-120h600v120h-600z" />
    <glyph glyph-name="I" unicode="I" 
d="M280 752h-200l-100 -60l100 -60h200v120zM720 752v-120h200l100 60l-100 60h-200zM502 52l118 120q50 56 50 66q0 14 -50 14h-240q-38 0 -47 -9t4 -26t35 -39q6 -4 8 -6zM500 1332l-140 -140q-16 -18 -23 -26t-11 -17t5 -13t29 -4h280q22 0 30 5t3 15t-12 18t-21 22z
M500 1332l-26 -120l-62 -294q-58 -22 -97 -69t-53 -107l-220 -50l220 -50q12 -58 50 -104t92 -68l96 -418l96 418q54 22 92 69t50 105l220 48l-220 48q-12 60 -52 108t-98 70l-62 294zM500 802q46 0 78 -32t32 -78t-32 -78t-78 -32t-78 32t-32 78t32 78t78 32zM500 1572
q-180 0 -342 -70t-280 -188t-188 -280t-70 -342t70 -342t188 -280t280 -188t342 -70q364 0 622 258t258 622q0 180 -70 342t-188 280t-280 188t-342 70zM500 1392q190 0 351 -94t255 -255t94 -351q0 -290 -205 -495t-495 -205q-190 0 -351 94t-255 255t-94 351t94 351
t255 255t351 94z" />
    <glyph glyph-name="J" unicode="J" 
d="M516 1569q-16 0 -32 -2q-204 4 -370 -135t-198 -339q-6 -42 -7 -91t0 -109t1 -90h-49h-55h-46q-14 0 -18 -7t-2 -23v-58v-886q4 -16 19 -19t38 -1t33 0h1410q16 6 19 21t1 37t0 32v432v432q2 28 -6 34t-32 6h-12h-52h-58v71v78t-3 72t-9 78t-17 69t-29 70
q-70 148 -215 238t-311 90zM514 1377q110 0 207 -56t145 -154q20 -40 30 -89t11 -85t0 -95t1 -89h-808q0 28 -1 91t0 99t13 86t34 90q48 92 141 147t197 53q14 2 30 2zM510 553q60 0 98 -48q52 -46 52 -114q0 -46 -26 -85t-66 -57q0 -8 2 -16l40 -196h-230l40 186q4 16 4 30
q-38 20 -61 57t-23 81t24 82q14 28 40 46q42 34 96 34h10z" />
    <glyph glyph-name="K" unicode="K" horiz-adv-x="2017" 
d="M1654 578q-12 -29 -47 -34q-31 -4 -55 11q-21 13 -63 91q-47 87 -65 91t-39 -11q-21 -14 -24 -32q-4 -26 19 -66q7 -12 20 -31q15 -22 18 -28q51 -82 60 -122q23 -100 20 -94q11 -21 41 -48q37 -33 47 -46q8 -11 21 -33t22 -32q31 20 185 108q-27 42 -25 130q1 22 4 75
q4 48 4 74q-1 165 -134 293h-6q0 3 -3 2v-298zM518 408q6 45 10 56q10 34 59 114q3 5 17 24q13 18 20 30q22 39 17 65q-3 17 -24 30q-20 12 -35 10q-18 -2 -36 -34q-6 -10 -15 -29q-11 -21 -15 -28q-32 -60 -47 -75q-34 -36 -81 -27q-36 6 -41 66q-1 20 0 56q1 50 1 57
q0 139 -5 153q-106 -112 -126 -199q-10 -49 -5 -195q4 -126 -23 -180q28 -16 94 -54q60 -35 94 -54q9 38 58 83q57 52 70 76q8 16 13 55zM391 1181v-501q0 -76 11 -91q47 4 86 92q40 89 82 96q39 6 73 -17q32 -22 38 -54q6 -29 -10 -66q-4 -9 -15 -30q-10 -19 -15 -29
q71 -1 371 0q226 0 349 -3q-2 7 -27 58q-19 36 -15 64q4 36 39 60q37 25 77 17q41 -8 81 -101q39 -88 87 -87q9 68 9 396q0 332 -6 401q-230 4 -600 3q-494 -1 -604 0q-6 -3 -8 -9q-3 -33 -3 -199zM1864 330q16 5 27 0q6 -3 42 -65q37 -63 34 -74q-2 -11 -76 -54
q-29 -17 -82 -47q-52 -30 -81 -47q-74 -44 -85 -43q-16 1 -51 63q-30 51 -33 61q-10 36 30 50q-13 40 -58 82q-54 49 -67 71q-1 2 -26 111q1 -5 -48 97h-774q-43 -60 -51 -94q-30 -120 -32 -122q-12 -18 -65 -66q-42 -38 -54 -77q3 -6 19 -16q13 -9 15 -21q1 -11 -37 -76
q-36 -61 -48 -63t-89 43q-29 17 -79 47q-53 32 -83 49q-7 5 -22 12q-18 8 -24 12q-28 14 -31 28q-2 11 34 74q32 54 31 52q22 26 52 7q21 31 21 108q-1 23 -3 65q-3 45 -4 61q-3 131 50 227q42 76 132 148v350q0 90 2 100q9 46 52 51h1093q91 0 102 -1q44 -6 55 -39
q2 -8 2 -230v-231q-2 7 52 -45q131 -129 130 -316q0 -23 -3 -62q-3 -47 -4 -62q-3 -74 16 -118q5 -4 19 0z" />
    <glyph glyph-name="L" unicode="L" 
d="M1204 1387.25q-164 164 -397 164t-399 -164q-148 -150 -163 -360t111 -376l-88 -86q-10 2 -22 2q-102 12 -182 -70l-362 -360q-62 -64 -70 -144t44 -131t132 -44t142 69l362 362q70 70 70 158q4 24 0 50l84 84q164 -126 376 -113t362 163q164 166 164 399t-164 397z
M1088 1271.25q116 -116 116 -281t-116 -282t-281 -117t-282 117t-117 282t117 281t282 116t281 -116z" />
    <glyph glyph-name="M" unicode="M" 
d="M-180 1570q-84 0 -142 -58t-58 -142v-1360q0 -84 58 -142t142 -58h1360q84 0 142 58t58 142v1360q0 84 -58 142t-142 58h-1360zM1020 1328l120 -200q-228 -210 -382 -417t-252 -459l-82 -208l-144 176q-44 54 -97 106t-91 86t-107 93t-107 95l130 222q26 -22 99 -87
t131 -117t106 -96q108 210 275 399t401 407z" />
    <glyph glyph-name="N" unicode="N" 
d="M500 1571q-208 0 -354 -146t-146 -354q0 -114 49 -215t133 -171l318 -874l318 874q84 70 133 171t49 215q0 208 -146 354t-354 146zM500 1211q58 0 99 -41t41 -99t-41 -99t-99 -41t-99 41t-41 99t41 99t99 41z" />
    <glyph glyph-name="O" unicode="O" 
d="M-180 1570q-84 0 -142 -58t-58 -142v-1360q0 -84 58 -142t142 -58h1360q84 0 142 58t58 142v1360q0 84 -58 142t-142 58h-1360zM504 1414q194 0 312 -106q118 -108 118 -262q0 -90 -42 -166q-42 -72 -156 -174q-72 -64 -94 -94q-20 -26 -28 -62q-10 -36 -12 -124v-2
q-2 -52 -36 -80q-30 -26 -72 -22q-40 4 -70 30q-30 30 -30 72v48q0 94 28 166v0q20 54 64 108v0q32 38 114 110q76 66 96 104q20 34 20 76q0 76 -60 135t-150 59q-86 0 -142 -54q-58 -54 -78 -174q-6 -50 -43 -81t-83 -27q-48 2 -74 38q-28 40 -16 100q24 184 136 282
q114 100 298 100zM503 244q59 0 101 -42t42 -101t-42 -101t-101 -42t-101 42t-42 101t42 101t101 42z" />
    <glyph glyph-name="P" unicode="P" 
d="M-180 1560q-84 0 -142 -58t-58 -142v-1360q0 -84 58 -142t142 -58h1360q84 0 142 58t58 142v1360q0 84 -58 142t-142 58h-1360zM-36 1308q236 -8 450 -106t369 -258t246 -378t91 -458v-36l-258 8v28q0 252 -121 466t-329 341t-456 133zM-30 854q194 -10 355 -112
t255 -270t94 -364q0 -20 -2 -38l-258 14v24q0 196 -132 336t-324 150zM60 396q66 0 113 -47t47 -113t-47 -113t-113 -47t-113 47t-47 113t47 113t113 47z" />
    <glyph glyph-name="Q" unicode="Q" 
d="M298 1207.5q-12 0 -20 -8t-8 -20v-136q0 -12 8 -20t20 -8h410q12 0 20 8t8 20v136q0 12 -8 20t-20 8h-410zM326 1151.5h354v-80h-354v80zM124 1163.5q-32 0 -46 -30l-206 -442l94 -44l190 414h688l190 -414l94 44l-206 442q-14 30 -46 30h-752zM-80 261.5v-68h1160v68
h-1160zM-150 465.5v-68h1300v68h-1300zM-84 643.5v-410h68v410h-68zM158 669.5v-680h68v680h-68zM1012 669.5v-612h68v612h-68zM740 669.5v-680h68v680h-68zM466 669.5v-680h68v680h-68zM-286 729.5q-24 0 -42 -18t-18 -42q0 -12 4 -22l274 -680q6 -16 22 -27t34 -11h1024
q18 0 34 11t22 27l274 680q4 10 4 22q0 24 -18 42t-42 18h-1572zM-198 609.5h1396l-226 -560h-944z" />
    <glyph glyph-name="R" unicode="R" 
d="M370 1523q-30 0 -50 -20t-20 -50t20 -50t50 -20h10v-122q-258 -44 -429 -245t-171 -465q0 -196 96 -362t262 -262t362 -96t362 96t262 262t96 362q0 264 -171 465t-429 245v122h10q30 0 50 20t20 50t-20 50t-50 20h-260zM500 1123q238 0 405 -168t167 -405t-167 -405
t-405 -168t-405 168t-167 405t167 405t405 168zM500 1057l-66 -96v-428v-16v-8q0 -16 12 -28t30 -12h8h16h40l262 226l30 112l-116 -14l-150 -132v300z" />
    <glyph glyph-name="S" unicode="S" 
d="M-116 1510q-26 0 -45 -19t-19 -45v-1552q0 -26 19 -45t45 -19h1232q26 0 45 19t19 45v1552q0 26 -19 45t-45 19h-1232zM-20 1350h1040v-240h-1040v240zM60 870h160v-160h-160v160zM300 870h160v-160h-160v160zM540 870h160v-160h-160v160zM780 870h160v-160h-160v160z
M60 630h160v-160h-160v160zM300 630h160v-160h-160v160zM540 630h160v-160h-160v160zM780 630h160v-160h-160v160zM60 390h160v-160h-160v160zM300 390h160v-160h-160v160zM540 390h160v-160h-160v160zM780 390h160v-400h-160v400zM60 150h160v-160h-160v160zM300 150h160
v-160h-160v160zM540 150h160v-160h-160v160z" />
    <glyph glyph-name="T" unicode="T" horiz-adv-x="1246" 
d="M957 607q3 -48 -13 -60q-42 -32 -62 21q-17 47 -5 105q-17 5 -60 4q-44 -2 -60 3q-42 47 12 69q47 19 105 8q7 16 3 52q-5 38 0 54q7 26 34 30q26 4 39 -16q10 -16 8 -54q-4 -50 -1 -66q16 -2 47 -1q30 1 43 0q44 -3 47 -36q2 -36 -41 -42q-3 -1 -93 -1q-5 -14 -3 -70z
M1007 976q-138 44 -250 -37q-103 -76 -113 -196q-13 -146 92 -235q108 -91 268 -55q115 41 164 158q50 120 -8 232q-53 102 -153 133zM512 46q-23 3 -41 25q-17 22 -13 43q5 25 39 33q34 7 55 -18q21 -27 2 -59q-16 -27 -42 -24zM524 1346q11 0 39 2q25 1 38 1q43 -1 56 -19
q-20 -10 -147 -10t-146 10q-2 10 6 10q17 6 154 6zM870 357q-2 -23 -2 -79q-1 -52 -4 -78q-77 -1 -273 1q-174 1 -264 -1q-132 -3 -177 7q2 130 -1 524q-2 324 5 499h713q-2 -30 1 -77q3 -49 2 -80q18 2 49 2q33 0 45 1q6 122 -9 187q-18 77 -75 123q-51 42 -160 48
q13 -1 -213 -1h-257q-78 -8 -133 -70q-54 -59 -63 -143q-4 -35 1 -108q5 -77 2 -116q-9 -135 -7 -370q2 -285 0 -353q-4 -166 114 -246q60 -27 356 -27h267q59 9 110 61q51 51 63 112q6 29 4 87q-2 71 0 97h-94z" />
    <glyph glyph-name="U" unicode="U" horiz-adv-x="1016" 
d="M463 909q-34 -80 -48 -90q-17 -4 -45 -7q-38 -5 -51 -7q-4 0 -23 -2q-17 -2 -27 -4q-30 -6 -33 -20q-4 -16 60 -74q64 -59 66 -69q1 -5 -7 -47q-20 -113 -13 -136q38 8 89 37q58 33 84 42q17 -6 84 -45q50 -29 89 -31q8 29 -10 93q-18 65 -13 90q2 8 63 70q60 60 63 73
q8 -5 -186 37q-82 157 -87 163q-24 -2 -55 -73zM517 203q-294 1 -358 0q-4 195 -4 512q1 423 1 516q63 1 355 0q217 -1 350 3q1 0 3 -2q2 -1 4 -1q4 -194 4 -510q-1 -422 -1 -515q-134 -4 -354 -3zM464 94q-9 45 35 56q29 7 46 -6q15 -12 16 -35q1 -22 -11 -40
q-13 -18 -35 -19q-42 -1 -51 44zM382 1348h153q109 0 123 -14q-5 -14 -25 -15q-6 0 -18 1q-13 1 -17 1q-204 1 -229 3q6 17 3 17q3 4 10 7zM968 1031q0 219 -20 267q-40 96 -130 126q-29 10 -276 10q-264 0 -290 -3q-62 -8 -113 -50q-46 -39 -66 -93q-17 -44 -17 -277v-588
q0 -226 20 -277q40 -100 133 -133q38 -13 309 -13q264 0 307 17q100 39 133 153q10 34 10 279v582z" />
    <glyph glyph-name="V" unicode="V" 
d="M-232 604v-780h1520v780h-1520zM-152 524h1360v-60h-650v-560h-60v560h-650v60zM-232 904v-320h1520v320h-1520zM-32 864h120l-120 -240h-120zM248 864h120l-120 -240h-120zM528 864h120l-120 -240h-120zM808 864h120l-120 -240h-120zM1088 864h120l-120 -240h-120z
M-288 1258l58 -314l1494 278l-58 314zM-84 1256l118 22l-74 -258l-118 -22zM190 1308l118 22l-74 -258l-118 -22zM466 1358l118 22l-74 -258l-118 -22zM742 1410l118 22l-74 -258l-118 -22zM1016 1460l118 22l-74 -256l-118 -22z" />
    <glyph glyph-name="W" unicode="W" horiz-adv-x="2030" 
d="M1530 739l52 -93v352q1 216 -3 348h-1118q-6 -2 -6 -9q1 -61 0 -344q-1 -212 3 -341q9 13 21 39q15 32 20 41q25 49 59 65q35 17 74 5q36 -11 63 -42q26 -30 31 -67q4 -40 -20 -73h620q-39 70 5 133q44 61 120 52q44 -5 79 -66zM1625 222q-12 21 -17 28q-8 11 -58 59
q-38 36 -48 70q-3 11 -4 34q-1 25 -4 37q-7 28 -63 119q-58 96 -54 125q3 20 23 32q19 12 40 8q19 -4 37 -38l15 -30q9 -20 13 -29q66 -123 140 -88q24 12 27 66q1 18 0 51q-2 43 -2 54v156q3 1 3 -2q140 -117 140 -299q0 -25 -4 -72q-4 -53 -4 -74q-2 -86 25 -127
q-22 -13 -93 -54q-59 -33 -92 -54q-9 11 -20 28zM657 578q4 12 14 30q13 26 15 31q17 38 11 67q-6 31 -37 53q-33 23 -71 18q-31 -4 -52 -33q-13 -17 -33 -63q-39 -89 -89 -95q-8 34 -8 194v404q0 176 6 199q605 15 1212 0q3 -71 3 -401q0 -326 -9 -393q-32 -1 -54 27
q-14 17 -34 61q-40 93 -83 100q-40 6 -76 -19q-34 -25 -37 -61q-3 -27 15 -62q25 -49 27 -57h-720zM543 461q-3 -10 -11 -60q-5 -39 -17 -57q-11 -17 -67 -70q-45 -43 -55 -80q-30 15 -95 54q-61 35 -96 54q32 51 26 176q-8 151 2 199q16 73 129 199q13 -27 4 -148
q-8 -124 4 -156q9 -23 40 -28q29 -5 54 8q28 15 68 88q49 90 63 94q16 5 38 -6q24 -12 27 -31q6 -29 -27 -86q-10 -18 -27 -43q-17 -26 -20 -30q-34 -59 -40 -77zM1901 330q-7 6 -20 -1q-14 -7 -17 -5q-22 43 -14 211q10 220 -128 353q-54 51 -52 45v348q0 105 -3 113
q-11 33 -68 39q-7 1 -114 1h-1064q-45 -5 -54 -50q-3 -12 -3 -103v-350q-180 -136 -182 -353q0 -23 3 -67q3 -51 4 -70q2 -82 -21 -117q-30 19 -52 -7l-31 -52q-36 -62 -34 -74q3 -13 74 -54q33 -19 86 -49q51 -29 79 -45q77 -45 88 -43q14 2 49 63q37 65 37 74
q-1 13 -15 22q-16 11 -19 17q11 37 59 81q55 51 69 76q10 19 15 53q5 47 7 55q8 30 52 94h771q45 -72 51 -97q25 -110 26 -111q13 -23 66 -72q46 -41 59 -81q-40 -14 -30 -50q3 -8 33 -61q34 -62 51 -63q11 -1 85 43q29 17 81 47q52 29 81 47q75 44 77 54q3 15 -13 40
q-5 7 -14 19q-8 11 -10 15q-33 58 -45 65z" />
    <glyph glyph-name="X" unicode="X" 
d="M500 1495q-116 0 -198 -82t-82 -198q0 -100 62 -176t158 -98v-66h-460l-320 -1040h1680l-320 1040h-460v66q96 22 158 98t62 176q0 116 -82 198t-198 82zM500 1359q60 0 102 -42t42 -102q0 -44 -23 -79t-61 -53v4q0 28 -18 48t-42 20t-42 -20t-18 -48v-4q-38 18 -61 53
t-23 79q0 60 42 102t102 42z" />
    <glyph glyph-name="Y" unicode="Y" 
d="M-179 1570q-84 0 -142 -58t-58 -142v-1360q0 -84 58 -142t142 -58h1360q84 0 142 58t58 142v1360q0 84 -58 142t-142 58h-1360zM63 1326l438 -438l438 438l198 -198l-438 -438l438 -438l-198 -198l-438 438l-438 -438l-198 198l438 438l-438 438z" />
    <glyph glyph-name="Z" unicode="Z" horiz-adv-x="1337" 
d="M864 97q-14 29 -22 37q-38 -20 -33 -18q-13 9 -26 34q-15 30 -21 38q-30 -18 -33 -21q-12 9 -25 35q-14 27 -23 36q-8 0 -17 -6q-10 -7 -16 -8q-18 15 -37 51q-24 46 -31 56q-7 -3 -18 -9q-12 -7 -18 -9q-7 3 -13 15q-7 14 -11 18q-8 -1 -19 -9t-20 -9q-5 10 -20 34
q-12 21 -18 34q28 27 110 66q-2 5 18 -33q9 1 21 9q11 8 20 9q6 -13 20 -36q14 -24 19 -35q16 3 39 20q-41 78 -139 244q-92 157 -138 245q8 5 33 19q21 12 32 20q3 1 5 -1q3 -2 4 -2q145 -250 191 -331q12 3 36 21q-8 23 -29 57q-23 38 -31 56q11 8 36 21q24 13 36 21
q49 -82 86 -149q4 1 39 21q-10 20 -31 57q-22 37 -32 56q76 42 75 42q11 -22 83 -146q4 0 36 18q-8 24 -28 58q-25 40 -31 55q3 2 17 11q10 7 18 10q2 -4 11 -18q6 -11 10 -18q7 2 19 10q11 7 20 8q174 -307 170 -298q-34 -22 -33 -21q8 -20 30 -56t30 -57q-37 -26 -33 -21
q4 -14 20 -38q15 -22 19 -40q-62 -32 -166 -93q-117 -68 -165 -94q-13 9 -26 34zM1253 376q-8 16 -30 53q-20 33 -29 54q3 4 33 21q-30 59 -84 151q-66 112 -86 150q-10 0 -21 -9q-12 -8 -21 -9q-17 30 -24 33q-6 -2 -16 -9t-17 -9q5 -8 -21 36q-12 -5 -37 -20
q-22 -14 -37 -19q-6 3 -21 33q-21 -9 -58 -31q-38 -23 -58 -32q-17 31 -24 33q-14 -5 -36 -19q-23 -15 -36 -20q-19 32 -53 92q-37 65 -54 93q-8 -1 -19 -9q-12 -8 -20 -9q-3 3 -10 18q-6 11 -14 15q-23 -11 -71 -42q2 -6 9 -19q7 -11 9 -20q-31 -18 -33 -23
q31 -57 106 -185q69 -118 106 -185q-15 -14 -36 -21l-24 33q2 1 -146 -84q48 -89 69 -113q14 13 32 18q5 -5 11 -16q7 -13 10 -17q9 1 20 9t19 9q9 -12 32 -55q20 -36 37 -52q6 2 17 9t18 9q33 -61 45 -72q6 1 16 8q9 7 17 7q10 -8 23 -35q12 -26 24 -34q7 2 18 10
q10 7 18 8q11 -20 31 -55q23 -39 32 -55q337 192 411 241q-7 18 -30 55q-21 33 -29 56zM350 1353h131q102 0 120 -9q-3 -14 -23 -16q-6 0 -17 1q-14 1 -17 1h-72q-116 0 -134 8q0 3 1 5q2 3 2 4q3 4 9 6zM317 328q-22 4 -89 2q-63 -1 -81 4q1 81 0 464q-1 286 3 454h638
q1 -32 0 -184q-1 -113 3 -180q44 -9 87 0q-1 46 1 169q2 100 -3 152q-13 155 -111 204q-41 20 -131 21q-27 0 -81 -1q-58 -2 -84 -2h-238q-69 -9 -117 -65q-47 -55 -53 -132v-894q7 -71 55 -126q47 -56 109 -65q51 -8 133 -1q89 6 141 1q-87 72 -137 131q-35 42 -45 48z" />
    <glyph glyph-name="bracketleft" unicode="[" 
d="M-94 275v-110h1188v110h-1188zM-94 461v-110h1188v110h-1188zM-94 647v-110h1188v110h-1188zM-282 733q-34 -2 -58 -26t-24 -60v-668q0 -36 24 -60t60 -24h1560q36 0 60 24t24 60v668q0 36 -24 61t-59 25t-60 -25t-25 -61v-584h-1392v584q0 36 -25 61t-61 25zM-94 833
v-112h1188v112h-1188zM-100 1027v-112h1190l10 400q-230 -144 -542 -214t-658 -74z" />
    <glyph glyph-name="backslash" unicode="\" 
d="M1038 1522.5q-130 0 -222 -90l-282 -284q-70 -68 -86 -165t22 -181l-98 -98q-86 38 -182 21t-166 -85l-282 -284q-90 -90 -90 -220t90 -221t220 -91t222 92l282 282q70 70 86 166t-22 182l98 96q86 -38 182 -21t166 87l282 282q90 90 90 220t-90 221t-220 91z
M1037 1380.5q69 0 119 -50t50 -119t-50 -119l-282 -284q-54 -54 -130 -48l132 130q32 34 32 81t-32 79t-79 32t-79 -32l-132 -132q-4 74 50 128l282 284q50 50 119 50zM246 588.5q2 0 10 -2l-132 -130q-32 -32 -32 -79t32 -80t79 -33t79 34l132 130q4 -74 -50 -128
l-282 -284q-50 -50 -119 -50t-119 50t-50 119t50 119l282 284q50 50 120 50z" />
    <glyph glyph-name="bracketright" unicode="]" 
d="M-164.5 1554q-90 0 -154 -64t-64 -154v-780q0 -88 64 -153t154 -65h398l194 -480q8 -18 27 -31t37 -13q20 0 38 12t26 30l214 482h400q88 0 153 65t65 153v780q0 90 -65 154t-153 64h-1334zM-164.5 1414h1334q32 0 55 -22t23 -56v-780q0 -32 -23 -55t-55 -23h-446
q-18 0 -37 -12t-25 -28l-166 -376l-152 374q-6 18 -25 30t-39 12h-444q-34 0 -56 23t-22 55v780q0 34 22 56t56 22z" />
    <glyph glyph-name="asciicircum" unicode="^" horiz-adv-x="1035" 
d="M469 569q-39 21 -55 47q-17 27 -13 58q4 28 22 48q19 19 44 20q27 1 51 -23q24 30 68 20t51 -47q12 -56 -36 -100q-12 -10 -83 -53q-7 8 -49 30zM631 810q-72 41 -110 65q-227 -138 -220 -133q1 -21 0 -134q-2 -83 7 -125q212 -19 423 0q12 40 11 125q-3 118 -1 137
q-33 20 -110 65zM521 912q34 -21 101 -59q71 -39 102 -58q4 -2 16 -11q11 -8 18 -12q22 -11 39 0q2 27 -30 42q-35 16 -40 31q-1 5 2 38q2 23 -15 32q-26 8 -51 2q-26 -6 -36 -22q-15 8 -52 31q-33 19 -54 29q2 1 -150 -86q-5 -3 -32 -17q-28 -14 -45 -24q-57 -32 -53 -49
q6 -23 37 -8q10 4 22 13q15 10 11 8q78 47 210 120zM877 203q-65 1 -360 0q-221 -1 -355 3v1015q-1 8 6 10h709v-1028zM488 62q-14 12 -18 31q-5 19 4 34q10 18 34 23q27 6 43 -8q15 -12 17 -34q1 -22 -10 -38q-12 -19 -34 -20q-20 -1 -36 12zM579 1348q43 2 62 0l15 -2
q8 -4 8 -15q-6 -12 -28 -12q-6 0 -19 1q-14 1 -20 1q-67 1 -163 0q-4 0 -17 -1q-12 -1 -19 0q-20 1 -23 15q16 9 129 9q17 0 75 4zM977 1015q0 229 -17 273q-40 106 -140 136q-32 10 -269 10q-257 0 -286 -3q-70 -8 -122 -54q-48 -42 -68 -106q-10 -31 -10 -269v-566
q0 -240 10 -273q16 -53 56 -95q40 -43 87 -58q31 -10 303 -10q265 0 303 13q105 37 140 153q13 45 13 273v576z" />
    <glyph glyph-name="underscore" unicode="_" 
d="M597 731q-7 -5 -19 -22q-3 -3 -24 -8q-16 -3 -13 -19q4 -10 21 -8q19 1 26 -5q-1 -79 -4 -100q6 -4 20 -4q15 0 20 4v76q1 59 0 84q-14 12 -27 2zM438 603q-10 15 -12 39q-2 23 5 41q8 20 24 23q27 3 30 -52q4 -54 -20 -62q-16 -4 -27 11zM405 712q-21 -29 -15 -74
t32 -67q30 -25 69 -2q34 20 30 87q-3 67 -43 79q-49 10 -73 -23zM288 532q-13 33 -11 113q2 105 1 117q0 8 7 10q41 -1 228 0q141 1 225 -3q-2 -17 1 -124q1 -77 -11 -113q-210 -9 -440 0zM648 822q-30 -3 -43 22q-9 16 -14 58h-176q10 -41 -4 -63q-12 -19 -35 -16
q-22 2 -37 23q-16 23 -11 56q-84 12 -98 -54q-2 -7 -2 -156q0 -167 4 -176q10 -28 50 -35q14 -2 83 -2h259q97 0 112 3q48 10 51 57q3 33 1 79q-4 62 -4 88q0 135 -4 151q-17 61 -102 42q14 -72 -30 -77zM660 886q-5 48 1 62q-21 18 -35 3q-11 -13 -13 -43q-2 -29 7 -49
q10 -22 28 -17q16 5 12 44zM398 948q-22 19 -36 0q-12 -16 -12 -48t12 -48q14 -19 36 0q-6 48 0 96zM152 203q-5 193 -4 507q1 419 1 511q-1 8 6 10h709q-1 -93 0 -516q1 -317 -3 -512h-709zM495 150q29 7 46 -7q15 -13 17 -37q2 -25 -13 -40q-14 -13 -35 -15q-21 -1 -36 11
q-18 12 -19 35q-4 43 40 53zM591 1344q4 0 16 1q11 1 17 1q20 0 27 -12q-5 -14 -27 -15q-7 0 -20 1q-15 1 -20 1h-79q-129 0 -144 10q0 7 10 13h220zM964 1008q0 232 -17 277q-40 108 -143 139q-32 10 -269 10q-260 0 -287 -3q-130 -17 -179 -146q-17 -44 -17 -267v-565
q0 -255 7 -280q30 -113 136 -156q41 -17 306 -17q263 0 290 7q122 30 155 145q18 64 18 277v579z" />
    <glyph glyph-name="grave" unicode="`" 
d="M440 692q2 14 14 28q29 33 55 15q-52 -40 -59 -67q-12 9 -10 24zM413 675q0 -41 26 -67q24 -24 57 -26q47 -3 75 27q25 27 25 66q0 40 -25 66q-28 29 -75 23q-83 -9 -83 -89zM417 574q-36 34 -40 87q-5 53 25 93q32 44 91 50q61 7 100 -31q36 -34 40 -88q4 -53 -24 -93
q-31 -45 -90 -50q-63 -5 -102 32zM258 774q-2 44 3 53h76q-2 3 3 -49q-19 -7 -82 -4zM740 868q6 -1 -65 -1h-424q-32 -8 -36 -68q-1 -20 1 -60q2 -50 2 -67q0 -10 -1 -50q-1 -31 0 -48q2 -50 17 -62q14 -10 140 -9h275q2 0 36 -1q25 -1 41 0q50 2 62 20q7 11 7 160
q0 133 -4 162q-15 21 -51 24zM732 890q10 16 0 43q-38 10 -64 3q-35 -9 -16 -46h80zM861 207q-65 1 -359 0q-220 -1 -354 4v1011q0 8 7 10h706v-1025zM457 98q-12 45 36 56q27 7 44 -7q15 -12 18 -34q2 -22 -10 -39q-12 -18 -36 -19q-40 -2 -52 43zM626 1345q28 2 23 -14
q-9 -11 -31 -11q-7 -1 -20 0t-19 1h-159q-5 0 -17 -1q-11 -1 -17 -1q-20 1 -26 12q2 14 21 15h18q13 -1 18 -1h209zM960 1026q0 196 -20 263q-30 101 -135 135q-31 10 -272 10q-266 0 -289 -3q-123 -19 -172 -139q-20 -50 -20 -262v-571q0 -251 7 -278q27 -111 132 -162
q41 -20 146 -19q29 0 88 3q55 2 78 2q275 0 305 10q90 30 132 136q20 50 20 279v596z" />
    <glyph glyph-name="a" unicode="a" horiz-adv-x="1032" 
d="M480 63q14 -14 37 -12q23 1 39 17q17 17 14 42q-2 22 -19 34q-18 14 -47 6q-33 -9 -37 -40t13 -47zM161 206q358 -8 715 0q0 94 1 515q0 316 -4 510h-709q-4 0 -3 -10v-1015zM539 1349q-100 -5 -109 -5q-4 0 -16 1t-18 1q-20 -1 -22 -15q5 -12 26 -12q6 0 18 1q14 1 19 1
q102 1 160 0q5 0 19 -1q13 -2 19 -1q22 0 28 12q-2 13 -23 17q-28 4 -101 1zM547 1434q248 0 283 -13q100 -39 133 -150q10 -33 10 -279v-573q0 -222 -17 -269q-40 -115 -146 -143q-25 -7 -293 -7q-255 0 -290 10q-117 34 -148 147q-18 66 -18 282v589q8 236 20 266
q50 121 180 137q27 3 286 3z" />
    <glyph glyph-name="b" unicode="b" 
d="M-14 962h1040v-840h-1040v840zM18 1482q-16 0 -27 -11t-11 -27v-82h-200q-34 0 -57 -23t-23 -57v-1360q0 -34 23 -57t57 -23h1440q34 0 57 23t23 57v1360q0 34 -23 57t-57 23h-200v82q0 16 -11 27t-27 11h-84q-16 0 -27 -11t-11 -27v-82h-136v74q0 18 -14 32t-32 14h-68
q-18 0 -32 -14t-14 -32v-74h-120v74q0 18 -14 32t-32 14h-68q-18 0 -32 -14t-14 -32v-74h-144v82q0 16 -11 27t-27 11h-84zM-102 1202h82v-82q0 -16 11 -27t27 -11h84q16 0 27 11t11 27v82h144v-74q0 -18 14 -32t32 -14h68q18 0 32 14t14 32v74h120v-74q0 -18 14 -32t32 -14
h68q18 0 32 14t14 32v74h136v-82q0 -16 11 -27t27 -11h84q16 0 27 11t11 27v82h82q16 0 27 -11t11 -27v-1124q0 -16 -11 -27t-27 -11h-1204q-16 0 -27 11t-11 27v1124q0 16 11 27t27 11z" />
    <glyph glyph-name="c" unicode="c" 
d="M574 685q-11 -5 -33 -28q-18 -19 -34 -18q-13 0 -31 21q-19 22 -35 25q-113 -89 -163 -136q86 -5 229 -4q192 1 233 0q-12 19 -80 74q-73 59 -86 66zM325 787q-50 42 -87 64v-272q101 66 170 139q-13 10 -83 69zM610 718q81 -81 170 -139q-1 24 1 142q1 88 -8 134
q-54 -51 -163 -137zM627 782q84 68 113 103h-235h-227q0 -5 3 -10q212 -175 226 -187q77 58 120 94zM151 203v1018q0 7 7 10h705q5 -195 4 -512q-1 -423 0 -516h-716zM460 93q-7 40 31 53q33 8 52 -7q17 -13 17 -36q-1 -23 -16 -39q-17 -17 -43 -14q-34 4 -41 43zM521 1344
q115 0 133 -10q-1 -18 -24 -19q-8 0 -21 1q-15 1 -19 1h-159q-5 0 -20 -1q-13 -1 -20 -1q-22 1 -27 15q0 6 4 7q15 7 153 7zM966 1008q0 196 -15 259q-26 103 -121 147q-44 20 -134 20q-26 0 -81 -2q-56 -2 -84 -2q-267 0 -290 -3q-123 -18 -169 -137q-17 -42 -17 -272v-586
q0 -241 13 -279q38 -109 143 -143q31 -10 296 -10q278 0 300 7q107 33 146 149q13 41 13 273v579z" />
    <glyph glyph-name="d" unicode="d" horiz-adv-x="1040" 
d="M681 567q87 -11 120 3q10 38 -4 74q-13 34 -41 55q-29 22 -60 21q-35 -1 -61 -30q40 -71 46 -123zM335 567q1 45 46 127q-29 26 -64 26q-32 0 -60 -22q-63 -48 -46 -128q35 -14 124 -3zM641 517q23 92 -36 160q-35 40 -82 44q-44 4 -85 -23q-40 -27 -59 -73
q-21 -50 -8 -105q71 -12 270 -3zM746 853q-19 17 -51 14q-69 -7 -60 -73q3 -27 24 -41q20 -14 45 -12q26 2 43 18q19 18 18 48q-1 29 -19 46zM362 851q-24 24 -61 16q-42 -8 -50 -43q-7 -33 8 -56q15 -20 41 -26q26 -5 48 5q24 12 30 37q10 42 -16 67zM573 779q20 28 18 64
q-3 38 -28 59q-29 25 -75 15q-37 -7 -54 -36q-16 -25 -11 -58q5 -32 27 -54q25 -23 61 -22q40 1 62 32zM504 203h-353q-4 194 -4 509q1 420 1 512q0 8 6 10h707q5 -196 4 -513q-1 -424 0 -518h-361zM506 50q-47 1 -51 43q-6 51 46 57q29 4 45 -12q15 -16 12 -45
q-4 -45 -52 -43zM515 1348q90 2 136 -7q2 -19 -21 -22q-7 0 -20 1q-16 1 -19 1h-80q-131 0 -150 10q-1 10 10 16q24 -1 144 1zM965 1014q0 198 -17 262q-28 101 -127 141q-40 17 -293 17q-268 0 -290 -3q-118 -18 -167 -137q-20 -48 -20 -270v-580q0 -250 10 -284
q16 -52 58 -96q42 -43 89 -57q22 -7 300 -7q271 0 300 10q111 38 140 150q17 64 17 274v580z" />
    <glyph glyph-name="e" unicode="e" horiz-adv-x="1018" 
d="M610 497q2 3 -28 -30q-16 -18 -12 -27q134 44 176 134h-90q0 -3 -3 -6q-3 -2 -3 -4q-21 -40 -40 -67zM526 574q-10 -52 0 -104q60 53 77 104h-77zM403 574q19 -57 77 -104q10 48 0 104h-77zM259 574q41 -92 181 -134q-7 11 -46 62q-33 41 -45 72h-90zM686 697
q-1 -12 -7 -40q-4 -25 -6 -40h100q16 66 13 80h-100zM640 697h-114q3 8 -3 -77q16 -4 50 -3h53q14 69 14 80zM366 697q-4 -21 13 -80h101q11 40 0 80h-114zM266 697q-34 1 -50 -3q1 -23 17 -77h100q-11 62 -14 80q-8 -1 -53 0zM673 817q13 -78 13 -80q9 1 54 0q33 -1 50 3
q-10 60 -20 77h-97zM623 817h-97q3 8 -3 -77q19 -4 56 -3q51 1 61 0q0 48 -17 80zM363 740q60 -10 120 0v74q-16 4 -50 3h-54q-9 -29 -16 -77zM326 777q5 27 7 40h-100q-16 -54 -17 -77q16 -4 50 -3q45 1 53 0q2 14 7 40zM603 860q-18 53 -77 104q-10 -52 0 -104h77z
M480 860q-3 -9 3 100q-2 1 -5 3q-2 1 -5 1q-69 -99 -70 -104h77zM746 860q-45 93 -180 134q9 -13 47 -65q30 -39 43 -69h90zM436 994q-141 -45 -177 -134h90q51 92 91 124q-2 10 -4 10zM860 203h-714q-4 194 -4 509q1 419 1 512q0 8 6 10q64 -1 358 0q219 1 353 -3v-1028z
M459 129q14 20 44 21q41 2 50 -33q7 -28 -5 -46q-11 -15 -32 -19q-20 -4 -39 5t-24 26q-8 27 6 46zM369 1347h147q114 0 134 -10q-4 -16 -25 -18q-7 0 -20 1q-15 1 -19 1h-80q-130 0 -150 10q0 3 1 5q2 3 2 5q3 3 10 6zM960 727q0 521 -20 570q-41 100 -140 130
q-22 7 -277 7q-262 0 -287 -3q-107 -15 -160 -117q-30 -58 -30 -267v-597q0 -257 10 -290q37 -120 150 -153q23 -7 297 -7q279 0 300 7q47 14 87 56q40 41 56 90q14 39 14 281v293z" />
    <glyph glyph-name="f" unicode="f" horiz-adv-x="1013" 
d="M233 393q-5 -7 -4 -27q1 -28 0 -33h547q12 30 0 60h-543zM236 513q4 3 -7 -60h547q12 30 0 60h-540zM339 880q27 7 74 4q9 -129 0 -257q-60 -2 -74 0v253zM469 787q-7 -3 74 3v-163h-74v160zM666 710v-83h-73q0 7 -1 44q0 27 4 39q24 9 70 0zM780 977q-102 4 -272 4
q-226 -1 -275 -1q-4 0 -4 -10v-396q50 0 278 -1q170 -1 273 4v400zM776 1040q12 30 0 60h-543q-5 -7 -4 -28q1 -27 0 -32h547zM863 203h-717v1021q0 7 7 10q64 -1 357 0q219 1 353 -4v-1027zM535 57q-18 -11 -41 -4q-24 6 -35 24q-13 21 -3 46q9 23 43 27q25 3 41 -11
q18 -14 16 -42q-1 -28 -21 -40zM516 1347q115 0 134 -10q-2 -17 -58 -19q-18 0 -49 1q-35 1 -44 1q-15 0 -47 -1q-28 -1 -41 -1q-42 1 -55 19q3 1 7 5q3 5 6 5h147zM960 1017q0 225 -17 270q-39 104 -130 137q-28 10 -280 10q-267 0 -294 -4q-64 -8 -113 -51
q-43 -38 -63 -92q-17 -44 -17 -277v-587q0 -223 17 -270q42 -118 150 -146q25 -7 286 -7q276 0 291 3q121 28 160 167q10 36 10 273v574z" />
    <glyph glyph-name="g" unicode="g" horiz-adv-x="1107" 
d="M889 851q-54 42 -77 61q-72 58 -83 60q-22 3 -21 -59q1 -80 -3 -91q-18 -1 -124 1q-76 1 -115 -8q-21 -98 0 -193q36 -9 119 -7q91 3 124 -3q2 -12 -2 -86q-3 -52 18 -60q16 -6 44 17q8 7 22 20q13 13 17 16q31 25 81 63q53 40 83 64q73 58 73 73q-1 13 -29 35
q-8 6 -25 17q-14 10 -19 14q-30 25 -83 66zM523 52q-48 4 -47 51q0 37 40 47q34 8 53 -11q18 -19 10 -52q-10 -40 -56 -35zM585 1349q24 1 37 1q39 -1 53 -16q-5 -14 -28 -15q-7 0 -20 1q-14 1 -18 1q-197 0 -227 7q7 21 61 22q17 1 51 -1q38 -1 52 -1q11 0 39 1zM885 469
q-4 -277 -3 -266q-65 1 -357 0q-219 -1 -352 3q-9 513 0 1025h712v-101v-98q1 -65 0 -64q1 -3 47 -40q45 -35 53 -36q-4 48 2 210q4 123 -15 179q-20 58 -67 99q-51 47 -116 54h-523q-77 -9 -132 -71q-54 -61 -61 -145v-752q0 -202 4 -241q13 -114 73 -168q47 -44 146 -53
q36 -4 203 -4h239q120 9 174 60q62 60 72 199q3 48 2 134q-1 121 -1 149q-27 -8 -100 -73z" />
    <glyph glyph-name="h" unicode="h" horiz-adv-x="957" 
d="M508 176h95v175q-53 7 -95 0v-175zM457 176v175q-85 33 -94 -48q-2 -22 1 -71q2 -43 -1 -56q14 -4 94 0zM208 208q43 -51 112 -39q-9 53 5 169q12 101 -5 143q-7 -5 -58 -69q-34 -43 -80 -47q-22 -100 26 -157zM711 480q18 -22 24 -29q31 -33 42 -21q-2 15 1 88
q1 55 -9 79q-9 -15 -42 -45q-29 -26 -37 -49q6 -6 21 -23zM243 463q41 27 40 47q0 18 -41 44q-51 33 -60 43q1 -16 -1 -99q-2 -61 8 -89q8 23 54 54zM378 401q14 -1 147 2q90 3 121 -23v-204q86 -13 115 41q24 43 16 141q-25 11 -85 75q-47 52 -104 55v124h-210v-211z
M707 595q54 54 70 68q9 92 -17 135q-31 50 -114 39q-1 14 -14 -305q33 20 75 63zM603 663v174h-95q1 -25 -4 -92q-3 -49 4 -90q97 9 95 8zM457 655v182q-90 24 -96 -56q-2 -24 4 -68q6 -47 5 -58h87zM260 596q45 -51 74 -64q-13 319 -14 305q-89 13 -121 -39
q-27 -45 -17 -143q36 -12 78 -59zM73 10q-15 169 -15 1066q0 17 -1 89q-2 65 -2 104q2 124 25 148q531 30 617 7q54 -14 122 -80q69 -68 81 -123v-312q0 -744 -15 -899q-397 -20 -812 0z" />
    <glyph glyph-name="i" unicode="i" 
d="M900 448h-240v1120h-320v-1120h-240l400 -640z" />
    <glyph glyph-name="j" unicode="j" 
d="M660 1439l162 -156l-542 -542l326 -326l542 542l168 -172l52 734zM636 1231h-914q-36 0 -63 -26t-27 -64v-1224q0 -38 27 -64t63 -26h1290q36 0 63 26t27 64v854l-180 -178v-586h-1110v1044h644z" />
    <glyph glyph-name="k" unicode="k" 
d="M54 1482.5q0 -45 -32 -77t-76 -32t-76 32t-32 77t32 77t76 32t76 -32t32 -77zM110 1257.5q110 94 246 97t300 -97q70 -36 128 -56t123 -28t129 13t126 71v-728q-206 -152 -506 0q-10 4 -53 20t-58 21t-55 18t-61 15t-59 7t-65 -1t-62 -13t-67 -25t-66 -42v728z
M-54 1299.5q26 0 45 -18t19 -46v-1370q0 -26 -19 -45t-45 -19t-44 19t-18 45v1370q0 28 18 46t44 18z" />
    <glyph glyph-name="l" unicode="l" horiz-adv-x="832" 
d="M508 94q42 8 45 10q4 33 -10 60q-20 3 -47 -7q-5 -49 12 -63zM264 268q-7 50 -11 72q26 39 187 277q113 169 187 277q19 -117 51 -319q35 -232 50 -320q-53 -6 -453 -58q-4 24 -11 71zM608 173q23 8 46 6q3 -12 4 -28q-32 -6 -47 -6q-4 26 -3 28zM491 71q-18 73 -14 108
q60 11 79 10q19 -68 14 -106q-32 -14 -79 -12zM384 142q21 4 46 6q4 -9 4 -28q3 1 -45 -8q-7 10 -5 30zM573 1229q2 -6 13 -71q11 -70 11 -71t-22 -42q-50 -94 -159 -300q-101 -194 -158 -299q-1 -2 -3 -5q-3 -3 -3 -5q-4 -5 -5 -4q111 265 326 797zM124 1250q-11 0 233 -10
q-104 -428 -145 -600q-41 255 -88 610zM190 455q7 2 6 -11q-6 -1 -6 11zM192 476q15 5 0 11v-11zM188 514q1 -5 -3 -7q-4 0 -4 5q-1 6 3 6q4 1 4 -4zM173 445q-1 5 3 6q4 -1 4 -5q1 -5 -3 -6t-4 5zM176 544q-1 6 3 6q4 1 5 -5t-3 -6t-5 5zM173 581q5 2 6 -3t-2 -8
q-6 1 -4 11zM176 478q0 -5 -3 -7q-4 1 -5 6q0 5 3 7q4 -1 5 -6zM171 510q1 -5 -1 -7q-6 0 -6 5q-1 4 2 7q4 0 5 -5zM166 542q1 -5 -1 -8q-4 -1 -5 11q5 2 6 -3zM162 566q-7 -2 -7 11q7 1 7 -11zM85 1069q-2 16 3 26q16 8 19 -20q3 -29 -13 -29q-8 6 -9 23zM95 1152
q1 -20 -14 -22q-8 10 -9 29q-1 22 14 23q8 -12 9 -30zM83 1239q2 -25 -14 -25q-8 7 -9 29q0 24 12 23q10 -2 11 -27zM329 1319q52 -4 71 -5q24 -1 22 0q13 -3 9 -17q-31 -1 -83 2q-71 4 -85 4q-8 17 1 19q21 0 65 -3zM598 1272q-11 72 -12 76q-17 44 -57 56q-18 6 -99 11
q-40 3 -101 7q-81 5 -101 6q-101 6 -103 6q-21 -2 -48 -19q-26 -17 -33 -33q-10 -21 11 -167q17 -123 72 -512q66 -461 73 -508q22 -151 31 -164q21 -31 75 -31q23 0 98 12q114 19 224 37q102 16 111 20q47 23 28 139q-73 455 -169 1064z" />
    <glyph glyph-name="m" unicode="m" horiz-adv-x="1423" 
d="M750 846q-305 -162 -473 -248q116 73 500 315q309 195 500 314q-15 -36 -50 -131q-138 -71 -477 -250zM532 315q-257 42 -377 60q8 17 35 70q21 43 34 70q638 274 933 404q-46 -130 -123 -331q-114 -300 -126 -333q-131 21 -376 60zM629 191q2 4 6 14q4 9 5 15
q34 0 85 -13q0 -7 -5 -16q-5 -11 -6 -15q-55 4 -85 15zM522 145q-8 -4 -72 7q-56 10 -66 17q21 70 48 109q54 6 138 -21q0 -14 -20 -59q-22 -51 -28 -53zM263 267q6 9 7 14q4 0 75 -11q0 -7 -4 -16q-6 -11 -7 -13q-19 0 -75 11q0 7 4 15zM388 78q-40 8 -41 8q-19 7 -11 27
q17 -3 89 -13q61 -10 92 -16q39 -8 33 -31q-24 0 -162 25zM932 1262q2 -2 -3 -6q-13 -9 -10 -7q-278 -231 -544 -448q-13 -10 -15 -9q37 73 125 252q79 162 126 251q303 -31 321 -33zM1031 1319q51 -5 57 -9q-6 -12 -24 -11q-6 1 -17 3t-16 3q-173 17 -195 22q-1 7 4 9
q29 0 191 -17zM1303 1379q-13 3 -85 10q-353 34 -343 34q-148 14 -177 11q-52 -7 -79 -35q-16 -16 -43 -70q-46 -91 -125 -249q-80 -160 -128 -255q-40 -81 -125 -249q-85 -169 -127 -254q-31 -62 -32 -78q0 -14 17 -59q16 -43 43 -59q21 -13 79 -24q296 -53 527 -92
q125 -21 170 2q32 17 50 49q7 13 29 71q120 319 385 1053q25 68 26 77q6 51 -7 81q-12 27 -55 36zM358 102q0 -2 2 -6t2 -7q21 -4 81 -14q52 -9 81 -15q2 15 -29 20q-18 3 -137 22zM458 176q32 -6 42 -4q15 4 23 28q2 6 5 20q3 12 5 17q-55 24 -88 11q-1 -7 -15 -30
q-12 -19 -7 -29q3 -6 35 -13z" />
    <glyph glyph-name="n" unicode="n" horiz-adv-x="4445" 
d="M372 429q-52 40 -81 57v-43q26 -18 83 -62q52 -40 83 -61q-3 8 -4 52q-29 17 -81 57zM625 511q62 1 141 31q-25 57 -112 56q-68 -1 -142 -32q30 -55 113 -55zM3322 854q-352 20 -2161 115q563 -5 1403 -22q137 -3 709 -15q436 -9 710 -14q-51 -8 -175 -43
q-109 -30 -173 -36q-13 -2 -313 15zM1351 324q2 0 -103 68q-456 295 -712 478q60 4 177 33q120 31 175 35h4q38 -4 2244 -210q-255 -57 -833 -190q-547 -125 -841 -190q-109 -24 -111 -24zM846 410q-29 19 -41 37q52 21 97 4q30 -10 73 -48q-11 -9 -38 -14q-37 -7 -45 -9
q-5 4 -46 30zM497 507q-69 55 -76 59q27 19 147 43q113 23 162 24q12 -10 68 -45q42 -28 63 -50q-228 -59 -269 -63q-50 -5 -95 32zM411 330q-59 35 -74 47q-81 61 -66 149q-1 0 103 -75q88 -64 85 -61q33 -36 18 -109q-21 21 -66 49zM486 669q-38 12 -61 47q86 35 147 -40
q-44 -20 -86 -7zM3237 1246q148 -64 231 -99q-329 -18 -916 -37q-662 -22 -920 -34q245 52 686 136q489 93 687 133q71 -29 232 -99zM3658 1179q131 -54 178 -83q-47 -3 -106 22q-17 7 -48 23q-32 16 -47 22q-26 11 -98 39q-61 24 -96 40q-5 7 0 8q42 1 217 -71zM4295 1068
q-26 11 -70 27q-45 16 -56 21q-90 36 -479 190q-22 8 -104 44q-63 27 -105 41q-124 42 -250 33q-50 -3 -420 -75q-555 -108 -2010 -384q-579 -110 -601 -114q-131 -29 -158 -84q2 -18 0 -98q-1 -63 11 -95q6 -16 80 -72q50 -38 435 -336q156 -121 178 -131q102 -45 246 -32
q69 6 241 44q570 127 1483 346q1156 278 1469 351q14 3 50 10q33 6 52 11q59 15 91 46q-3 25 10 101q12 68 2 93q-10 28 -95 63z" />
    <glyph glyph-name="o" unicode="o" horiz-adv-x="913" 
d="M229 153q-9 -27 12 -45q22 -19 46 -5q24 13 22 40q-1 18 -16 29q-12 10 -29 8q-13 -1 -23 -9q-9 -8 -12 -18zM616 155q-10 -26 11 -46t47 -5q24 13 22 40q0 7 -5 15q-12 24 -39 22q-13 -1 -23 -8q-9 -7 -13 -18zM412 183q-19 -22 -17 -51q2 -27 22 -45q22 -19 51 -16
q27 2 45 22q19 21 17 50q-3 27 -22 45q-21 19 -51 17q-15 -1 -26 -7t-19 -15zM103 1217v-939q0 -10 1 -13q4 -13 27 -13h644q38 0 43 11q1 4 1 26v939q0 16 -6 21t-21 5h-644h-27q-13 -2 -17 -11q-1 -3 -1 -26zM646 1434h26q18 -1 27 -1q117 0 142 -20q15 -12 21 -33
q5 -14 5 -49v-1247q0 -25 -10 -44q-16 -33 -68 -40h-656q-73 7 -80 78v1278q2 28 16 46q13 17 37 25q18 6 56 6q211 0 310 1h174z" />
    <glyph glyph-name="p" unicode="p" horiz-adv-x="763" 
d="M157 187v0v816q-1 1 0 1h499q1 -157 1 -408q-1 -335 -1 -409h-499zM396 58q-20 2 -34 15q-16 16 -13 39q2 13 12 25q14 13 36 15q32 3 48 -22q14 -21 3 -44q-14 -30 -52 -28zM714 952q0 44 -1 52q-8 68 -59 99q-19 11 -40 12q-6 1 -52 1h-315v77q11 -1 -59 0
q-1 -14 -1 -39v-39q-61 -15 -83 -80q-8 -24 -8 -74v-816q0 -44 11 -71q25 -66 89 -74h418q41 5 68 37q26 32 31 75q1 7 1 51v789zM163 1205q26 21 54 21q23 0 42 -14q11 -9 10 -9q1 0 6 5q2 3 8 9q5 5 8 7q-33 34 -79 31q-40 -2 -69 -28q7 -9 20 -22zM328 1289q0 1 -11 10
q-47 41 -108 37q-61 -3 -103 -44q25 -26 31 -32q37 33 80 32q45 -1 79 -34q5 6 24 23q8 7 8 8zM335 1317q7 5 18 17q12 12 18 17l13 12q0 -1 -8 7q-58 58 -148 64h-23q-88 -6 -154 -66v-1q0 -1 46 -48q54 48 120 48q65 0 118 -50z" />
    <glyph glyph-name="q" unicode="q" horiz-adv-x="1196" 
d="M1038 532q-19 154 -103 177q-12 11 -29 4q-28 -10 -29 -10q-6 34 -48 47q-42 14 -74 -8q-7 35 -40 51q-35 17 -76 0q-11 -13 -16 -45q-7 -43 -10 -51q-33 55 -81 205q-45 140 -86 200q-68 -7 -63 -69q0 5 31 -118q10 -42 68 -216q43 -128 47 -195q-57 96 -89 126
q-66 62 -149 34q-3 -22 20 -42l38 -35q11 -14 99 -158q60 -99 133 -164q25 -22 68 -64q53 -52 73 -71q12 -11 36 -36q28 -29 40 -41q48 -47 72 -51q65 -12 171 54t106 119q0 23 -29 55q-36 40 -42 55q-10 25 -38 247zM304 1340q8 32 97 30q36 -1 62 -7q28 -7 28 -17
q-38 -27 -187 -6zM265 459q-78 -9 -115 6q1 73 -1 412q-2 254 7 405q44 -1 252 1q155 1 244 -7v-438q12 4 51 -4q42 -9 45 -9q4 77 0 215q-6 204 -6 210q-2 118 -7 129q-22 46 -121 53q-34 2 -92 0q-82 -2 -96 -2q-26 0 -120 3q-72 2 -110 0q-111 -7 -136 -67
q-11 -126 -6 -411q6 -373 6 -419q-1 -94 0 -108q9 -61 51 -79q48 -20 154 -10q124 13 181 4q-5 8 -11 28q-9 26 -12 34q-17 43 -48 53q-30 11 -110 1z" />
    <glyph glyph-name="r" unicode="r" horiz-adv-x="1032" 
d="M645 329h-264v73h264v-73zM172 425q5 -157 4 -243q120 -68 337 -68t337 68q0 63 6 244q4 151 2 247q-145 -48 -346 -49q-203 -1 -343 49q-3 -97 3 -248zM476 1010q-1 -8 1 -55q2 -36 -8 -47h-88q-4 -10 -2 -37q2 -25 -5 -36q107 -11 102 -8v-95h74v103q8 1 56 -1
q35 -2 46 8q-7 2 -5 30q2 30 -2 36h-95v102h-74zM513 57q-261 0 -388 96q-18 950 -22 1055q171 -66 411 -66q241 0 410 66q-14 -439 -23 -1055q-127 -96 -388 -96zM514 1325q129 -2 197 37q34 -86 -147 -102q-72 -7 -148 7q-79 15 -108 44q-4 12 -2 27q1 10 -5 17q2 7 7 11
q6 4 7 -4q75 -36 199 -37zM972 880q6 327 10 438q-69 51 -242 59q-115 71 -271 59q-38 -3 -95 -25q-73 -28 -95 -34q-10 -2 -130 -18q-73 -9 -105 -41q4 -114 10 -451q6 -298 12 -457q12 -289 7 -279q26 -62 206 -103q183 -41 389 -22q245 24 285 132q-5 -14 7 279
q7 162 12 463z" />
    <glyph glyph-name="s" unicode="s" horiz-adv-x="1540" 
d="M725 318q19 47 16 90q-1 4 -16 92q12 20 43 22q31 3 48 -14q-2 -13 8 -16q-30 -86 -8 -174h-91zM528 242q258 -51 493 0q22 199 0 387q-251 47 -493 0q-40 -204 0 -387zM664 682q-16 70 21 113q33 37 89 36q55 0 89 -38q37 -42 21 -111h84q17 112 -48 177q-57 58 -148 57
t-149 -60q-65 -66 -50 -174h91zM1217 126q-29 -1 -77 0q-64 2 -73 2h-554q-21 0 -78 -2q-53 -2 -82 -2q-96 1 -129 27q-45 35 -46 191q0 48 4 124q4 77 4 95v447q-1 22 8 23h1161v-447q0 -22 5 -94q6 -77 7 -121q3 -156 -35 -203q-29 -35 -115 -40zM740 1289q9 -18 9 -57
t-9 -57h-500q-10 23 -10 62q-1 45 17 52h493zM1013 1289q17 -36 8 -106q-16 -9 -53 -9t-53 9q2 21 -2 55q-2 27 2 44q-3 -2 98 7zM1295 1232q0 -40 -16 -57q-101 10 -99 8q-25 135 99 106q16 -17 16 -57zM1484 1016q0 242 -23 288q-56 114 -251 128q-67 4 -191 0
q-163 -6 -210 -6q-535 0 -569 -8q-134 -29 -165 -164q-8 -36 -10 -238v-561q0 -262 15 -304q35 -96 144 -125q70 -19 251 -19h296q27 0 204 -5q129 -4 206 1q226 15 280 125q32 64 30 274q0 60 -4 170q-3 105 -3 141v303z" />
    <glyph glyph-name="t" unicode="t" horiz-adv-x="1543" 
d="M846 438q-11 31 -9 99q3 90 1 108h207q-1 -16 1 -108q2 -67 -9 -99q-187 1 -191 0zM838 987h207v-199h-207v199zM703 788h-207v207q11 -1 207 -8v-199zM703 446q-26 -8 -95 -9q-73 -1 -112 9v199h207v-199zM1244 1035q-9 33 -68 92q-58 58 -91 67q-56 15 -155 9
q-165 -9 -163 -9h-327q-9 -1 -8 -8q-18 -23 -85 -77q-47 -38 -58 -82q1 3 0 -302v-327q10 -35 74 -94q61 -57 93 -65h629q31 9 90 70q61 62 69 97v629zM1300 367q-150 -151 -183 -176q-63 0 -184 1q-111 0 -166 -1q-326 -2 -335 0q-41 10 -107 71q-70 65 -84 112v677
q9 37 69 104q66 73 114 87q-20 -6 406 8q234 7 279 -8q35 -12 106 -77q75 -69 85 -106q15 -55 9 -164q-9 -184 -9 -186v-342zM1483 1083v71q-164 -31 -232 47q-59 70 -47 232q-17 -4 -40 -3q-19 0 -31 -5q-2 -10 1 -65q1 -40 -9 -54h-48v119q-11 9 -40 9t-40 -9q0 -12 2 -33
q2 -24 2 -34q1 -37 -12 -52h-47v127q-78 -6 -80 -8q-3 -23 3 -66q5 -36 -3 -53h-56v127h-71v-127q-67 17 -64 7v120h-71v-127q-67 17 -64 7v120h-72v-127q-66 17 -63 7v120h-72v-199q-64 -102 -271 -80q-5 -15 -4 -34q1 -20 -4 -37q11 -2 69 1q43 1 59 -9q6 -6 3 -26
q-3 -21 -11 -30q-116 11 -112 8q-7 -33 0 -80q7 -1 74 2q45 2 54 -17q3 -12 -3 -22q-7 -10 -5 -18h-120q-9 -40 0 -80q7 -1 74 2q45 1 54 -18q-12 -15 -8 -40h-120q-2 -73 0 -79h120q0 1 8 -56h-128q-6 -6 -1 -29q5 -27 1 -42q13 -10 69 -7q50 2 59 -17q3 -12 -3 -21
q-7 -10 -5 -19h-120v-72q11 -1 69 1q43 2 59 -9q2 -47 -16 -55q-10 -2 -65 1q-41 1 -55 -9q13 -10 7 -32q-6 -23 1 -32q164 26 229 -41q65 -66 42 -237h72v127q66 -17 63 -8v-119h72v127q67 -17 64 -8v-119h71v127q67 -17 64 -8v-119h71q2 10 -1 68q-1 43 9 59h48
q4 -18 1 -53q-3 -43 -1 -67q9 -8 35 -8q49 0 45 1q1 10 -1 68q-2 43 9 59h47v-127h80q1 10 -1 68q-2 43 9 59h48v-127q77 6 79 7q-52 323 271 271v72h-128q17 66 8 63h120v72q-11 1 -69 -1q-43 -2 -59 9v48h128v79q-11 2 -69 -1q-43 -2 -59 9v48h128v79q-11 2 -69 -1
q-43 -1 -59 9v48h128v80q-135 13 -128 8v47h128v72h-128q17 67 8 64h120z" />
    <glyph glyph-name="u" unicode="u" horiz-adv-x="1221" 
d="M949 161q75 -3 74 49q-19 38 -74 33v-82zM949 325v-66q34 -2 49 5q20 9 16 36q-6 30 -65 25zM1105 1049h-66v271h66v-271zM932 342q66 9 107 -33q-19 -39 -14 -62q1 -9 9 -26q9 -22 13 -36q-31 -49 -115 -41q-27 99 0 198zM990 1320v-271q-4 -1 -30 1q-19 1 -20 -9
q-11 44 -9 134q3 121 1 145h58zM883 1049h-66v312h66v-312zM883 152q-82 -20 -132 17q-27 28 -25 69q3 36 27 67q25 30 57 36q36 6 65 -24q-54 24 -88 -3q-29 -23 -31 -69q-1 -45 26 -69q32 -29 84 -7v49q1 12 -6 14q-4 0 -14 -3q-21 -7 -21 14h58v-91zM710 1320
q61 -2 66 -8q-24 -108 0 -263h-66v271zM661 1049h-66v312h66v-312zM529 247q60 53 58 119q-11 31 -60 23q-58 -10 -64 -6q18 40 52 53q31 12 63 -2q33 -13 50 -46q18 -35 8 -79q-6 -30 -48 -62q-47 -37 -59 -62q10 -1 63 1q39 2 52 -9q-2 -41 -74 -36q-104 6 -115 3
q8 45 74 103zM381 1049q6 20 -6 176q-4 50 7 72q14 28 57 23q3 -42 1 -128q-3 -98 -1 -143h-58zM221 177q5 9 4 17q39 -26 73 -17q30 9 41 37q10 29 -9 50q-22 23 -72 20v16q3 18 38 20q37 3 44 13v41q-5 23 -53 17q-50 -6 -54 0q4 42 44 48q36 5 75 -19q40 -23 44 -55
q5 -37 -48 -65q50 -19 55 -57q5 -33 -24 -65t-72 -39q-49 -8 -90 22q-1 7 4 16zM332 1049h-66q2 7 -5 174q-2 50 11 73q16 29 60 24v-271zM488 1320h66v-271h-66v271zM1162 1082q0 24 3 92q3 59 2 91q-4 100 -46 146q-70 8 -419 8q-1 0 -226 13q-136 7 -202 -13
q-46 -14 -62 -66q-12 -41 -9 -118q12 -245 6 -277q-78 -57 -102 -96q-42 -68 -22 -175q9 -1 59 1q37 2 48 -9q29 -68 -27 -119q-74 -68 -80 -87q-24 -81 -7 -222q24 -194 24 -222q83 -27 231 -28q46 -1 135 1q98 2 143 2h264q17 0 65 -2t73 -2q88 0 117 21q30 23 34 136
q2 38 0 100q-2 79 -2 93v732z" />
    <glyph glyph-name="v" unicode="v" horiz-adv-x="1018" 
d="M356 834q-5 -6 -15 -23q-11 -17 -16 -24q-21 -23 -42 10q11 53 64 92q49 36 113 45q53 7 56 -17q4 -22 -21 -28q-7 -2 -21 -3q-15 -1 -21 -2q-62 -15 -97 -50zM303 917q-79 -68 -77 -163q1 -45 23 -82q6 -11 47 -65q-25 -98 -33 -157q31 13 92 45q59 32 91 45
q132 -23 235 42q106 66 106 178q0 109 -100 175q-91 61 -207 52q-104 -8 -177 -70zM867 203h-714q-4 185 -4 509q1 425 1 512q1 1 2 5q2 4 4 5q65 -1 358 0q219 1 353 -4v-1027zM468 69q-11 14 -10 33q2 46 52 48q43 2 50 -37q6 -34 -15 -52q-19 -15 -45 -11q-21 3 -32 19z
M520 1347q117 0 137 -10q-5 -16 -27 -18q-7 0 -20 1h-20h-80q-130 0 -147 14q0 7 10 13h147zM967 1007q0 231 -17 277q-42 113 -147 143q-23 7 -276 7q-270 0 -291 -3q-104 -17 -156 -124q-27 -54 -27 -270v-594q0 -242 13 -283q38 -116 137 -150q29 -10 300 -10
q282 0 304 7q101 31 143 146q17 47 17 274v580z" />
    <glyph glyph-name="w" unicode="w" horiz-adv-x="1016" 
d="M512 651q-15 -25 -42 -18q-16 62 6 124q25 68 81 65q14 -16 2 -55l-26 -65q-19 -48 -21 -51zM317 911q-79 -80 -87 -189q-11 -158 119 -243q129 -84 284 -23q101 39 74 67q-9 9 -39 -7q-46 -25 -41 -23q-44 -16 -80 -17q-98 -2 -162 49q-64 50 -75 138q-18 153 94 239
q93 73 209 41q122 -33 127 -154q3 -72 -23 -118q-32 -57 -100 -48q-3 51 27 122q34 83 39 117q-10 -1 -29 0q-24 1 -30 1q-34 0 -44 -14q-45 29 -95 11q-46 -16 -81 -64q-35 -46 -43 -98q-9 -56 19 -92q26 -34 79 -29q50 5 74 36q37 -45 104 -34q58 8 93 44q69 70 53 193
q-11 89 -86 139t-190 44q-110 -7 -190 -88zM506 203q-221 -1 -355 3q0 93 -1 515q-1 316 4 511q95 -1 359 1q216 1 350 -1q13 -543 3 -1029q-64 1 -360 0zM507 50q-47 2 -50 47q-4 49 50 53q24 2 39 -12q18 -15 14 -45q-5 -44 -53 -43zM520 1345q1 0 32 3q27 2 46 3
q59 0 59 -19q-1 -21 -65 -18q-19 1 -47 4q-27 4 -28 4q-14 0 -42 -2q-30 -2 -41 -2q-6 0 -21 -1q-14 -1 -21 0q-22 1 -28 15q5 14 29 15q8 0 22 -1q16 -1 22 -1h83zM810 1422q-33 11 -143 10q-25 -1 -82 0h-78q-288 -3 -320 -17q-133 -60 -133 -273v-726q0 -235 17 -276
q42 -106 149 -133q26 -7 290 -7q270 0 293 7q114 33 150 159q10 35 10 277q0 123 2 299q1 176 1 283q0 221 -23 273q-41 93 -133 124z" />
    <glyph glyph-name="x" unicode="x" horiz-adv-x="1029" 
d="M372 674q9 0 23 18q11 14 23 8q2 -13 -12 -23q-14 -9 -14 -20q-17 -1 -20 17zM332 644q30 1 83 -2q55 -3 83 -2q-19 32 -86 87q-34 -23 -80 -83zM519 752q18 18 36 18q-24 -45 -60 -56q7 22 24 38zM504 758q-27 -26 -39 -44q13 -7 37 -39q22 -30 43 -35t72 2q54 7 85 2
q-25 28 -73 78q-51 53 -74 78q-1 1 -5 0h-5q-10 -13 -41 -42zM413 820q12 17 10 37q-1 22 -16 33q-17 12 -45 4q-43 -13 -30 -55q13 -41 50 -39q19 1 31 20zM515 597h-237q1 217 7 347q85 -1 242 0h222q8 -174 0 -347h-234zM395 987h-127q-29 -7 -33 -44v-76q0 -43 2 -131
q1 -87 1 -139q0 -125 7 -133q10 -14 120 -14h284q123 0 133 10t10 124q0 324 -7 393q-62 10 -390 10zM158 203q-10 188 -6 506q4 412 3 515q0 8 7 10q64 -1 357 0q219 1 353 -3q2 -965 0 -1028h-714zM546 60q-15 -11 -35 -10q-20 2 -34 14q-15 14 -15 36q-1 44 46 50
q26 3 42 -10q19 -16 15 -47q-2 -21 -19 -33zM525 1347q117 0 137 -10q-4 -15 -25 -17q-7 -1 -19 0q-16 1 -19 1h-81q-130 0 -150 10q-1 10 10 16h147zM953 1280q-27 97 -121 137q-38 17 -307 17q-267 0 -287 -3q-63 -11 -110 -58q-42 -42 -60 -99q-6 -20 -10 -277
q-1 -82 1 -265q3 -220 3 -285q0 -248 3 -264q28 -129 143 -170q38 -13 304 -13q271 0 307 10q42 12 81 52t55 85q14 36 14 283q0 117 1 305q2 187 2 299q0 180 -19 246z" />
    <glyph glyph-name="y" unicode="y" horiz-adv-x="1018" 
d="M671 619q-58 -10 -83 -46q-23 11 -21 29q2 16 22 31q19 15 42 19q25 4 40 -9v-24zM319 567q-22 -4 -29 -11q-12 -19 -13 -20q-10 -9 -27 -6q-14 19 -7 39q6 18 27 31q49 29 83 0q0 -5 -2 -12q-3 -6 -2 -12q-7 -6 -30 -9zM760 973q-2 1 -3 1q-45 -8 -179 -22
q-115 -13 -176 -27q0 -27 1 -153q1 -95 -4 -149q-62 23 -118 6q-60 -18 -64 -69q-5 -50 46 -76q46 -23 100 -14q62 11 76 68q7 24 7 138q0 142 3 169q39 2 139 16q87 12 136 11q-5 -35 -3 -105q1 -79 0 -101q-64 27 -127 3q-68 -26 -56 -93q7 -33 40 -52q30 -17 71 -17
t73 17q35 18 45 49q4 10 4 206q0 160 -7 192q-2 0 -4 2zM864 208h-710q-13 268 0 1025q123 3 347 1q253 -2 363 -1v-1025zM505 155q46 5 53 -37q6 -29 -9 -46q-14 -16 -36 -16q-23 -1 -39 12q-19 14 -19 37q0 45 50 50zM363 1343q2 3 10 6q50 -3 172 -3q94 0 110 -10
q-13 -18 -47 -19q-11 0 -32 1q-22 2 -31 2q-160 0 -182 3v20zM963 1004q0 237 -13 276q-39 113 -143 146q-21 6 -199 6h-189q-199 -4 -216 -10q-149 -53 -149 -258q0 -119 2 -351q1 -232 1 -359q0 -259 4 -273q26 -110 132 -162q41 -20 144 -19q28 0 88 3q55 3 80 3
q280 0 309 10q98 33 136 142q13 38 13 272v574z" />
    <glyph glyph-name="z" unicode="z" horiz-adv-x="1029" 
d="M707 740q9 2 20 1q15 -1 23 -1q24 -24 -3 -41q-26 -17 -47 5q-1 26 7 36zM731 623q-20 -1 -27 7q-12 24 4 36q15 11 42 4q9 -10 7 -36q-6 -9 -26 -11zM757 564q-6 -11 -28 -11q-23 0 -29 11q-10 29 17 36q26 7 40 -10v-26zM710 764q-24 19 -5 38q19 20 49 5q4 -11 3 -33
q-10 -12 -47 -10zM757 844q-6 -11 -28 -11q-23 0 -29 11q-10 29 17 36q26 7 40 -10v-26zM427 607q-9 28 -8 97q3 93 1 113q3 7 10 10q28 -6 147 -77q40 -23 40 -33q0 -14 -39 -35q-11 -6 -30 -15q-18 -8 -21 -10q-83 -48 -100 -50zM307 693q-19 0 -27 7q-16 27 13 39
q28 10 44 -9q1 -16 -4 -30q-7 -7 -26 -7zM307 623q-19 0 -27 7q-16 28 13 39q29 10 44 -9q1 -16 -4 -30q-7 -7 -26 -7zM307 553q-19 0 -27 7q-16 28 13 39q29 10 44 -9q1 -16 -4 -30q-7 -7 -26 -7zM307 763q-19 0 -27 7q-13 26 9 37q19 10 44 0q9 -18 0 -37q-7 -7 -26 -7z
M333 840q-7 -7 -26 -7t-27 7q-13 25 9 37q20 10 44 0q9 -18 0 -37zM665 936q-26 1 -71 -1q-46 -1 -60 -1q-26 0 -98 3q-57 2 -86 0q-87 -5 -110 -53v-187q0 -13 -1 -48q-2 -32 -1 -49q1 -56 19 -76q22 -25 119 -27q30 0 82 1q56 2 72 2q15 0 70 -2q47 -1 75 0q88 2 109 29
q19 25 18 96q0 20 -3 58q-2 36 -2 49q0 116 0 109q-3 64 -27 81q-20 16 -105 16zM160 203v1021q0 8 7 10q64 -1 357 0q219 1 353 -3q-1 -93 0 -516q1 -317 -3 -512h-714zM514 150q24 3 39 -9q18 -14 17 -41q0 -24 -17 -38q-15 -13 -37 -12t-36 15q-15 16 -13 42q3 38 47 43z
M604 1347q4 0 16 1t18 1q21 -1 26 -15q-19 -15 -66 -16q-14 0 -42 1q-29 2 -42 2h-80q-4 0 -19 -1q-13 -1 -20 0q-21 1 -25 17q4 1 7 5q3 5 6 5h221zM960 1284q-35 105 -140 140q-30 10 -280 10q-271 0 -293 -3q-106 -16 -157 -114q-30 -58 -30 -283v-627q0 -228 30 -287
q41 -81 127 -110q29 -10 297 -10q277 0 300 7q102 29 143 143q17 46 17 274v289v291q0 241 -14 280z" />
    <glyph glyph-name="braceleft" unicode="{" horiz-adv-x="1014" 
d="M468 730q2 10 12 20q11 10 22 10q12 0 16 -13q-25 -8 -40 -37q-12 7 -10 20zM450 750q-10 -21 -2 -45q7 -25 27 -38q22 -15 50 -9q24 5 36 28q11 22 6 47q-5 27 -24 40q-22 15 -55 7q-28 -7 -38 -30zM403 805q30 35 79 44q60 11 107 -23q46 -33 52 -89q7 -69 -34 -110
q-36 -35 -93 -36q-56 -1 -97 33q-44 36 -44 96q0 50 30 85zM714 804q-8 18 -11 26q36 24 15 68q-20 43 -58 41q-10 -1 -20 -11q-11 -10 -23 -12q-6 4 -28 11q-18 7 -25 15q7 26 -13 42q-17 14 -44 14q-28 -1 -44 -15q-19 -17 -11 -44q-30 -13 -56 -23q-18 22 -44 21
q-23 -2 -41 -21q-19 -19 -20 -42q-1 -26 22 -44q-5 -7 -12 -28q-7 -19 -14 -25q-26 7 -42 -12q-15 -18 -15 -46q-1 -29 15 -46q17 -19 48 -12q1 -13 9 -28q9 -17 11 -25q-24 -19 -22 -45q2 -24 22 -43q20 -18 43 -19q26 0 43 24q7 -5 27 -12q19 -7 26 -14q-10 -42 29 -54
q32 -10 70 4q16 24 13 53q42 19 57 23q16 -25 42 -24q23 2 42 22t20 44q0 27 -25 44q7 6 13 25q7 19 14 25q5 2 24 4q16 1 22 6q24 33 8 75q-17 42 -58 31q-2 11 -9 27zM510 207q-292 1 -356 1q-4 192 -3 504q1 417 0 508q0 8 7 10h704q1 -176 0 -507v-512q-133 -5 -352 -4z
M457 100q-5 45 38 55q29 6 45 -8q15 -12 15 -35q1 -22 -11 -38q-14 -19 -36 -19q-45 1 -51 45zM531 1342q111 0 123 -10q-14 -15 -60 -16q-13 0 -41 2q-29 1 -41 1q-130 0 -149 10q2 16 29 13h139zM961 1021q0 188 -16 253q-27 101 -119 141q-39 17 -288 17q-255 0 -284 -4
q-64 -7 -114 -47q-47 -37 -68 -92q-17 -42 -17 -274v-589q0 -234 17 -278q35 -93 125 -129q52 -20 147 -19q25 0 80 3q50 3 74 3q276 0 308 10q48 14 89 58q42 43 57 94q9 34 9 278v575z" />
    <glyph glyph-name="bar" unicode="|" horiz-adv-x="2014" 
d="M897 660q-23 -35 -14 -79q9 -41 41 -68q35 -30 81 -27q54 3 80 44q23 37 16 86q-6 49 -37 78q-35 32 -83 20q-58 -15 -84 -54zM1170 495q-29 8 -57 3q-33 -11 -44 -53q-10 -41 8 -79q-118 -26 -213 27q-90 51 -110 141q-34 152 57 240q80 78 207 70t191 -97
q74 -103 12 -261q-14 0 -51 9zM1343 903q-38 107 -98 134q-73 35 -226 35q-137 1 -229 -23q-89 -22 -141 -151q-61 -151 -87 -172q-21 -15 -158 -67q-102 -39 -130 -101q-31 -71 -29 -208q2 -127 29 -200q39 -102 169 -125q45 -8 263 -6q4 7 10 22q7 17 10 23q14 25 40 27
q64 -15 241 3q166 18 226 -3q23 -9 40 -44q14 -29 44 -28q147 -39 249 2q92 37 138 134q88 185 -3 439q-53 26 -144 72q-103 51 -144 72q-21 28 -70 165zM320 1317q-275 -106 -274 -256q1 -60 81 -135q94 -89 111 -128q144 32 372 132q4 34 -6 84q-10 49 -6 83q52 56 168 87
q109 29 239 29q133 -1 237 -32q113 -34 159 -96q0 -21 -13 -84q-9 -47 1 -71q131 -67 360 -132q125 119 203 263q-111 227 -444 317q-300 82 -730 43q-247 -22 -458 -104z" />
    <glyph glyph-name="braceright" unicode="}" horiz-adv-x="1065" 
d="M473 1144q-68 -59 -106 -92q-10 -9 -50 -40q-35 -26 -53 -44q-55 -56 -39 -115q58 -5 125 48q21 17 53 48q39 37 50 46q10 10 55 45q36 29 56 48q63 61 69 125q-65 18 -57 19q-30 -26 -103 -88zM362 1087q55 46 72 107q-49 55 -126 -10q-65 -55 -92 -132q1 -12 17 -21
q17 -10 21 -17q89 57 108 73zM206 692q-60 272 0 540q322 59 654 0q29 -192 0 -540q-332 -26 -654 0zM756 389q48 9 62 9q36 -1 42 -28q1 -36 -34 -47q-5 -2 -70 -10v76zM753 222q7 20 25 29t36 4q19 -7 27 -27q2 -34 -25 -47q-16 -7 -60 -10q-11 28 -3 51zM744 576
q14 0 107 -17v-57q-69 -17 -98 -18q-61 -2 -73 37q3 55 64 55zM576 152v76q55 11 69 -3t7 -73h-76zM652 303q-6 -6 -76 -9v76q19 -4 40 3q23 7 36 6v-76zM470 575q47 53 125 13q21 -16 21 -71t-21 -71q-21 -13 -66 -11q-40 1 -67 11q-38 77 8 129zM481 294h-66
q-10 10 -10 37v25q1 15 0 23q13 1 36 -6q21 -7 40 -3v-76zM481 152h-66q-10 9 -10 37v24q1 16 0 24q13 1 36 -7q21 -6 40 -2v-76zM377 502q-29 -22 -91 -17q-63 6 -80 36q-1 48 72 55q65 6 99 -17v-57zM310 313q-56 4 -68 8q-33 9 -36 39q0 35 38 38q18 1 66 -9v-76z
M310 171q-32 -1 -85 19q-9 47 20 60q24 11 65 -4v-75zM998 864q6 109 8 160q5 198 -32 275q-73 153 -493 132q-157 -7 -203 -15q-101 -15 -148 -60q-74 -72 -77 -264q-1 -59 5 -180q6 -130 6 -192q0 -32 -3 -189q-2 -117 0 -185q8 -202 69 -261q89 -85 399 -85q154 0 273 34
q151 42 182 127q32 91 24 282q-1 39 -9 153q-6 90 -6 134q0 39 5 134z" />
    <glyph glyph-name="asciitilde" unicode="~" horiz-adv-x="1257" 
d="M1057 430q22 -10 25 -42q3 -40 -21 -51q-21 -9 -48 6t-32 37q-5 26 29 44q27 15 47 6zM1057 592q27 -15 25 -50t-26 -43q-21 -7 -45 7q-25 14 -31 36q-6 25 21 45q28 21 56 5zM820 352q-9 51 14 70q19 16 49 3q29 -12 36 -38q7 -29 -27 -53q-29 -4 -72 18zM885 594
q20 -9 27 -35q8 -26 -3 -44q-13 -21 -44 -18q-33 3 -45 34q-12 33 18 56q25 19 47 7zM653 698q-4 23 15 43q20 20 44 18q28 -2 45 -37q-8 -55 -63 -63q-37 13 -41 39zM651 374q-2 22 13 40t37 20q25 2 47 -19q12 -38 -6 -62q-20 -25 -66 -19q-24 16 -25 40zM1021 944
q-54 -14 -142 -14q-82 1 -149 13q-71 13 -82 32q-12 35 52 55q56 17 149 18q90 0 158 -14q73 -16 75 -41q2 -32 -61 -49zM1203 848q4 94 3 147q-2 172 -52 224q-59 61 -228 50q-234 -14 -287 -5q-18 -37 -45 -122q-28 -90 -46 -127q-66 -137 -207 -112q-47 -190 0 -379
q140 23 206 -109q22 -43 46 -125q30 -107 37 -127q71 14 294 -7q165 -15 230 52q56 58 56 239q0 53 -5 145q-6 93 -6 121q0 34 4 135zM218 722q2 230 96 298q-7 1 61 -13q38 -8 57 4q47 92 99 271q-5 3 -114 99q-76 68 -112 46q-141 -90 -208 -328q-65 -229 -44 -530
q14 -209 89 -380q84 -191 190 -189q48 1 104 59q71 73 95 85q-85 244 -108 271q-14 14 -60 1q-45 -12 -58 -1q-89 78 -87 307z" />
    <glyph glyph-name="exclamdown" unicode="&#xa1;" horiz-adv-x="960" 
d="M441 180h67v58q-9 9 -67 9v-67zM446 944q31 44 45 69q48 83 37 144q-11 -2 -23 7q-11 7 -26 3q-217 -306 -271 -474q68 -33 121 44q16 25 39 72q26 54 34 68q12 20 44 67zM382 1148q-69 34 -123 -54q-50 -80 -41 -159q2 -1 6 -1q4 -1 6 -1q7 -2 7 -8q113 35 145 223z
M760 373h-581q2 73 -1 413q-2 254 11 400h571v-813zM392 131q-41 211 155 165q12 -27 12 -82q0 -56 -12 -83h-155zM392 1332q9 -2 94 1q58 3 71 -21q-3 -34 -71 -32q-42 0 -94 13v39zM557 1434q-73 0 -210 -8q-127 -8 -168 -7q-98 -26 -119 -143q-6 -31 -7 -245
q0 -48 -8 -240q-7 -188 -8 -299q0 -371 74 -438q55 -49 344 -54q283 -4 353 34q79 44 86 278q2 75 -3 209q-5 155 -5 201q0 60 5 174q7 135 8 180q6 207 -33 275q-47 84 -309 83z" />
    <glyph glyph-name="cent" unicode="&#xa2;" horiz-adv-x="1168" 
d="M892 720q-7 -18 -1 -21q1 12 24 18q22 5 24 18q-41 11 -36 12q0 3 -11 -27zM1013 305l9 15q5 9 7 12q8 7 -1 -20t-17 -34q-7 8 2 27zM470 807q-19 24 5 69q23 44 1 63q32 32 90 36q-2 -11 12 -12q3 -25 -6 -50q-8 -24 -6 -34q-18 -10 -96 -72zM392 155q-13 -18 -30 -9
q9 -15 -1 -17q-21 -5 -23 -7q3 -10 18 -42q-51 31 -93 126q-51 116 -75 144q-4 55 24 109q24 5 18 -19q36 11 73 -21q48 -40 65 -45q3 -18 -6 -30q10 -4 31 -12q26 -9 34 -13q43 -17 61 -41q-13 -9 -30 -57q-13 -38 -54 -39q-1 -13 -12 -27zM104 669q3 0 6 -12
q44 219 270 336q-54 -41 -30 -90q12 -1 21 12t21 12q2 1 -6 -6q-19 -15 -18 -24q1 -10 10 -5q6 4 8 11q2 -7 -8 -11q-5 -4 -47 -16q-33 -9 -41 -33q-3 -8 5 -33q6 -23 -5 -39q22 5 41 37q19 34 37 41q7 -6 3 -21q-5 -14 3 -21q11 5 12 12q3 -9 1 -41q-2 -25 11 -31
q-1 0 -46 -2q-24 -1 -38 -16q2 -8 12 -1q12 9 18 7q-9 -11 0 -29q5 -13 -18 -13q0 2 12 6q-13 15 -41 -4q-37 -25 -49 -26q0 -18 -23 -37q-21 -18 -19 -41q-6 5 -9 23q-4 19 -9 25q5 2 -36 6q-18 -9 -23 -42q-6 -34 11 -48q5 0 10 7t14 5q-14 -22 -1 -55q3 -8 13 -27
q9 -18 12 -26q-10 -9 -21 10q-11 18 -9 38q-50 46 -54 162zM700 733q-21 -5 -19 -4q9 15 -2 30q-16 20 -16 36q12 -4 25 -23q12 -20 23 -25q1 -11 -11 -14zM951 885q111 -164 126 -228q-4 1 -12 15q-6 10 -18 9q-3 -27 -26 -18q-17 6 -15 5q-7 2 -7 -5q5 -21 24 -19
q20 2 24 -5q10 -23 -2 -51q-10 -25 -28 -39q-37 62 -66 78q16 -40 84 -114q-19 -147 -45 -211q-39 -102 -123 -132q-1 9 -5 39q-3 22 -4 36q-1 38 15 63q-1 4 -25 40q-14 21 -5 50q-22 2 -60 -4q-48 -8 -62 -9q-69 -3 -94 55q1 83 47 135q48 54 133 64q-1 -21 20 -28
q6 -2 20 -4t20 -4q1 16 28 23q49 12 50 13q2 12 -2 25q-5 14 -4 23q-22 -14 -33 -13q-14 0 -27 19q-9 -6 -8 -16t-4 -14q-5 10 -20 6t-16 -12q-38 32 -60 36q-20 -5 -33 -33q-16 -32 -27 -39h-36q-8 32 -6 48q10 3 25 1q12 -1 23 5q4 16 -10 24t-14 18q22 12 45 36
q25 27 9 30q-1 -3 3 -8q2 -3 -3 -4l-5 10q-3 8 -4 12q-4 12 9 2q-3 16 -20 13q-17 -4 -22 17q22 55 -22 131q-8 14 -40 62q-25 37 -34 59q-236 -1 -394 -144q-155 -141 -171 -360q-18 -252 166 -424q179 -167 417 -147q199 17 336 154q140 142 156 357q9 125 -39 229
q-35 78 -117 167q-2 -19 -12 -24zM887 1291q29 -20 37 -58q9 -37 -6 -70q-16 -35 -51 -44q-38 -9 -72 12q-31 20 -46 55q-14 36 -1 66q14 35 59 47q47 14 80 -8zM787 804q25 -63 50 -99q27 46 52 118q31 89 44 116q12 26 65 103q44 64 55 107q29 120 -34 200q-56 70 -157 81
q-99 11 -172 -43q-81 -59 -81 -172q0 -55 24 -108q13 -30 52 -93q39 -64 56 -99q7 -15 46 -111z" />
    <glyph glyph-name="sterling" unicode="&#xa3;" horiz-adv-x="1654" 
d="M204 385q-102 -82 -155 -149q6 -14 19 -32q17 -25 20 -31q71 42 180 136q117 102 175 140q-14 57 -71 71q-12 -11 -168 -135zM1325 1173q-29 -269 -237 -567q-56 -80 -170 -210q-119 -133 -160 -191q189 -43 323 -16q252 -147 433 -189q-17 25 -49 63q-39 44 -51 61
q-57 76 -58 167q128 68 192 203q59 124 50 272q-8 145 -79 261q-74 123 -194 170v-24zM884 906q-19 12 -51 26q-39 17 -48 22q-51 27 -59 78q-7 50 41 135q47 82 38 117q-247 -71 -371 -228q-146 -186 -94 -465q80 10 128 -42q11 -11 37 -47q23 -31 40 -45q277 169 339 449z
M1018 1181q-66 -128 -95 -197q73 -58 19 -194q-42 -106 -137 -215q-222 -257 -339 -158q-43 -44 -168 -142q-111 -87 -162 -149q128 -106 244 -71q145 44 287 176q93 87 248 281q205 255 277 429q128 304 -80 437q-28 -69 -94 -197zM1073 1410q-19 -2 -42 13q-22 14 -45 10
q-160 -310 -189 -386q20 -35 71 -47q84 137 205 410z" />
    <glyph glyph-name="currency" unicode="&#xa4;" horiz-adv-x="2677" 
d="M1282 660q-228 -2 -354 14v319q-444 -226 -870 -503q163 -82 437 -243q302 -178 433 -247v343q66 2 376 -1q231 -3 360 13q-19 43 -14 161q6 127 1 146q-64 2 -369 -2zM2203 1189q-283 164 -429 245q-2 -27 1 -179q3 -111 -13 -164q-274 1 -724 0v-319q66 -2 376 2
q232 3 360 -14v-319q644 357 858 503q-144 79 -429 245z" />
    <glyph glyph-name="yen" unicode="&#xa5;" horiz-adv-x="1262" 
d="M330 735q3 -26 49 -237q-124 196 -126 562q150 28 308 119q5 0 7 -21q-20 -16 -55 -38q-48 -30 -58 -37q-68 -47 -97 -100q-48 -90 -28 -248zM625 133q442 258 456 983q-160 28 -449 183q-252 -140 -457 -190q15 -691 450 -976zM133 1144q121 21 269 88q41 18 119 56
q75 37 111 53q328 -162 491 -197q-5 -787 -498 -1060q-489 303 -492 1060zM881 1299q-51 23 -129 65q-97 53 -127 68q-42 -18 -124 -62q-87 -47 -131 -67q-166 -77 -321 -82q-13 -448 130 -760q147 -321 446 -461q588 303 568 1221q-157 8 -312 78z" />
    <glyph glyph-name="brokenbar" unicode="&#xa6;" horiz-adv-x="1074" 
d="M898 822q-91 -2 -123 3q-1 11 0 72q1 44 -4 68q-18 14 -39 -4q-92 -74 -226 -176q-67 -50 -66 -69q1 -18 73 -70q122 -88 162 -123q6 -4 19 -17q12 -13 19 -19q25 -20 52 -20q12 17 10 71q-2 61 3 78q21 1 120 0q74 -1 115 4q27 66 4 195q-36 9 -119 7zM456 106
q0 22 16 36q14 12 35 13t36 -9q17 -12 19 -34q3 -30 -29 -56q-77 -9 -77 50zM526 1346q11 0 39 1q25 1 38 1q40 -1 49 -19q-9 -11 -31 -11h-19q-14 1 -20 1h-76q-124 0 -143 10q-1 11 7 10q15 7 156 7zM960 530q-46 11 -92 0q-5 -50 -4 -162q2 -113 -3 -163q-82 1 -353 0
q-216 -1 -357 3q1 93 0 513q-1 315 3 509h359h351q6 -183 0 -322q50 -10 100 0q-4 52 -3 138q2 92 0 125q-5 133 -64 195q-50 54 -158 64q-23 2 -230 2h-255q-83 -8 -140 -72q-52 -60 -59 -140v-1008q6 -56 40 -109q33 -50 76 -74q69 -38 338 -26q44 2 125 0q78 -2 111 0
q91 5 154 70q63 66 65 159q0 23 -2 70q-2 52 -2 76v152z" />
    <glyph glyph-name="section" unicode="&#xa7;" horiz-adv-x="1185" 
d="M605 129h-463q1 68 -1 360q-2 222 7 338h457v-698zM378 880q-57 2 -101 17q21 22 91 22q65 0 102 -16q-25 -25 -92 -23zM564 993q-26 1 -72 0q-58 -2 -75 -2q-264 0 -287 -6q-70 -18 -82 -99v-165v-451q0 -195 12 -217q23 -43 118 -49q32 -1 92 0q81 2 100 2q34 0 86 -2
q60 -3 78 -4q82 -2 118 18q40 22 47 107v397q-1 20 3 102q3 83 3 133q0 169 -36 205q-28 28 -105 31zM640 1125q-49 -8 -47 -64q77 -18 104 -33q39 -23 54 -72q3 -7 6 -49q1 -18 24 -22q14 -2 29 12q13 12 18 29q13 53 -26 114q-37 56 -86 74q-43 16 -76 11zM636 1275
q-54 -12 -37 -67q149 -7 230 -88q81 -80 81 -223q79 -28 70 88q-6 83 -79 169t-161 112q-61 19 -104 9zM833 1390q-88 36 -146 41q-91 8 -88 -65q18 -18 48 -18q5 0 26 1q16 1 26 0q170 -23 267 -151q87 -116 102 -301h47q44 87 -18 235q-75 180 -264 258z" />
    <glyph glyph-name="dieresis" unicode="&#xa8;" horiz-adv-x="1576" 
d="M1028 125q11 40 11 80q1 58 -26 61q32 -149 15 -141zM801 946q58 5 93 -36q30 -37 31 -93q0 -55 -31 -92q-34 -42 -93 -37v258zM680 944q-40 -33 -51 -76q-23 -98 27 -159q43 -54 122 -60q77 -6 134 37q63 49 61 135q-1 79 -55 125q-51 44 -124 39q-67 -4 -114 -41z
M1333 188q-45 -35 -219 -8v23q46 36 219 8v-23zM1015 628q27 -2 57 -26t42 -54q13 -36 -8 -63q-47 20 -82 47q-49 38 -43 70q6 28 34 26zM975 135q-13 42 -8 90q6 51 29 71q28 24 71 -7q-3 -22 0 -67q3 -54 2 -70q-2 -74 -56 -66q-25 4 -38 49zM684 992q64 36 141 27
t129 -59q57 -55 59 -139q2 -97 -70 -157q-66 -55 -156 -52q-93 3 -149 66q-64 73 -48 198q24 78 94 116zM835 437q0 -68 -41 -69q-20 3 -30 38q-10 33 -6 71q3 41 19 60q19 21 48 3q11 -87 10 -103zM262 180v23q-2 13 8 16q55 -3 333 2q211 3 324 -18q2 -33 -55 -35
q-17 0 -51 2q-38 2 -51 2q-439 0 -508 8zM466 780q-77 -8 -118 18q-11 55 61 57q24 1 61 -4q52 -7 50 -6q28 -56 -54 -65zM571 536q-9 -8 -74 -51q-18 14 -32 31q34 61 59 85q45 44 90 17q-6 -49 -43 -82zM583 993q-27 14 -118 110q14 30 39 32q22 2 48 -18q58 -43 62 -100
q-32 -24 -31 -24zM835 1160q0 -66 -34 -73q-22 0 -35 34q-12 32 -9 72q3 42 19 62q19 23 49 4q10 -69 10 -99zM997 1001q-7 14 -16 16q9 55 51 93q45 42 90 16q-19 -102 -125 -125zM1178 779q-30 -1 -103 11q2 13 -8 15q-3 26 22 40q23 12 60 13q35 0 64 -10q30 -10 34 -27
q0 -40 -69 -42zM1536 1071q2 184 2 193q-6 119 -41 143q-42 30 -157 26q-29 -1 -92 -6q-56 -4 -79 -4h-688q-331 0 -352 -8q-64 -23 -73 -143q-3 -39 -1 -106q4 -88 4 -103v-703q0 -199 0 -193q4 -110 31 -136q29 -27 141 -27q32 0 99 2t96 2h704q26 0 92 -3q73 -4 108 -5
q130 -2 167 24q34 23 40 136q-1 -6 -1 192v719z" />
    <glyph glyph-name="copyright" unicode="&#xa9;" 
d="M150 1330q-16 0 -26 -12t-10 -28v-240q0 -16 10 -28t26 -12h290v-240h-290q-16 0 -26 -12t-10 -28v-240q0 -16 10 -28t26 -12h122l-192 -240h-422q-14 0 -24 -12t-10 -28v-240q0 -16 10 -28t24 -12h702q14 0 24 12t10 28v240q0 16 -10 28t-24 12h-138l180 240h196
l180 -240h-138q-14 0 -24 -12t-10 -28v-240q0 -16 10 -28t24 -12h702q14 0 24 12t10 28v240q0 16 -10 28t-24 12h-422l-192 240h122q16 0 26 12t10 28v240q0 16 -10 28t-26 12h-290v240h290q16 0 26 12t10 28v240q0 16 -10 28t-26 12h-700z" />
    <glyph glyph-name="ordfeminine" unicode="&#xaa;" 
d="M76 1343q-178 0 -304 -126t-126 -304q-4 -96 35 -194t101 -178t159 -172t182 -160t199 -160t182 -154q62 50 156 125t155 124t141 119t131 122t107 121t87 129t52 132t21 146q0 180 -121 305t-299 125q-66 0 -135 -36t-120 -88t-93 -103t-62 -87l-22 -36q-8 14 -22 38
t-60 84t-93 106t-116 84t-135 38z" />
    <glyph glyph-name="guillemotleft" unicode="&#xab;" 
d="M-180 1570q-84 0 -142 -58t-58 -142v-1360q0 -84 58 -142t142 -58h1360q84 0 142 58t58 142v1360q0 84 -58 142t-142 58h-1360zM500 1346q74 0 127 -53t53 -127t-53 -127t-127 -53t-127 53t-53 127t53 127t127 53zM260 890h320h40v-760h160v-120h-560v120h160v680h-120
v80z" />
    <glyph glyph-name="logicalnot" unicode="&#xac;" horiz-adv-x="752" 
d="M362 719q-54 -12 -52 -43q2 -27 37 -49q35 -23 61 -13q30 11 22 65q-9 54 -68 40zM620 645q-20 -17 -77 -15q-85 2 -93 1q3 3 7 61q12 -1 85 1q53 1 78 -8v-40zM511 482q-20 46 3 74q24 29 79 14q-2 3 6 -88q-44 -13 -88 0zM599 359q-44 -12 -88 0q-26 49 8 78
q32 29 80 4v-82zM518 230q-34 44 -2 80t83 9q-8 -91 -6 -89h-75zM389 482q-21 112 81 88q12 -13 14 -41t-7 -47q-44 -13 -88 0zM477 359q-44 -18 -88 0q-16 56 13 80q28 23 75 2q18 -41 0 -82zM389 237q-16 56 13 80q28 23 75 2q9 -20 7 -47q-2 -29 -14 -42q-82 8 -81 7z
M389 115q-16 56 13 80q28 23 75 1q9 -19 7 -47t-14 -41q-82 8 -81 7zM411 725q30 -18 32 -53q4 -58 -30 -72q-29 -11 -67 12q-37 23 -43 55q-7 37 38 59q38 18 70 -1zM273 482q1 -2 -6 81q-1 -1 81 7q-2 2 7 -88q-56 -8 -82 0zM355 359q-54 -19 -82 0q-26 47 5 77
q31 31 77 5v-82zM355 237q-13 -8 -44 -8t-44 8q-16 56 13 80q28 23 75 2v-82zM355 115q-13 -8 -44 -8t-44 8q-15 55 13 79t75 2v-81zM151 237q-20 44 1 73q22 31 74 15q19 -42 0 -95zM233 359q-54 -19 -82 0q-26 46 5 77q32 31 77 5v-82zM144 488q0 66 7 82q83 -8 82 -7
q3 -17 0 -81q-59 -11 -89 6zM288 663l6 -32q-13 1 -86 -1q-53 -1 -77 8q-25 53 44 56q15 1 63 -2q40 -3 56 0q-10 -10 -6 -29zM593 1324q22 -121 6 -544q-118 -25 -441 -6q-22 41 -23 129q-1 26 1 77q2 56 2 79q0 22 -2 77q-2 49 -2 75q2 83 31 119q307 20 428 -6zM407 1432
q-173 0 -235 -13q-90 -19 -106 -104q-3 -16 -3 -202v-821q18 -143 133 -231q126 -96 281 -41q174 61 202 308q2 13 2 541q0 34 5 141t5 165q0 196 -51 230q-40 27 -233 27z" />
    <glyph glyph-name="registered" unicode="&#xae;" 
d="M-380 1420v-440h820v440h-820zM560 1420v-440h820v440h-820zM-380 860v-440h320v440h-320zM60 860v-440h880v440h-880zM1060 860v-440h320v440h-320zM-380 300v-440h820v440h-820zM560 300v-440h820v440h-820z" />
    <glyph glyph-name="macron" unicode="&#xaf;" 
d="M364 -46.5q8 -60 46 -100t90 -40t90 40t46 100h-272zM278 155.5l20 -148h404l18 148h-442zM500 1055.5l-46 -90l-56 -112l-56 112l-90 -46l102 -202l44 -92l46 92l56 112l56 -112l46 -92l44 92l102 202l-90 46l-56 -112l-56 112zM500 1563.5q-230 0 -395 -163t-165 -393
q0 -214 144 -372v-2q4 -6 6 -10q10 -14 22 -34q28 -50 50 -98q22 -52 38 -104q4 -14 8 -30t5 -23l1 -7v-52v-64h64h52h340h52h64v64v52v3t1 9t3 13t4 17t6 18q16 52 38 104t46 94q10 18 20 34q6 8 8 10q148 160 148 378q0 230 -165 393t-395 163zM500 1435.5q178 0 305 -125
t127 -303q0 -168 -114 -290q-8 -8 -20 -28q-14 -20 -26 -40q-26 -48 -52 -106t-44 -118q-16 -56 -18 -86h-316q-2 30 -18 86q-20 60 -46 118q-24 54 -56 110q-12 22 -22 40q-14 18 -22 28q-110 122 -110 286q0 178 127 303t305 125z" />
    <glyph glyph-name="degree" unicode="&#xb0;" 
d="M702 1449l-600 -480h-480v-640h480l600 -480v1600zM1030 1289l-86 -132q128 -82 203 -217t75 -292t-75 -291t-203 -216l86 -132q160 104 254 273t94 366t-94 367t-254 274zM888 1067l-86 -132q72 -46 114 -122t42 -165t-42 -165t-114 -122l86 -132q104 68 166 179t62 240
t-62 240t-166 179z" />
    <glyph glyph-name="plusminus" unicode="&#xb1;" 
d="M20 1512q-34 0 -57 -23t-23 -57v-1520q0 -34 23 -57t57 -23h960q34 0 57 23t23 57v1520q0 34 -23 57t-57 23h-960zM100 1352h800v-1040h-800v1040zM500 192q50 0 85 -35t35 -85t-35 -85t-85 -35t-85 35t-35 85t35 85t85 35z" />
    <glyph glyph-name="uni00B2" unicode="&#xb2;" 
d="M497 1592q-75 0 -128 -56t-53 -136q0 -44 18 -84q-70 -24 -120 -68q-10 -8 -20 -20h-312h-60v-60v-1304v-60h60h1236h60v60v1304v60h-60h-316q-10 10 -22 20q-50 44 -120 68q18 40 18 84q0 80 -53 136t-128 56zM498 1488q34 0 58 -25t24 -61q-6 -48 -44 -67t-77 0t-45 67
q-4 34 22 60t62 26zM500 1258q122 0 196 -76q36 -30 42 -64h2v-2h-486v2h-2q8 34 42 64q80 76 206 76zM-14 1108h178q-2 -8 -2 -18q0 -18 4 -34l6 -34h32h584h32l6 34q4 16 4 34q0 10 -2 18h182v-1124h-790q-280 418 -234 1124z" />
    <glyph glyph-name="uni00B3" unicode="&#xb3;" 
d="M46 1549q-16 0 -28 -12t-12 -30v-658h-290q-34 0 -58 -24t-24 -60v-658q0 -36 25 -62t57 -20q36 8 68 -24t49 -73t39 -65t42 -4v166h92v-166q0 -16 12 -29t28 -13h908q16 0 28 13t12 29v166h96v-166q36 4 60 32t34 59t35 54t65 21q32 -4 57 21t25 61v658q0 36 -24 60
t-58 24h-290v658q0 18 -12 30t-28 12h-908zM100 1437h800v-800h-800v800zM1162 663q30 0 51 -21t21 -51t-21 -51t-51 -21t-51 21t-21 51t21 51t51 21zM100 197h800v-280h-800v280z" />
    <glyph glyph-name="acute" unicode="&#xb4;" 
d="M1126 1520l-1186 -880l360 -80l-426 -720l1186 920l-360 80z" />
    <glyph glyph-name="mu" unicode="&#xb5;" horiz-adv-x="857" 
d="M628 75q10 1 28 0q24 -1 30 -1q33 0 34 22q-6 15 -38 15q-59 0 -54 -1v-35zM154 75q5 1 51 -2q32 -2 34 16v14q7 -9 -85 7v-35zM122 1202q-1 -33 1 -86q2 -60 2 -71q0 -738 14 -871q202 -52 588 -7q39 573 0 1140q-208 63 -573 7q-29 -9 -32 -112zM444 1353q11 10 14 11
q-2 31 -35 28q-8 -7 -8 -21t8 -21q13 -4 21 3zM274 1346q0 -4 7 3q22 19 14 43q0 1 -14 11t-7 -4q16 -9 14 -35q-13 -14 -14 -18zM802 1251q0 -31 -2 -88q-2 -62 -2 -89v-355q0 -581 -21 -694q-54 -14 -347 -14q-22 0 -82 -5q-65 -5 -99 -6q-124 -3 -159 32q-23 23 -25 150
q0 40 2 104q2 70 2 86v723q0 16 -2 91q-2 62 -1 98q3 112 31 130q337 41 680 0q24 -63 25 -163z" />
    <glyph glyph-name="paragraph" unicode="&#xb6;" horiz-adv-x="796" 
d="M419 93q-7 0 -14 4q-8 4 -14 3q-16 -11 -10 -28q6 -16 31 -13q10 13 7 34zM559 148q43 -1 62 8q10 17 6 47q-3 27 -13 43q-73 14 -112 -8q-44 -26 -14 -89q9 1 71 -1zM461 149q8 13 8 45t-8 45q-65 21 -106 4q-51 -22 -26 -94h132zM308 149q8 13 8 45t-8 45
q-63 25 -112 1q-55 -26 -20 -91h132zM547 259q52 3 74 1q17 66 -7 91q-80 11 -108 -1q-42 -17 -18 -90q14 -3 59 -1zM329 260q-3 1 132 0q-1 -1 7 84q-64 25 -139 0v-84zM176 260q23 3 73 -1q43 -3 59 1q8 13 8 45t-8 46q-15 2 -59 0q-51 -2 -73 0q-20 -46 0 -91zM614 364
q14 15 14 49t-14 49q-73 11 -110 -6q-47 -23 -16 -85q-10 6 126 -7zM461 371q21 33 0 91q-74 14 -112 -8q-45 -25 -13 -90q135 13 125 7zM308 371q8 12 8 42t-8 42q-60 22 -111 2q-57 -22 -21 -86q66 -24 132 0zM614 476q14 15 14 48q0 34 -14 49q-73 13 -112 -9
q-44 -25 -14 -88h126zM461 476q21 58 0 90q-61 26 -109 1q-52 -27 -16 -91h125zM308 483q8 12 8 41q0 30 -8 42q-60 23 -111 3q-57 -23 -21 -86q66 -25 132 0zM641 615v55q-16 -2 -55 0q-46 3 -63 2q-68 -3 -41 -57h159zM242 614q55 -1 80 8v41q-72 14 -124 9
q-76 -7 -43 -57q12 1 87 -1zM162 719q84 -26 236 -25q151 0 236 25q43 207 0 424q-165 55 -465 7q-56 -150 -7 -431zM377 1199q49 -5 49 28q-9 2 -7 13q-42 0 -49 -7q-3 -21 7 -34zM448 1291q173 3 263 -16q23 -57 24 -148q0 -27 -1 -78q-2 -56 -2 -80q0 -779 -14 -945
q-51 -23 -147 -24q-29 0 -85 1q-62 2 -88 2q-272 0 -320 21q-37 698 0 1397q52 32 78 -17q24 -44 13 -115q45 -2 279 2z" />
    <glyph glyph-name="periodcentered" unicode="&#xb7;" 
d="M500 1482.5l-214 -614l-650 -12l518 -394l-188 -622l534 372l532 -372l-186 622l518 392l-650 14z" />
    <glyph glyph-name="periodcentered" unicode="&#x2219;" 
d="M500 1482.5l-214 -614l-650 -12l518 -394l-188 -622l534 372l532 -372l-186 622l518 392l-650 14z" />
    <glyph glyph-name="cedilla" unicode="&#xb8;" 
d="M1175.5 1269.5l-504 82l-1030 -594l504 -872l1030 594l180 478zM1124.5 1032.5q23 -39 11 -83t-51 -67t-83 -11t-67 51t-11 83t51 67t83 11t67 -51z" />
    <glyph glyph-name="uni00B9" unicode="&#xb9;" 
d="M100 930h240v-1120h320v1120h240l-400 640z" />
    <glyph glyph-name="ordmasculine" unicode="&#xba;" 
d="M940 358h400v-400h-400v400zM420 1238h400v-1280h-400v1280zM-100 678h400v-720h-400v720zM-340 -42h1680v-120h-1680v120zM-340 1478h120v-1600h-120v1600z" />
    <glyph glyph-name="guillemotright" unicode="&#xbb;" 
d="M1319 1520q-92 0 -310 -124q-38 -24 -52 -34q-246 -184 -397 -328t-283 -352q-52 -84 0 -136l136 -136q50 -52 136 0q90 52 172 117t140 119t132 142t115 141t123 161q8 14 32 52q216 378 56 378zM165 520q-20 0 -34 -14q-28 -28 -8 -60q-54 -40 -131 -77t-127 -56
t-152 -55l-38 -400l370 370q-14 42 18 74q20 20 50 20t51 -21t21 -51t-20 -50q-14 -16 -39 -20t-43 2l-360 -370l398 36q38 224 188 414q32 -22 60 6q14 14 14 34t-14 34l-170 170q-14 14 -34 14z" />
    <glyph glyph-name="onequarter" unicode="&#xbc;" 
d="M500 1568q-178 0 -340 -70t-280 -187t-188 -280t-70 -341t70 -340t188 -280t280 -188t340 -70t340 70t280 188t188 280t70 340t-70 341t-188 280t-280 187t-340 70zM500 1432q202 0 373 -99t270 -270t99 -373t-99 -373t-270 -270t-373 -99t-373 99t-270 270t-99 373
t99 373t270 270t373 99zM140 970q-66 0 -113 -47t-47 -113q0 -20 6 -40h308q6 20 6 40q0 66 -47 113t-113 47zM860 970q-66 0 -113 -47t-47 -113q0 -20 6 -40h308q6 20 6 40q0 66 -47 113t-113 47zM370 498h-332q40 -116 115 -199t163 -123t187 -40t187 38t161 121t111 203
h-592z" />
    <glyph glyph-name="onehalf" unicode="&#xbd;" horiz-adv-x="1826" 
d="M980 927q-137 -32 -208 -144q-40 -65 -46 -107q-29 -200 109 -306q134 -103 329 -52q193 113 199 285q3 72 -30 145q-33 76 -89 121q-117 93 -264 58zM872 185q-97 29 -173 113q-139 152 -120 365q30 318 379 412q235 19 375 -98q120 -100 176 -307q5 -217 -125 -364
q-127 -143 -320 -154q-70 -5 -192 33zM448 937q-6 0 -34 3q-21 2 -34 2q27 146 14 139q41 -18 112 -13q-4 10 7 -119q-25 -14 -65 -12zM1775 1048q-17 105 -111 143q-77 32 -234 23q-25 17 -110 117q-71 83 -123 96q-51 12 -156 2q-115 -11 -176 -2q0 -1 -126 -126
q-62 -62 -56 -57q-38 -32 -77 -30q-12 4 -16 34q-4 29 -17 33q-16 -3 -188 8q-42 3 -63 -10q-26 -17 -35 -65q-71 -9 -124 -50q-63 -48 -75 -122v-857q10 -52 60 -99q13 -13 42 -35q27 -22 37 -32q182 7 680 -12q443 -16 682 5q156 14 183 201q3 19 3 404v431z" />
    <glyph glyph-name="threequarters" unicode="&#xbe;" horiz-adv-x="2084" 
d="M1125 915q-71 -25 -117 -86q-46 -62 -53 -141q-6 -83 35 -163q67 -57 115 -76q75 -31 174 -18q83 25 128 97q40 65 39 149q-2 83 -43 148q-43 70 -116 91q-85 25 -162 -1zM1701 1025q14 152 8 141h149q9 -25 9 -74t-9 -75q-53 -11 -157 8zM927 360q-111 99 -156 306
q22 196 141 316q130 131 328 114q264 -24 383 -313q58 -388 -336 -524q-231 -14 -360 101zM1859 1342q-31 1 -90 -2q-64 -2 -91 -2h-1126q-2 5 -11 49q-5 27 -28 37q-30 15 -164 8q-40 -2 -51 -33q-3 -9 -5 -30q-3 -21 -7 -31q-16 -1 -106 1q-66 1 -97 -9q-33 -48 -35 -139
q-1 -29 1 -82q3 -60 3 -84v-672q0 -19 -3 -82q-2 -61 -2 -96q1 -116 28 -143q34 -34 212 -32q50 1 145 5q90 4 120 4h1001q38 0 126 -4q82 -3 125 -2q141 2 218 45q20 629 0 1259q-61 33 -163 35z" />
    <glyph glyph-name="questiondown" unicode="&#xbf;" horiz-adv-x="1576" 
d="M985 189q-2 -57 26 -61q-32 149 -15 141q-11 -76 -11 -80zM1317 191q-46 -35 -220 -8v23q46 36 220 8v-23zM962 123q-18 41 -13 98q5 58 30 81q29 26 71 -17q1 2 2 -121q1 -65 -33 -75q-37 -11 -57 34zM949 753q28 46 23 88q-3 26 -33 61q-26 31 -22 57q56 13 88 -33
q29 -41 28 -107q-2 -65 -31 -107q-33 -47 -85 -35q1 25 32 76zM1131 1006q40 -74 39 -187q0 -112 -40 -185q-45 -82 -119 -67q4 28 49 87q46 61 53 109q28 173 -110 290q9 12 8 24q76 12 120 -71zM235 183v23q-2 13 8 16q56 -3 339 2q213 3 327 -18q-8 -35 -62 -37
q-16 0 -45 3q-31 3 -42 3q-440 0 -525 8zM423 975h102v-306h-102v306zM596 967q33 41 99 97q83 69 105 91q12 -96 8 -337q-4 -242 7 -329q-69 36 -219 180v298zM1513 1077q0 19 3 85q2 62 2 98q-2 116 -36 146q-29 24 -138 26q-33 1 -94 -1q-68 -2 -90 -2h-690q-29 0 -124 3
q-79 3 -123 1q-136 -4 -176 -51q-8 -190 -8 -1019q0 -22 -2 -87q-2 -61 -2 -94q2 -110 28 -140q28 -33 156 -35q40 -1 104 1q71 2 85 2h713q30 1 94 -4q72 -5 102 -6q123 -3 165 34q28 25 32 135q1 36 0 96q-1 79 -1 90v722z" />
    <glyph glyph-name="Agrave" unicode="&#xc0;" horiz-adv-x="1576" 
d="M1079 464q45 5 77 36q-1 40 3 77q4 50 5 72q-82 -17 -114 -39q-49 -36 -43 -110q20 -41 72 -36zM539 664q57 -2 82 9q-15 26 -44 109q-26 72 -51 104q-10 -44 -38 -112q-31 -77 -40 -109q15 2 91 -1zM1034 424q-88 -3 -106 60q-26 89 66 136q29 15 86 33q66 20 84 28
q9 76 -35 112q-43 37 -107 6q16 -78 -7 -94h-48q-22 47 1 82q20 31 68 45q45 14 93 7q49 -7 74 -32q42 -43 33 -150q-11 -136 -1 -173q3 -14 28 -19q29 -5 35 -12q-17 -37 -76 -30q-59 8 -58 53q-47 -50 -130 -52zM638 463q42 3 46 5q-5 71 -55 166q-36 3 -110 -2
q-62 -3 -79 2q-41 -65 -43 -115q-3 -67 74 -74q-26 -20 -106 -20q-78 1 -106 20q104 59 172 261q83 247 127 306q21 -35 213 -520q6 -14 39 -23q33 -10 39 -24q-50 -35 -236 -8q-4 24 25 26zM1526 1075q3 182 3 188q-4 114 -34 142q-27 25 -138 27q-35 0 -96 -1
q-69 -2 -89 -2h-701q-29 0 -126 3q-81 3 -127 1q-138 -5 -172 -59q-8 -207 -8 -1032q0 -15 -2 -81q-2 -58 -1 -93q2 -112 35 -140q30 -27 153 -28q34 0 105 2q68 2 96 2h709q14 0 85 -2q68 -2 110 -2q138 1 167 28q33 30 35 149q1 38 -1 101q-3 69 -3 88v709z" />
    <glyph glyph-name="Aacute" unicode="&#xc1;" horiz-adv-x="1582" 
d="M1055 281q-29 106 0 211h-63q32 -105 0 -211h63zM539 610q-23 98 0 211h-63q35 -106 0 -211h63zM844 938q-20 105 0 211h-63q39 -115 0 -211h63zM930 1032q-4 32 35 34q12 1 35 -1q24 -2 31 -2q222 7 298 -16q6 -30 -28 -33q-10 -1 -31 1t-27 1q-234 -13 -313 16z
M625 703v32q14 9 15 0q96 1 267 0q212 -1 281 0q10 0 38 2q26 3 39 3q47 -1 64 -29q-12 -26 -67 -27q-17 -1 -50 1q-34 3 -48 3q-458 0 -539 15zM1329 359q-21 2 -86 1q-72 -2 -102 -1q-13 63 71 58q112 -6 117 -3v-55zM1078 250h-109v274h109v-274zM906 375
q-144 -20 -329 -16q-221 6 -304 0v47q383 13 633 0v-31zM273 742q15 -11 62 -7q49 3 55 0v-47h-117v54zM562 578h-109q5 30 1 95q-6 77 -5 101q2 51 24 71q28 24 89 7v-274zM273 1063q36 -3 221 2q137 3 201 -18q-2 -33 -79 -35q-23 -1 -66 1q-46 3 -58 3q-195 0 -219 8v39z
M867 907h-109q5 30 1 95q-6 77 -5 100q2 52 24 71q28 24 89 7v-273zM1541 1184q1 58 -1 93q-6 104 -47 130q-44 28 -150 25q-27 -1 -89 -5q-56 -4 -82 -4h-688q-329 0 -352 -8q-64 -22 -73 -127q-3 -35 0 -96q3 -83 3 -98v-727q0 -20 -3 -87q-3 -63 -3 -99q2 -119 37 -150
q28 -25 144 -26q36 -1 102 1q74 1 98 1h704q27 1 91 -3q73 -3 105 -4q128 -2 164 23q40 29 39 145q-1 29 -5 97q-4 60 -3 86q11 406 8 743q0 15 1 90z" />
    <glyph glyph-name="Acircumflex" unicode="&#xc2;" horiz-adv-x="1540" 
d="M1479 872q-12 -14 -18 -28q-16 -38 -23 -47q-17 -21 -47 -19q-37 -169 -202 -169v35q133 13 139 142q-32 23 -29 19q-2 3 -4 13q-3 10 -6 15q-4 6 -25 21q-15 10 -14 26q1 15 14 21q11 5 27 0q39 -11 39 -43q3 -1 6 4q2 4 5 2q45 -6 36 -42q16 19 -1 37q-16 18 -41 16
q-1 3 -5 8q-3 4 -3 8q72 -5 120 -33q0 2 -22 17q4 7 8 19q5 16 7 20q10 22 27 25q21 4 29 -12q8 -15 -2 -35q-2 -5 -15 -20zM1362 943q5 -21 1 -49q4 -1 -32 -1q-16 0 -21 12q-5 27 1 46q7 22 27 19q17 -2 24 -27zM1435 928q1 2 -19 -48q-17 9 -44 14q-4 37 10 66
q16 33 45 15q19 -12 8 -47zM1098 234q-39 -30 -84 -34h-255q-237 0 -252 1q-63 7 -107 52q-44 46 -51 111q-3 39 -2 101q1 85 1 96q-1 54 0 377q0 183 1 195q5 62 49 110q46 52 109 57q17 2 48 1q32 -2 49 -1q1 -3 -3 -26q-3 -22 -1 -36q-102 -1 -122 -11q-59 -28 -66 -91
v-552q0 -199 16 -227q26 -46 71 -56q20 -4 127 -1q40 1 133 -1q91 -1 136 1q136 3 150 11q58 28 64 93v549q0 17 2 67q1 43 0 67q-2 74 -24 104q-41 57 -159 47q-15 57 -19 62q22 -1 56 1q32 1 51 -1q63 -6 108 -56q42 -47 48 -109q3 -32 1 -125q-1 -120 -1 -365
q0 -24 2 -120q1 -73 -1 -116q-3 -121 -75 -175zM1091 26q-13 -6 -75 -6h-162q-61 0 -73 6q8 23 7 77q-2 62 1 79h26v-123q80 47 171 40q92 -6 105 -73zM501 20q-61 0 -72 8q12 69 120 71q101 3 154 -42v64q-1 39 1 61h28q6 -161 5 -158q-25 -4 -156 -4h-80zM749 1329
q21 -28 22 -69q2 -42 -17 -71q-21 -34 -59 -36t-63 31q-22 30 -23 69q-1 40 20 70q23 31 58 34q38 2 62 -28zM829 1141q38 -12 65 16q24 23 31 64q74 5 112 -11q43 -17 54 -66q-1 4 3 -91q2 -55 0 -139q-2 -118 -2 -139v-375q-3 -27 -25 -51q-19 -22 -41 -29q-14 -5 -128 -5
h-264q-115 0 -128 3q-58 14 -74 69q-5 19 -3 89v577q-2 68 3 91q21 90 168 77q32 -69 70 -80q37 -11 67 12q26 20 38 55q22 -57 54 -67zM790 1300q2 3 -9 -18q2 -4 -6 18h15zM894 1305q19 -25 19 -64q1 -40 -18 -65q-22 -29 -58 -23q-24 5 -39 30q-14 24 -14 55q0 32 13 56
q14 26 40 31q36 8 57 -20zM201 462q2 -3 12 -7q8 -3 10 -8q2 -10 -2 -22q-3 -13 -1 -21q2 -9 24 -18q19 -7 15 -25q-5 -18 -31 -15q-23 1 -37 13q-4 4 -9 12q-6 9 -8 11q-11 13 -29 8q-18 -4 -28 -44q-10 -39 -26 -42q-17 -3 -26 12q-8 14 -3 35q6 31 28 62q23 32 48 41
q15 175 191 191q-4 3 3 -36q-131 -19 -131 -147zM128 339q7 23 13 33q16 -18 9 -50q-7 -33 -34 -16q6 9 12 33zM1415 990q-16 2 -29 -5q-14 -8 -17 -24q-21 34 -52 16t-22 -61q-4 -1 -16 -1q-11 1 -16 -1q-26 -8 -25 -37q0 -17 16 -29q22 -16 26 -23q3 -5 4 -14q2 -9 4 -13
q4 -7 13 -12q11 -6 13 -9q-11 -110 -125 -119v417q0 70 -8 97q-16 58 -59 98q-47 43 -110 48q-16 1 -57 -2q-36 -3 -57 2q-8 1 -20 9q-11 8 -19 9q-17 3 -43 -11q-24 -13 -44 -7q2 -1 -24 25q-16 15 -28 20q-58 23 -108 -45q-166 15 -236 -75q-44 -57 -44 -166v-418
q-170 -12 -203 -164q-1 -3 -1 -13q-1 -9 -2 -14q-3 -5 -15 -13q-14 -10 -18 -15q-30 -34 -47 -93v-22q3 -20 23 -30t38 1q34 -26 52 13q17 37 -4 69q8 -4 23 -22q13 -16 26 -20q22 -8 43 -2q20 7 24 25q5 20 -8 32q-7 6 -29 16q2 39 1 41q-2 10 -9 15q-10 8 -11 10
q3 103 117 124q2 -38 0 -118q-3 -75 0 -112q6 -74 57 -127q51 -52 123 -58q29 -2 84 0q60 2 91 0q1 -15 -1 -46q-1 -29 0 -46q-2 -1 -19 6q-108 44 -193 7q-24 -11 -43 -31q-25 -25 -19 -48q5 -22 67 -24q20 0 54 1q39 1 48 1h95q74 0 78 19q-1 -3 -4 32q-3 26 3 129
q15 3 17 -4v-24v-100q-1 -5 -4 -15q-3 -8 -2 -15q2 -16 27 -20q8 -2 51 -2h191q36 0 46 2q26 4 29 20q4 22 -19 47q-17 20 -39 30q-46 22 -113 15q-58 -6 -104 -29v95q29 2 89 0q57 -2 87 0q122 9 166 130q-2 -5 14 283q169 2 213 167q2 3 12 5q11 3 16 6q17 10 27 32
q2 5 9 21q5 13 9 21q37 69 36 62q2 30 -19 40q-19 9 -42 -4q6 40 -35 45zM764 225q-37 -1 -49 4q-16 7 -11 24q4 16 18 20q56 15 86 -2q9 -5 10 -19q1 -15 -9 -21q-8 -5 -45 -6zM694 252q-2 -26 20 -34q4 -1 48 -1q36 0 51 6q20 10 15 36q-4 20 -41 26q-32 5 -67 -3
q-24 -5 -26 -30zM962 438q0 -4 2 -4q0 1 -8 -1q0 2 2 3q2 2 1 4q4 2 3 -2zM964 422q0 -8 1 -10l11 2q-1 6 -5 25q-2 17 -6 25q-4 -8 -16 -24q-11 -15 -16 -23q14 -8 9 -6q1 2 8 11h14zM803 403q-2 0 -2 -2h-83v55q9 -2 21 -16q11 -13 20 -14q10 0 22 13q14 14 22 17v-53z
M759 445q-3 4 -12 11q-8 6 -11 11q25 -5 48 0q-1 -6 -25 -22zM703 387q34 -5 114 -1q9 48 0 95q-19 2 -54 2q-46 -1 -56 0q-3 -6 -4 -96zM915 467h83q1 -10 0 -31v-35q-7 1 -12 -2q-7 -5 -10 -6q-2 11 -25 11q-33 -2 -36 -1v64zM930 385q26 1 31 1q-1 -15 9 -18q41 19 44 19
q4 48 0 96q-19 2 -54 1h-55q-4 -1 -5 -5q-5 -68 1 -92q10 -2 29 -2zM536 392q-10 7 -1 20q-2 0 19 -8q9 7 17 23q10 20 14 26q-1 4 -8 8t-9 7q5 17 16 11q11 -7 12 -17q2 -9 -13 -36q-14 -28 -24 -34q-13 -8 -23 0zM558 455q8 -8 10 -12q-11 -18 -14 -20q-12 11 -26 4
q-14 -8 -14 -23q-2 -19 19 -29t37 3q13 10 29 42q18 34 15 52q-5 25 -36 23q-30 -2 -27 -28q1 -7 7 -12zM1033 434q0 -60 -7 -67q-10 -12 -66 -13q-57 0 -70 11q-8 8 -11 58q-3 49 4 67q4 13 18 18q14 4 61 4q48 0 58 -6q13 -7 13 -72zM873 491q-1 -7 -1 -57q0 -56 1 -61
q7 -19 32 -23q8 -2 54 -2q56 0 63 3q16 7 20 29q2 10 2 48q0 70 -11 81q-10 10 -60 13q-46 2 -70 -3q-25 -6 -30 -28zM759 357q-59 0 -67 10q-8 9 -11 58q-2 47 5 65q4 12 18 18q8 -1 31 0q28 2 39 2q50 1 59 -13q4 -8 4 -68q0 -55 -9 -64q-9 -8 -69 -8zM709 520q-1 0 -1 -1
h-1q-26 -6 -31 -28q-1 -7 -1 -58q0 -56 3 -63q7 -17 29 -20q9 -2 51 -2q59 0 64 2q18 6 23 32q2 11 2 54q0 57 -5 65q-16 28 -133 19zM571 357h-51q-26 3 -31 19v114q12 16 18 18q129 -10 125 -7q8 -8 8 -68q0 -59 -9 -68q-9 -8 -60 -8zM510 519q-22 -5 -29 -24
q-5 -13 -6 -59t4 -61q6 -20 30 -25q10 -2 50 -2q61 0 66 2q19 6 23 31q2 9 2 55q0 69 -19 79q-37 21 -121 4zM558 1151q5 1 6 2q-13 3 -21 -5q-7 -7 -3 -18q3 9 6 9q55 -95 190 -103q86 -5 152 23t96 82q2 -1 3 -5q2 -4 4 -4q2 12 -8 19q-8 5 -19 2q11 -3 12 -6
q-27 -50 -88 -77q-61 -28 -138 -24q-145 6 -196 101q1 3 4 4zM833 1253q-15 10 -19 -3q-5 -14 9 -14q15 0 10 17zM720 1241q8 -10 17 -1t-1 17q-19 2 -16 -16zM876 1397q-8 11 -23 13q-14 2 -23 -6q-10 -9 -4 -29q32 2 52 -7q7 16 -2 29zM735 1429q-12 8 -29 3t-28 -19
q-12 -15 -10 -31q34 19 79 15q1 24 -12 32z" />
    <glyph glyph-name="Atilde" unicode="&#xc3;" horiz-adv-x="1249" 
d="M1028 677q-22 -1 -62 0q-49 2 -60 2q-8 0 -51 -1q-32 -1 -49 0q-54 3 -60 28q-9 38 37 50q13 3 179 3q80 0 93 -2q47 -8 44 -44q-4 -33 -71 -36zM1103 925q-84 72 -201 63q-108 -8 -177 -76q-71 -71 -75 -183q-4 -95 51 -171q47 -67 118 -95q78 -31 163 -13
q95 20 157 101q65 85 56 191q-10 112 -92 183zM467 105q1 36 33 46q35 10 52 -9q15 -15 11 -43q-5 -27 -24 -41q-21 -15 -49 0q-24 13 -23 47zM527 1347q119 0 136 -13q-9 -16 -66 -16q-18 0 -57 1q-40 2 -60 2q-95 0 -110 10q1 10 7 13q25 3 150 3zM872 283q1 -65 0 -76
q-539 -7 -714 4q1 129 -1 529q-2 324 4 491q58 0 354 1q225 0 357 -4q3 -153 4 -156q16 4 50 2q35 -1 46 1q24 312 -173 356q-15 3 -279 3h-259q-80 -8 -136 -69q-55 -60 -64 -144q-3 -34 1 -108q5 -80 3 -121q-8 -123 -6 -358q2 -260 -1 -344q-4 -114 50 -196
q55 -83 143 -93q21 -2 61 0q49 4 65 3q379 -4 386 -3q121 11 173 110q49 91 36 249q-17 4 -46 2q-34 -1 -50 1q-5 -25 -4 -80z" />
    <glyph glyph-name="Adieresis" unicode="&#xc4;" horiz-adv-x="1038" 
d="M844 135q16 36 0 71q-12 -1 -52 1q-34 2 -51 -1q-51 -9 -32 -71q110 -2 135 0zM514 134q58 2 88 1q4 24 0 71q-16 -1 -63 1q-43 2 -62 -1q-64 -8 -39 -71q26 -3 76 -1zM331 135q-6 70 -7 71h-129q-7 -35 0 -71q-2 0 136 0zM202 1283q-7 2 -13 -9q-6 -12 6 -12
q-4 -146 0 -479q2 -292 -7 -484q358 0 663 -7q-1 165 0 477q1 374 0 514h-649zM580 1426q32 -2 96 -1q72 1 101 0q116 -3 153 -35q52 -45 53 -307q0 -79 -5 -213q-5 -136 -5 -172q0 -46 5 -192q5 -133 4 -206q-4 -235 -74 -272q-60 -33 -202 -27q-35 1 -114 7q-68 6 -97 6
q-14 0 -106 -3q-72 -2 -117 0q-138 6 -177 53q-25 31 -29 133q-1 34 0 87q1 75 1 79v656q0 263 -1 254q15 124 115 146q101 22 399 7z" />
    <glyph glyph-name="Aring" unicode="&#xc5;" horiz-adv-x="907" 
d="M585 110h160v66h-160v-66zM382 110h160q3 33 0 66h-160v-66zM178 110h160v66h-160v-66zM745 234v58q-66 16 -117 8q-72 -11 -36 -74q156 9 153 8zM542 234v65q-18 -3 -56 0q-44 3 -59 2q-63 -3 -45 -67q116 -11 160 0zM338 234q-2 15 2 37q3 17 -2 28q-18 -3 -56 0
q-44 3 -59 2q-62 -3 -45 -67q80 -23 160 0zM585 350h160v66h-160v-66zM382 350h160v66h-160v-66zM178 350h160q7 13 3 29q-5 23 -3 37h-160v-66zM745 474q-4 62 -7 65q-17 -2 -55 0q-41 3 -56 2q-59 -5 -42 -67h160zM382 474q15 -2 71 -1q63 2 89 1v65h-160v-65zM254 471
q58 4 84 3q9 36 -7 65q-17 -2 -55 0q-41 3 -56 2q-60 -5 -42 -67q31 -7 76 -3zM200 1114q-10 -86 -8 -239q2 -205 1 -249h538v488h-531zM672 1433q22 1 30 1q33 -1 43 -15q9 -22 8 -72q-1 -70 -1 -81q98 -38 109 -232q3 -65 -1 -192q-6 -160 -6 -216q0 -22 5 -155
q4 -118 2 -192q-5 -236 -72 -263q-45 -19 -168 -15q-28 0 -101 4q-60 3 -87 3q-13 0 -73 -3q-58 -3 -96 -2q-121 1 -159 34q-43 39 -44 243q0 60 4 170q4 112 4 147v298q0 15 -2 86q-1 58 0 93q3 110 31 141q51 57 221 46q224 -15 288 -2q11 17 7 76q-3 60 8 77q6 15 21 21
h29z" />
    <glyph glyph-name="AE" unicode="&#xc6;" 
d="M835 224v989h-652q-10 -183 -8 -490q2 -410 0 -499q-38 0 660 0zM510 1295q82 -1 103 26q-115 29 -215 -7q37 -17 112 -19zM548 1428q30 -1 94 0q78 1 107 0q128 -1 165 -28q53 -39 53 -301q0 -75 -5 -207q-6 -125 -5 -159v-337q0 -32 3 -93q3 -66 3 -93q2 -105 -20 -144
q-31 -53 -175 -60q-47 -2 -125 0q-101 3 -116 3q-28 0 -110 -5q-82 -4 -128 -4q-154 0 -200 45q-27 26 -33 121q-2 35 -2 180v674q0 264 -2 251q15 129 109 150q97 22 387 7z" />
    <glyph glyph-name="Ccedilla" unicode="&#xc7;" horiz-adv-x="918" 
d="M581 113q23 3 92 -2q51 -3 74 9q0 -1 -7 51q-23 9 -75 8q-72 -2 -84 -1v-65zM373 113h158q7 35 -7 65h-151v-65zM235 113q62 1 87 0q-4 62 -7 65q-12 -1 -57 1q-40 1 -60 -1q-63 -8 -34 -65q15 -2 71 0zM581 228h159q3 12 0 65h-159v-65zM373 228h151q3 3 7 65h-158v-65z
M157 235q23 -9 75 -8q72 2 83 1q3 3 7 65q-142 -1 -165 -7v-51zM581 350h159q3 54 0 65h-159v-65zM444 350q75 1 87 0q-4 62 -7 65q-17 -3 -53 0q-45 3 -57 2q-62 -2 -48 -59q24 -10 78 -8zM235 350q75 1 87 0v65q-17 -3 -54 -1q-48 4 -59 4q-65 -2 -52 -60q24 -10 78 -8z
M581 465h159q1 17 3 29t4 29q-25 9 -79 8q-74 -2 -87 -1v-65zM456 465q52 -2 75 8v57q-16 -1 -59 1t-62 0q-66 -6 -37 -66q12 1 83 0zM164 465h151q3 4 7 65q-21 -2 -90 3q-49 3 -75 -10q-2 -19 7 -58zM171 1285q-9 -119 -8 -326q3 -276 1 -335h576v661h-569zM502 1429
q11 0 101 2q61 2 97 -1q106 -7 140 -58q36 -52 32 -302q-1 -71 -6 -197q-4 -116 -4 -149v-330q0 -28 1 -99q2 -63 1 -95q-1 -103 -24 -137q-33 -51 -157 -59q14 1 -217 1q-29 0 -109 -3q-73 -3 -113 -2q-127 2 -166 41q-28 28 -34 129q-2 27 -2 180v684v252q18 123 129 136
q61 7 331 7z" />
    <glyph glyph-name="Egrave" unicode="&#xc8;" horiz-adv-x="1151" 
d="M644 166h-500q1 49 -1 384q-1 223 7 378h494v-762zM376 59q-13 11 -13 26q0 13 11 24q10 11 24 11q15 0 26 -14q3 -19 -12 -47h-36zM311 999q37 28 161 6q-31 -25 -161 -6zM615 1087q-21 2 -167 2q-298 0 -322 -6q-68 -18 -78 -120q-4 -34 -2 -91q3 -82 3 -87v-506
q0 -217 18 -238q29 -36 143 -39q37 -1 101 1q75 2 95 2q16 0 80 -3q59 -3 94 -2q114 3 142 41q18 24 18 244v524q0 221 -18 244q-22 28 -107 34zM656 1136q11 -3 40 -9q25 -6 39 -11q41 -15 46 -51q-3 -56 18 -66q40 11 47 42q6 27 -13 63q-18 34 -49 58q-33 26 -62 28
q-77 4 -66 -54zM660 1287q-6 -16 2 -32q230 -4 250 -250q16 -2 48 6q11 139 -63 219q-74 81 -217 79q-15 -6 -20 -22zM939 1348q-107 79 -241 86q-43 2 -36 -54q311 -29 357 -273q2 -10 2 -26q0 -21 1 -26q2 -32 21 -50q44 8 47 58q1 25 -11 79q-28 123 -140 206z" />
    <glyph glyph-name="Eacute" unicode="&#xc9;" horiz-adv-x="2128" 
d="M1684 831q-8 -33 -57 -91q-41 -49 -36 -87q67 -28 121 44q48 64 57 157q12 124 -59 239q-31 51 -63 61q-37 10 -64 -37q132 -156 101 -286zM492 1164q-64 -47 -101 -123q-42 -88 -31 -187q10 -90 56 -155q56 -78 122 -39q4 31 -25 65q-39 47 -45 59q-35 79 -23 163
q7 44 47 96q44 57 54 90q-10 19 -54 31zM1722 1265q-24 -17 -23 -16q7 -38 40 -82q47 -62 53 -73q78 -143 47 -287q-13 -57 -66 -135q-59 -86 -74 -128q58 -57 140 62q99 145 75 363q-25 223 -161 303q-17 2 -31 -7zM336 1089q12 20 48 75q30 47 46 77q-17 32 -55 31
q-133 -81 -158 -294q-24 -205 66 -349q39 -63 59 -81q44 -39 88 -4q-3 34 -31 71q-3 5 -24 30q-15 19 -23 31q-71 116 -69 232q1 89 53 181zM1838 1373q-24 -16 -23 -16q10 -44 51 -96q55 -69 65 -90q64 -119 63 -278q0 -157 -63 -271q-9 -17 -66 -88q-42 -52 -50 -98
q89 -53 194 147q104 199 56 450q-46 243 -196 347q-17 2 -31 -7zM251 1251q28 25 31 29q33 35 24 85q-95 31 -194 -170q-68 -139 -58 -329q9 -183 81 -306q43 -72 74 -104q51 -50 97 -28q3 50 -39 104q-69 88 -70 90q-71 131 -64 305q7 172 88 291q10 15 30 33zM1196 467v62
q24 8 74 5q52 -3 73 3q4 -4 8 -70h-155zM1351 351h-155v62h155v-62zM1351 235h-155q-4 15 0 62h155v-62zM1351 118h-155v62h155v-62zM987 351v62h155q6 -13 2 -27q-4 -20 -2 -35h-155zM1142 235h-155v62h155v-62zM1142 118h-155v62h155v-62zM1142 467h-155q-20 67 45 71
q14 0 57 -3q33 -2 45 2q3 -4 8 -70zM785 945q1 234 1 335q233 -16 549 0q12 -98 8 -335q-3 -232 8 -316q-101 -10 -278 -8q-237 2 -287 1q-2 116 -1 323zM778 467q-21 70 60 73q67 3 103 -19q-1 1 -8 -54h-155zM941 358q-24 -9 -77 -8q-74 2 -86 1v62q12 -1 86 0q53 2 77 -8
v-47zM941 242q-24 -10 -77 -8q-74 2 -86 1v62q12 -1 86 0q53 2 77 -8v-47zM851 116q-45 -5 -73 2v62q12 -1 86 1q53 2 77 -8q-4 -42 -8 -55q-27 3 -82 -2zM1117 1432q-244 3 -347 -21q-95 -21 -109 -140q1 8 1 -247v-333q0 -48 -4 -180q-5 -131 -4 -198q2 -230 62 -272
q40 -28 108 -28q18 0 60 2q41 3 64 3q26 0 112 -8q91 -8 143 -10q181 -5 233 49q46 48 43 315q-1 79 -6 206q-6 120 -6 145q0 37 5 161q6 131 7 203q3 253 -43 301q-46 49 -319 52z" />
    <glyph glyph-name="Ecircumflex" unicode="&#xca;" horiz-adv-x="841" 
d="M494 252q-40 -2 -58 6v41q32 4 118 0q-2 -43 -6 -47q-10 2 -54 0zM554 169h-118q-13 46 34 49q10 0 43 -2q28 -2 41 0v-47zM554 86q10 5 -112 -6q-4 4 -6 47h118v-41zM406 341h-112q-23 42 25 47q14 2 45 1q32 -2 42 -1v-47zM406 258q-54 -18 -118 0q-2 16 6 47
q11 -2 60 0q41 1 52 -6v-41zM406 169h-112q-23 42 25 47q14 2 45 1q32 -1 42 -1v-47zM406 80h-112q-23 42 25 48q14 1 45 0q32 -1 42 -1v-47zM210 252q-48 3 -59 0q-4 4 -6 47q9 6 52 6q51 -1 55 0q14 -6 12 -41q-14 -14 -54 -12zM145 169v47h113q10 -23 0 -47h-113zM145 80
q-1 41 0 47h113q-2 4 0 -47h-113zM208 389q39 1 56 -7q-3 -15 -6 -41h-113q2 11 -2 26q-2 11 2 21q9 -1 63 1zM554 341h-118v47h118v-47zM542 803v-344q-32 0 -199 -1q-121 0 -192 1q3 44 1 167q-3 108 5 177h385zM554 1022q-57 42 -85 -4q-23 -39 -15 -108q-31 -5 -212 3
q-128 6 -162 -39q-18 -25 -20 -93q0 -21 1 -57q1 -40 1 -51v-220q0 -27 -4 -105q-4 -83 -4 -126q-2 -153 32 -189q27 -29 125 -33q33 -1 87 1q71 2 84 2q142 1 141 1q74 6 96 40q19 29 17 110q0 22 -2 64q-3 38 -3 52q0 29 3 132q3 100 3 158v225q-11 97 -77 130
q-10 116 -6 107zM559 1119q27 -21 55 -20q20 43 -15 72q-30 25 -84 27t-86 -22q-38 -28 -23 -77q29 -2 58 19q30 23 49 23q17 -1 46 -22zM366 1276q-58 -42 -37 -94q27 -2 62 26q41 33 63 39q71 20 137 -12q16 -8 49 -28q29 -19 45 -25q25 22 15 48q-9 23 -44 44
q-74 47 -155 44q-80 -2 -135 -42zM459 1431q-79 -10 -153 -58q-85 -55 -54 -108q-7 0 107 65q63 37 139 41q82 5 151 -29q15 -7 59 -45q33 -28 66 -32q21 32 -7 66q-16 20 -59 47q-111 70 -249 53z" />
    <glyph glyph-name="Edieresis" unicode="&#xcb;" horiz-adv-x="2109" 
d="M397 976q-34 -43 -34 -119q0 -77 35 -119q39 -49 102 -17q-3 32 -33 76q-27 39 -24 72q2 23 31 58q27 32 26 65q-64 32 -103 -16zM1628 922q30 -41 29 -70q-1 -27 -29 -61q-28 -35 -28 -70q64 -29 102 19q34 43 33 119q0 76 -35 120q-39 50 -100 21q-2 -37 28 -78z
M1764 1006q44 -65 49 -112q9 -88 -36 -162q-56 -93 -63 -126q84 -25 134 58q44 73 44 191q-1 118 -45 192q-50 84 -133 60q5 -34 50 -101zM334 1006q43 57 51 93q-11 28 -65 24q-125 -121 -123 -271q1 -103 51 -182q57 -90 137 -64q-10 30 -33 71q-32 59 -37 69
q-41 83 -28 164q6 42 47 96zM1854 1231q-24 -17 -25 -17q11 -45 59 -108q52 -67 64 -106q25 -76 25 -148q-1 -96 -59 -194q-82 -141 -89 -158q59 -30 122 40q53 58 83 148q51 154 -2 325q-51 165 -153 217q-8 13 -25 1zM175 1048q14 27 48 79q33 51 47 78q-13 29 -49 33
q-1 -10 -24 -8q-119 -95 -144 -294q-24 -196 62 -338q40 -67 60 -86q46 -44 95 -12q2 33 -26 67q-4 5 -25 28q-15 16 -22 28q-74 113 -74 238q0 93 52 187zM1239 130q-19 63 29 73q-6 -1 102 1q3 -3 8 -74h-139zM1132 130h-164q-35 54 30 71q47 12 134 3v-74zM722 130
q-23 56 24 70q27 9 107 4q4 -3 8 -74h-139zM1378 1287v-992h-656q3 131 -3 527q-4 295 11 465h648zM1344 1434q-2 0 -204 1q-394 2 -435 -8q-104 -26 -115 -158q-4 -45 1 -124q7 -105 8 -128q0 -58 -3 -157q-5 -126 -6 -172q-5 -372 -5 -386q8 -244 71 -278q49 -27 184 -24
q20 1 118 5q73 3 116 2q3 0 111 -4q75 -3 122 -1q143 6 178 63q20 33 20 141q0 31 -2 93q-2 61 -2 86v673q0 30 2 91q3 63 3 91q1 102 -21 138q-29 47 -141 56z" />
    <glyph glyph-name="Igrave" unicode="&#xcc;" horiz-adv-x="1723" 
d="M1101 738q-4 68 -43 124q-40 56 -102 83q-66 29 -141 18q0 -1 -7 -78q54 16 106 -2q49 -17 82 -58q32 -41 36 -90q5 -54 -27 -102q-15 3 -35 17q-21 15 -35 18q-10 -36 -8 -108q2 -98 1 -117q84 32 203 113q-65 44 -63 42q38 67 33 140zM787 766q-2 22 7 123
q8 76 -14 109q-25 -21 -96 -58q-65 -34 -93 -62q5 -3 17 -7q12 -5 17 -8q19 -9 22 -27q-33 -71 -27 -144q7 -69 47 -123t103 -79q67 -26 144 -12v71q-56 -13 -108 6q-49 18 -80 59q-33 41 -36 91q-4 54 27 103q43 -28 70 -42zM1472 585q21 36 45 34q-1 -28 -19 -60
q-21 -38 -51 -45q7 40 25 71zM1372 415q20 32 47 49q6 -28 -15 -64q-20 -33 -48 -48q-5 28 16 63zM1279 254q4 7 17 24q12 15 18 25q11 2 14 -7q-2 -27 -20 -59q-22 -38 -51 -46q2 33 22 63zM692 425q-305 181 -438 257q54 111 167 296q122 202 170 293q130 -77 439 -259
q282 -166 438 -260q-57 -108 -167 -292q-122 -202 -170 -290q-158 89 -439 255zM222 877q22 35 53 44q-24 -91 -70 -106q-3 29 17 62zM346 1015q-17 -36 -50 -38q15 50 26 70q21 37 51 28q1 1 -27 -60zM442 1178q-17 -31 -48 -40q2 29 19 61q21 38 51 44q-12 -47 -22 -65z
M1574 847q-28 17 -81 44q-59 31 -81 44q-85 49 -298 172q-167 97 -292 171q-18 11 -74 48q-53 36 -85 54q-106 62 -163 53q-53 -8 -97 -63q-14 -17 -58 -92q-43 -74 -106 -184q-75 -130 -104 -180q-91 -156 -84 -204q7 -58 104 -122q31 -20 82 -48q66 -36 73 -40
q98 -58 305 -175q180 -102 292 -169q18 -11 69 -47q52 -37 82 -55q103 -63 171 -53q42 7 81 54q19 24 60 94q59 102 217 372q7 11 30 46q20 30 30 49q33 62 24 115q-9 60 -97 116z" />
    <glyph glyph-name="Iacute" unicode="&#xcd;" horiz-adv-x="2378" 
d="M407 203h1571v1037h-1561q-12 -1 -10 -29v-1008zM775 1434h1047q215 0 261 -4q140 -14 185 -73q51 -67 50 -298q0 -66 -6 -201q-5 -133 -5 -190q0 -35 6 -176q4 -118 1 -187q-9 -213 -94 -267q-61 -38 -232 -38q-52 0 -138 4q-89 5 -115 5q-560 5 -1047 0q-5 0 -161 -5
q-105 -4 -172 0q-198 11 -249 92q-46 75 -42 274q1 51 7 169q6 107 6 158q0 49 -7 247q-6 145 1 222q20 224 171 259q42 9 533 9z" />
    <glyph glyph-name="Icircumflex" unicode="&#xce;" horiz-adv-x="2350" 
d="M791 265h193v270q-33 12 -97 12q-63 0 -96 -12v-270zM1434 644q22 28 23 76q1 49 -20 76q-24 30 -67 10q1 -20 22 -46q19 -25 17 -51q-2 -14 -23 -35q-18 -18 -16 -42q39 -19 64 12zM1485 658q-36 -84 -37 -94q48 -4 79 43q28 44 31 109q2 66 -24 112q-30 52 -86 55
q0 -11 -6 -22q-3 -6 6 -16q47 -65 48 -68q18 -53 -11 -119zM1575 616q-8 -17 -32 -61q-19 -37 -28 -58q63 2 102 67q35 59 37 146q3 86 -29 152q-36 73 -100 89q-9 -41 -10 -39q80 -83 87 -154q8 -66 -27 -142zM679 603q33 -35 34 -39q27 1 185 -1q114 -1 173 11
q10 10 29 53q16 36 39 44q22 -157 183 -184q-22 146 -29 184q43 37 48 58q-49 20 -43 94q2 24 11 65q11 50 13 63q-80 -2 -127 -56q-29 -32 -66 -118q-17 11 -34 48q-18 38 -34 48h-357q-29 -38 -31 -41q-14 -28 -8 -65q-11 3 -26 22q-13 18 -32 17v-174q12 -1 34 22
q17 19 24 7q-7 -36 14 -58zM1641 536q-48 -73 -48 -107q72 14 115 99q41 79 43 186q2 108 -37 190q-43 91 -121 114q-10 -40 -10 -38q139 -115 116 -309q-7 -57 -58 -135zM984 1183h-193v-281h193v281zM1960 207q-1266 -1 -1565 0v1005q-2 27 9 29h1556v-1034zM2084 1427
q-58 7 -259 7h-1054q-499 0 -541 -10q-153 -35 -172 -290q-6 -86 0 -246q8 -212 8 -266q0 -348 3 -374q17 -187 113 -225q71 -28 248 -22q40 1 143 8q83 5 121 5h1044q30 0 135 -3q91 -2 144 -1q164 5 213 52q65 61 68 281q1 67 -4 184q-6 125 -6 163q0 59 6 181
q6 133 7 189q3 218 -42 287q-40 63 -175 80z" />
    <glyph glyph-name="Idieresis" unicode="&#xcf;" horiz-adv-x="2364" 
d="M782 583q26 -10 74 -25q45 -14 65 -23q66 -29 89 -95q5 -14 10 -82q2 -35 38 -41q25 -4 48 17q21 20 28 49q20 93 -62 188q-78 91 -166 98q-134 9 -124 -86zM803 866q-22 -35 -2 -74q207 -10 323 -122q126 -121 124 -344q22 -12 49 -6q7 2 22 8q16 6 24 8
q45 231 -119 398q-149 153 -366 163q-35 1 -55 -31zM801 1020q317 -13 498 -209q173 -186 177 -485q114 -9 110 125q-1 78 -44 199q-76 217 -260 340q-185 122 -443 125q-48 -17 -38 -95zM2090 426q0 74 23 100q8 1 15 -4q8 -5 13 -6q-2 -11 2 -101q3 -63 -21 -79
q-32 12 -32 90zM1178 204q-486 2 -767 -11q-17 154 -10 489q7 352 -9 528q0 22 19 29h1549q4 -195 2 -488q-2 -394 -2 -548q-163 -3 -782 1zM220 710q2 88 1 101h19q34 -14 33 -100t-42 -90q-12 27 -11 89zM219 431q0 62 12 95h28q-1 -19 4 -52q6 -43 7 -53q4 -60 -39 -85
q-12 33 -12 95zM240 1096q33 -12 32 -96q-1 -35 -9 -59q-9 -26 -23 -25q21 -12 -19 180h19zM2132 811q11 -33 11 -95t-11 -95q-63 4 -29 190h29zM2132 1096q11 -33 11 -95t-11 -95q-42 20 -40 79q0 16 6 54q5 38 5 57h29zM2298 922q4 122 1 193q-8 219 -82 276
q-52 40 -231 42q-55 1 -147 -1q-102 -3 -126 -3h-988q-466 0 -504 -10q-142 -36 -159 -268q-6 -79 0 -227q7 -193 7 -246q0 -43 -5 -154q-6 -114 -6 -173q-1 -207 49 -272q49 -63 192 -74q17 -2 293 -2h1131q17 0 142 -2q92 -2 149 0q169 8 222 59q67 66 68 303q1 71 -5 198
q-6 131 -6 174q0 39 5 187z" />
    <glyph glyph-name="Eth" unicode="&#xd0;" horiz-adv-x="985" 
d="M470 453q18 17 58 39q45 24 61 36q23 -37 52 -114q33 -87 49 -118q-68 46 -220 157zM746 76q-22 63 -63 119q23 -8 60 -49q49 -55 60 -64q3 8 -57 -6zM499 310q18 7 21 17q6 -2 20 -14q12 -9 24 -11q-10 -8 -40 -7q-41 2 -48 1q4 7 23 14zM375 428q67 -36 82 -63
q-90 -45 -138 -82q-2 -11 56 145zM212 70q4 27 45 67q53 53 62 65q0 -19 -25 -59q-27 -44 -32 -67q-52 -14 -50 -6zM512 640q34 -25 58 -36q-23 -22 -77 -51q-58 -32 -80 -50q-2 29 18 85q23 66 26 91q12 -7 55 -39zM537 749q4 -37 8 -45q-72 63 -69 57q36 10 44 25
q13 -8 17 -37zM508 929q5 -17 7 -34q4 -50 -26 -46q8 28 12 94q2 2 7 -14zM548 1116q34 27 35 54q2 38 -23 60q-23 20 -56 19q-33 0 -55 -20q-25 -23 -23 -59q1 -23 38 -59q31 -30 18 -86q-56 -9 -50 -6q-11 -290 -122 -564q-52 -128 -230 -455q40 2 106 1q78 -1 114 -1
q63 128 119 220h176q17 -40 57 -110q40 -72 57 -110q35 -1 116 1q73 2 104 -1q-181 333 -231 458q-111 276 -121 567q-29 -9 -51 6q-8 60 22 85zM371 1136q-21 29 -21 46t20 44q20 25 18 50q-45 15 -71 -18q-23 -29 -22 -78q0 -50 24 -79q27 -34 69 -19q2 27 -17 54z
M640 1224q19 -28 18 -48q0 -16 -20 -41q-18 -24 -17 -47q43 -21 69 12q22 29 22 82q-1 52 -24 81q-26 34 -67 13q0 -24 19 -52zM799 1068q33 65 23 146q-7 51 -36 96q-30 45 -65 54q-2 -3 -16 -12q-11 -7 -9 -19q5 -9 40 -56q25 -33 29 -63q8 -52 -20 -109q-5 -11 -26 -47
q-16 -28 -23 -46q66 -17 103 56zM289 1057q-19 33 -25 45q-27 55 -21 105q5 34 31 70q32 44 39 62q-3 11 -16 17q-2 1 -11 4q-7 2 -11 4q-78 -61 -88 -150q-10 -85 28 -154q40 -72 98 -48q-8 17 -24 45zM778 1408q8 -15 24 -39q24 -33 29 -42q35 -54 41 -107q9 -79 -26 -156
q-19 -43 -75 -121q49 -33 100 36q48 65 58 153q12 109 -36 208q-49 101 -115 87v-19zM181 1033q-39 61 -44 111q-12 108 37 189q1 2 40 39q24 24 17 49q-1 11 -16 13h-14q-10 -1 -14 0q-52 -47 -83 -127q-36 -91 -24 -181q10 -73 51 -136q48 -74 100 -53q-7 27 -50 96z" />
    <glyph glyph-name="Ntilde" unicode="&#xd1;" horiz-adv-x="1360" 
d="M845 212q-95 83 -109 227q-28 266 0 503q3 30 38 89q29 50 21 95q-7 37 -42 59q-33 21 -74 19q-43 -1 -72 -25q-32 -26 -35 -73q-1 -27 21 -67q26 -50 32 -71q51 -207 6 -542q-18 -136 -111 -215q-90 -78 -242 -93q11 -119 6 -111q221 -8 229 -7q37 8 84 47q44 36 73 38
q46 4 81 -26q48 -41 83 -52q27 -9 248 0q-4 -8 7 111q-152 13 -244 94zM992 990q29 26 37 80q6 51 -9 98q-17 49 -49 62q-54 22 -65 -19q-6 -22 22 -50q30 -32 30 -62q0 -29 -25 -56q-25 -28 -27 -61q53 -21 86 8zM435 1044q-26 33 -26 55q-1 26 24 57q26 33 28 61
q-56 33 -90 -10q-30 -37 -29 -107q0 -70 30 -107q34 -43 89 -11q0 30 -26 62zM1038 1258q23 -36 33 -57q35 -69 25 -141q-6 -40 -43 -89q-41 -54 -49 -81q25 -28 56 -17q28 9 55 46q58 80 59 180t-55 181q-27 38 -56 48q-31 12 -59 -13q10 -19 34 -57zM311 976
q-35 50 -40 97q-7 66 28 132q9 17 32 55q22 35 32 55q-25 26 -66 20q-89 -121 -98 -183q-15 -106 37 -206q24 -48 55 -64q35 -18 72 8q-9 23 -52 86zM1237 1351q-70 110 -128 62q1 -30 28 -60q42 -49 44 -51q54 -86 54 -205q-1 -118 -54 -200l-48 -49q-29 -30 -24 -63
q37 -31 77 5q23 21 60 80q81 133 65 282q-10 100 -74 199zM198 1310q48 66 60 103q-15 25 -59 20q-109 -95 -135 -257q-26 -168 57 -306q35 -58 55 -77q42 -39 82 -8q0 32 -27 64q-46 56 -45 54q-37 60 -51 141q-15 87 5 160q12 43 58 106z" />
    <glyph glyph-name="Ograve" unicode="&#xd2;" horiz-adv-x="946" 
d="M392 595q-8 49 49 51q12 0 53 -3q33 -2 49 1q-1 -12 5 -26q7 -14 7 -23h-163zM355 492q1 52 82 51q143 -1 137 -3q1 -11 8 -27q8 -17 10 -27q-62 6 -237 6zM313 383q18 45 24 48h279q0 -8 8 -22q7 -12 4 -26h-315zM264 280q3 3 12 27q6 18 18 21h365q0 -11 9 -24
q8 -14 9 -24h-413zM653 164q-3 10 -17 29q-12 18 -14 32h85q2 -5 15 -28q9 -17 9 -33h-78zM781 86q9 -14 11 -25h-85q-3 4 -11 23q-6 14 -13 19q9 9 39 7q39 -1 46 0q2 -9 13 -24zM209 164q6 76 116 61q-7 -9 -18 -30q-11 -22 -19 -31h-79zM149 61q12 62 109 49
q0 -11 -9 -25q-9 -13 -9 -24h-91zM519 747q-2 -11 3 -24t3 -25h-109q1 8 7 27q5 16 5 28q-5 3 91 -6zM495 856q6 -2 5 -22q0 -18 7 -20q6 7 -67 -6q-2 12 2 25q5 15 4 23h49zM489 959v-48h-37q2 44 6 48h31zM481 1182q7 -5 5 -18q-1 -13 -9 -17q-11 -6 -25 7v7v8q1 8 6 9
q15 11 23 4zM514 1106q34 31 35 54q3 39 -23 62q-24 20 -58 19q-34 -2 -55 -25q-23 -26 -15 -68q2 -12 36 -51q26 -30 12 -83h-48q-7 -288 -119 -561q-35 -87 -227 -453q37 2 104 1q78 -1 114 -1q-1 -3 115 219h176q22 -45 57 -110q52 -95 59 -109q35 0 111 1q66 1 101 -1
q-192 374 -223 449q-115 282 -123 565q-51 13 -48 6q-11 60 19 86zM655 1094q24 28 26 76q1 49 -22 78q-26 34 -73 21q2 -22 23 -58q17 -31 13 -57q-2 -13 -21 -34q-18 -19 -15 -39q41 -18 69 13zM341 1124q-22 30 -22 48q0 19 22 48q20 26 14 49q-43 14 -68 -19
q-23 -29 -23 -78q1 -49 24 -78q25 -33 67 -19q7 23 -14 49zM758 1050q30 50 27 127q-2 76 -32 125q-35 54 -88 40q1 -27 32 -69q31 -43 34 -77q6 -51 -25 -106q-38 -65 -41 -88q60 -9 93 48zM209 1178q2 39 30 83q37 55 43 75q-55 22 -90 -31q-32 -48 -34 -128t29 -130
q34 -57 95 -39q-72 187 -73 170zM767 1359q32 -38 37 -48q37 -67 37 -139q0 -66 -37 -130q-9 -16 -34 -53q-22 -33 -32 -54q53 -31 104 46q46 71 53 167q8 98 -45 197q-24 46 -51 63q-30 20 -55 1q0 -24 23 -50zM179 986q-42 51 -42 52q-43 83 -31 176q6 49 43 105
q45 67 54 96q-34 13 -42 12q-57 -47 -89 -132q-35 -92 -20 -184q11 -69 49 -127q45 -67 96 -61q8 31 -18 63z" />
    <glyph glyph-name="Oacute" unicode="&#xd3;" horiz-adv-x="1543" 
d="M1058 580q0 -1 -16 -76q-10 -46 -43 -58q-8 -3 -23 -6q-17 -2 -23 -4q-26 -7 -29 -28q29 -37 73 -32q39 5 73 40q35 34 44 78q10 49 -18 86h-38zM1204 383q57 101 18 204q-22 10 -52 -7q19 -195 -134 -254q4 2 -50 -8q-30 -5 -39 -29q2 -66 111 -30q94 31 146 124z
M1315 323q69 128 34 272q-22 10 -52 -8q12 -155 -58 -258q-63 -94 -181 -129q-8 -3 -27 -3q-22 -1 -29 -2q-35 -5 -41 -40q35 -59 172 0q118 51 182 168zM1438 610q-1 -6 -7 -12t-8 -11q15 -205 -91 -345q-95 -127 -259 -169q-5 -1 -25 -2q-23 -1 -34 -3q-41 -7 -38 -40
q4 -37 86 -25q60 9 116 33q232 99 298 343q47 174 -23 231h-15zM137 433q57 -49 94 -69q132 143 224 275q-28 21 -93 75q-58 49 -93 74q-18 -22 -115 -139q-70 -84 -109 -144q31 -19 92 -72zM1040 695q79 66 93 78q-65 55 -176 40q-103 -13 -159 -69q-12 29 0 73q13 51 7 83
q-3 3 -179 149q-16 14 -46 42q-35 34 -48 45q-57 52 -92 55q-36 3 -69 -25q-51 -43 -50 -42q-9 72 -23 89q-23 -31 -70 -89q-48 -59 -71 -90h97q-43 -64 -42 -62q-17 -37 -3 -87q29 -20 80 -64q66 -57 91 -77q14 -12 42 -37q33 -31 46 -42q57 -49 91 -55q27 -5 74 14
q48 19 83 15q-47 -71 -36 -182q12 -115 80 -145q82 161 127 208q12 -13 39 -7q23 4 35 15q13 23 -7 82q28 38 86 85zM883 1354q-66 55 -93 75q-24 -32 -113 -140q-71 -86 -110 -143q28 -19 95 -76q58 -50 98 -73q31 50 109 141q76 88 107 142q-35 26 -93 74z" />
    <glyph glyph-name="Ocircumflex" unicode="&#xd4;" horiz-adv-x="1770" 
d="M742 610q-13 -94 21 -175q11 -24 82 -139q123 -113 302 -79q179 35 241 182q49 116 6 306q-77 144 -249 179q-175 36 -294 -76q-93 -88 -109 -198zM1286 1434h-403q-13 -4 -13 -19v-185q73 -9 204 -8q175 2 212 1v211zM1316 130q-148 -86 -331 -51q-53 10 -119 48
q-88 51 -111 61q2 11 -13 12q-86 92 -121 233q-37 155 13 285q44 115 138 197q101 87 232 110q233 22 383 -102q128 -107 180 -307q18 -136 -58 -281q-69 -134 -193 -205zM538 821h-128v127h128v-127zM1695 1000q-46 84 -141 102l-77 185q-37 91 -38 92q-28 48 -77 55
q-7 -32 -6 -150q1 -86 -32 -118q-246 -17 -479 0q-33 25 -32 125q1 114 -13 143h-7q-52 -18 -80 -70q-7 -14 -48 -122q-3 -9 -14 -50q-10 -35 -19 -54q-27 -59 -82 -43q-9 20 -9 54q0 29 -16 49q-38 46 -176 41q-205 -6 -227 -3q-9 -9 -51 -45v-1150q14 2 18 -11
q6 -20 8 -21q157 -20 217 6q27 22 27 110q0 12 -2 78q-1 47 0 74q11 -1 68 1q43 1 60 -7q2 -19 2 -56q0 -45 1 -63q4 -76 36 -111q5 -6 25 -13q16 -5 19 -19q91 -7 505 -7h518q112 21 127 202q5 61 0 171q-5 147 -5 177v448z" />
    <glyph glyph-name="Otilde" unicode="&#xd5;" horiz-adv-x="1610" 
d="M780 625q-34 -25 -57 -32q-47 -62 -47 -138q1 -71 43 -129q44 -59 114 -78q77 -22 166 13q69 46 88 124q18 71 -11 143q-28 72 -90 108q-68 40 -150 19q-23 -6 -56 -30zM681 186q-110 86 -126 210q-7 50 0 101q8 67 55 139q47 73 102 103q51 28 132 36q80 8 144 -8
q161 -39 230 -258q15 -152 -68 -267q-79 -109 -202 -127q-148 -21 -267 71zM504 661q-9 0 -65 -1q-40 -1 -58 6v107q22 1 65 -2q34 -2 58 2v-112zM1367 871q-82 50 -194 26q-31 8 -73 61q-43 54 -79 62q-44 11 -132 2q-97 -9 -149 -2q-67 -80 -98 -100q-69 -44 -104 38
q-16 0 -99 1q-61 1 -92 -6q-15 -1 -20 -25q-5 -27 -14 -31q-65 1 -105 -41q-18 -18 -58 -89q6 -36 -7 -426q-9 -267 91 -321q35 -19 129 -20q29 0 80 1q54 2 72 2h804q13 9 42 22q25 12 37 23q75 68 67 307q-11 349 -5 390q-21 81 -93 126zM1198 1172q-56 61 -59 62
q-98 50 -202 0q-17 -9 -51 -48q-33 -38 -56 -48q-52 -22 -94 22q-67 70 -74 74q-35 18 -95 20q-64 1 -108 -20q4 2 -71 -69q-51 -47 -103 -27q-13 5 -92 82q-55 54 -110 25q-1 -7 -1 -22q1 -10 -5 -29q62 6 106 -46q54 -65 74 -72q61 -21 108 -4q30 11 71 50q46 44 67 56
q43 23 97 11q33 -8 62 -46q36 -46 50 -55q60 -38 111 -24q34 10 84 53q57 50 82 62q50 25 105 4q6 -5 47 -46q30 -29 51 -44q63 -43 138 -17q22 8 83 68q51 49 97 45v62q-60 17 -120 -44q-69 -70 -99 -74q-51 -7 -93 39zM457 1316q60 58 103 58q54 0 100 -48q64 -66 80 -75
q59 -16 115 10q25 13 88 62q52 41 86 47q50 9 105 -35q13 -11 27 -36q13 -24 23 -31q72 -50 150 -3q24 14 57 43q36 32 46 38q9 6 28 13q21 8 29 12q29 16 16 54q-74 15 -125 -40q-64 -68 -83 -72q-39 -11 -76 12q-14 9 -63 54q-85 77 -181 46q-10 -12 -26 -15
q-23 -4 -30 -8q-20 -10 -56 -50q-31 -35 -51 -39q-53 -11 -96 33q-63 66 -56 62q-35 20 -108 18q-68 -2 -100 -18q-12 -6 -54 -53q-35 -39 -69 -42q-43 -4 -123 66q-75 66 -136 46v-51q65 -4 137 -77q64 -66 138 -52q41 7 105 71z" />
    <glyph glyph-name="Odieresis" unicode="&#xd6;" horiz-adv-x="1526" 
d="M1199 697q-5 -8 -3 -17q-10 -7 -64 -62q-38 -39 -76 -50q-111 -117 -248 -152q3 1 -67 -9q-41 -6 -62 -25q266 -55 480 95q201 141 245 378q33 171 -22 253q-22 -257 -180 -394q2 -8 -3 -17zM543 952q16 32 23 43q21 32 69 69q50 39 66 61q46 61 102 95q201 124 348 135
q-82 35 -208 17q-221 -31 -367 -183q-141 -146 -184 -374q1 -4 12 -100q6 -61 27 -85q2 130 85 270q10 17 27 52zM1270 1357q-54 -45 -74 -80q-131 -4 -140 -6q-116 -30 -208 -101q-97 -74 -164 -147q-93 -101 -118 -140q-3 -5 -56 -180q-20 -65 -11 -129q-41 -18 -84 -71
q-54 -66 -74 -81q28 -30 29 -23q-44 -48 -162 -164q-105 -102 -159 -168q4 -4 26 -35q16 -22 30 -32q40 31 125 128q84 96 123 125q6 5 18 9q11 3 15 8q61 61 51 62q7 -1 18 -20q9 -16 16 -8q167 159 163 157q96 -17 187 29q26 12 74 43q46 29 71 41q57 27 123 96
q86 89 107 106q12 34 41 87q39 71 48 89q52 109 29 206q16 18 79 74q52 47 79 84q-19 28 -59 62q-57 48 -65 56q-19 -27 -78 -77z" />
    <glyph glyph-name="multiply" unicode="&#xd7;" horiz-adv-x="974" 
d="M721 416h-466v112h466v-112zM137 707q-8 -91 -6 -249q1 -210 0 -256q24 -63 99 -81q29 -6 137 -9v-112h242q1 10 -1 60q-1 37 6 52q26 3 61 4q45 1 52 2q55 3 84 28q58 50 44 252q-17 245 1 309h-719zM502 893q-300 0 -359 5q-35 202 0 405q349 14 690 0q21 -104 6 -405
q-39 -5 -337 -5zM518 1433q-281 -4 -325 -1q5 5 -67 -17q-50 -36 -59 -117q-3 -23 -3 -197q0 -231 6 -248q25 -76 159 -87q45 -3 127 0q112 3 135 3h331q43 25 84 90v472q-7 11 -28 41q-19 26 -28 43q-107 22 -332 18z" />
    <glyph glyph-name="Oslash" unicode="&#xd8;" horiz-adv-x="1071" 
d="M471 899q-16 -37 -114 -238q-70 -144 -103 -247q-147 -288 -162 -352q-24 -12 -28 -61h50q29 65 85 180q63 129 88 183h45q17 36 66 151q38 90 67 144q8 -50 7 -141q-2 -124 -1 -149q-2 -8 11 -6t11 -5q0 -49 2 -178q1 -96 -2 -168q9 -9 34 -12q25 -2 39 7v357q2 0 8 -1
h9q9 1 5 12q1 24 -1 140q-1 86 7 133q110 -213 133 -284h45q39 -70 89 -182q64 -141 84 -181q61 5 61 6q-65 135 -205 438q-139 300 -213 454h-117zM527 1311q77 -6 117 -61q26 -58 4 -106q-20 -42 -68 -62q-47 -20 -94 -9q-49 12 -71 54q-10 21 -10 65t10 64q31 61 112 55z
M514 948q231 3 275 1q29 14 33 44q2 10 1 30q-1 29 -1 37q5 262 0 279q-22 30 -84 32h-50q-29 -1 -44 2q-3 14 -13 32q-12 23 -15 29h-173q-11 -10 -20 -33q-8 -22 -19 -28q-18 -3 -87 1q-42 3 -63 -18q-20 -20 -21 -83q0 -19 2 -57t2 -55q0 -177 17 -201q91 -15 260 -12z
" />
    <glyph glyph-name="Ugrave" unicode="&#xd9;" horiz-adv-x="2020" 
d="M1113 924q-81 24 -149 13q-144 -21 -216 -117q-74 -98 -54 -248q17 -124 115 -194q89 -64 209 -61t206 73q95 77 105 206q6 65 -29 152q-35 89 -82 126q-36 29 -105 50zM1111 148q-130 -22 -260 19q-129 40 -217 130q-94 95 -115 219q-29 172 24 302q44 110 153 195
q114 88 236 99q183 17 324 -64q129 -74 193 -212q62 -136 40 -287q-24 -159 -136 -287q-103 -90 -242 -114zM1957 1088q-59 91 -68 102q-42 48 -107 65q-55 15 -185 4q-128 -11 -180 4q-42 12 -98 81q-56 70 -85 78q-76 22 -233 4q-163 -19 -228 -4q-11 -9 -87 -89
q-57 -61 -95 -70q-19 -5 -268 -3q-164 1 -225 -92q-47 -73 -48 -267q0 -58 4 -155q4 -99 4 -126q0 -34 -4 -139q-4 -99 -3 -156q2 -186 55 -253q43 -55 165 -68q41 -4 232 -4h1197q135 7 186 48q61 50 71 203q0 -3 0 281v556z" />
    <glyph glyph-name="Uacute" unicode="&#xda;" horiz-adv-x="2264" 
d="M1095 774q-8 11 -21 34t-19 31q-22 29 -48 6q-31 -27 -97 -133q-65 -105 -97 -132q-32 8 -62 77q-27 64 -62 64q-13 0 -27 -17q-5 -5 -13 -17q-9 -13 -13 -19q-8 -11 -141 -206q-10 -14 -29 -39q-20 -26 -29 -37q-30 -44 -30 -77q257 -19 994 -6q2 25 -53 106
q-114 171 -129 195q-23 34 -124 170zM607 768q68 55 51 149t-98 111q-56 11 -99 -14q-40 -23 -58 -69q-17 -45 -7 -92q11 -51 52 -85q84 -20 159 0zM253 209q-15 560 0 907q57 -1 652 1q401 1 655 -7q16 -449 0 -901q-653 -15 -1307 0zM2184 1281q-30 31 -131 30
q-130 -2 -157 5q-6 8 -14 58q-7 38 -33 48q-24 -1 -124 9q-80 8 -118 -3q-34 -11 -39 -49q-8 -53 -19 -69h-1437q-5 -11 -28 -30q-20 -18 -25 -35q-15 -595 0 -1195q36 -36 104 -42q-9 1 126 1h1360q23 0 120 -4q101 -4 162 -5q207 -2 242 33q24 24 26 130q0 33 -1 88
q-2 61 -2 76q0 797 -12 954z" />
    <glyph glyph-name="Ucircumflex" unicode="&#xdb;" horiz-adv-x="1190" 
d="M359 1080q-22 -5 -133 3q-78 6 -97 -31q-11 -20 -3 -111q8 -92 25 -97q12 -1 77 1q47 1 70 -6v-478q-12 -20 -83 -115q-51 -68 -69 -127q-48 -48 -51 -52q-27 -35 -22 -66q-6 -5 62 11q13 29 163 253q2 -16 -2 -126q-3 -92 13 -127q1 24 50 0q1 22 0 127q-2 79 6 121
q45 -52 163 -248q55 -8 67 -11q-18 52 -74 126q-55 71 -72 127q-83 88 -90 118v708zM1073 602h-236q1 70 -1 389q-1 239 7 381h230v-770zM775 1434q-17 -23 -61 -54q-46 -34 -62 -52q-7 -8 -17 -28t-17 -29q-8 -9 -24 -20q-21 -14 -27 -19q-31 -28 -75 -78q-50 -59 -71 -79
v-231q225 -206 371 -303h177q95 0 160 5q8 166 7 441q-2 367 -1 447h-360z" />
    <glyph glyph-name="Udieresis" unicode="&#xdc;" horiz-adv-x="1562" 
d="M309 128q0 -7 -1 -58q-1 -37 6 -53q9 -15 42 -16q9 -1 29 0h29q8 8 13 28q7 28 9 33q81 2 342 0q226 -1 346 5q9 -6 13 -34q4 -27 15 -32q59 -4 94 11q3 12 6 116h-943zM1307 128q0 -53 6 -66q12 9 27 5q21 -6 28 -5q123 19 128 177q-7 11 -30 12h-21q-15 -1 -21 -1
q21 -141 -117 -122zM137 167q7 10 7 39q-1 27 -7 39q-1 1 -56 5q-15 -100 34 -150q48 -49 138 -33q1 1 6 61q-94 -7 -122 39zM1429 955q-14 -327 0 -655h56q1 122 0 325q-1 241 0 330h-56zM87 955q-14 -483 5 -655q46 -7 52 43q2 16 1 44q-3 37 -3 41q0 444 -11 521
q2 -6 -44 6zM192 1055v-871h1182q-1 572 0 882q-202 7 -564 6q-509 -1 -607 -1q-11 -3 -11 -16zM1402 1116q26 -22 22 -111q67 6 66 5q6 200 -183 172q6 -60 6 -61q-6 4 89 -5zM1253 1162q1 33 -18 20q-82 -2 -471 2q-289 2 -455 -13v-50q184 -7 470 -5q353 2 467 0
q7 27 7 46zM157 1103q24 18 96 18q1 1 6 61q-93 16 -142 -29q-51 -47 -36 -148l61 5q-17 69 15 93zM636 1243q4 55 6 56q24 -1 142 1q88 1 135 -7q11 -3 3 -20q-8 -19 2 -30h123v100q-9 5 -21 31q-13 25 -29 36q-33 20 -184 23q-139 4 -194 -7q-119 -22 -99 -183h116z" />
    <glyph glyph-name="Yacute" unicode="&#xdd;" horiz-adv-x="1543" 
d="M1020 756q34 94 47 151h-160q-105 -1 -146 0q20 45 61 170q36 111 65 166q0 13 -12 18q-14 -8 -50 -7q-49 2 -58 1q-9 -16 -150 -234q-90 -141 -138 -246q27 -1 157 1q97 1 149 -7q-6 -13 -29 -88q-17 -54 -37 -80h-186q23 -62 85 -206q57 -129 83 -208q241 178 474 414
q-17 1 -106 -1q-65 -1 -98 7q12 47 49 149zM1185 390q-34 37 -52 49q-25 -5 -51 -30q-30 -29 -45 -36q14 -24 54 -60q40 -35 54 -60q-153 -121 -300 -138q-145 -16 -289 42q-94 39 -215 126q-13 23 -45 69q-35 49 -51 75q-59 94 -72 180q-21 149 14 279q36 129 118 207
q32 -24 77 -70q57 -60 73 -74q20 10 36 48q16 43 30 54q-17 24 -67 70q-47 43 -65 74q173 146 429 120q244 -25 387 -180q153 -167 168 -378q15 -209 -132 -414q-24 13 -56 47zM1032 1388q-167 61 -343 41q-133 -16 -174 -30q-75 -27 -173 -99q-100 -73 -145 -135
q-130 -180 -138 -420q-9 -252 126 -450q124 -180 372 -258q206 -64 384 -18q173 45 319 177q150 136 197 297q59 202 3 415q-51 192 -171 317q-104 108 -257 163z" />
    </font>
</defs>
</svg>
